<?xml version="1.0" encoding="UTF-8"?>
<svg width="18px" height="18px" viewBox="0 0 18 18" version="1.1" xmlns="http://www.w3.org/2000/svg" xmlns:xlink="http://www.w3.org/1999/xlink">
    <!-- Generator: Sketch 61.2 (89653) - https://sketch.com -->
    <title>icons/navigation/reports</title>
    <desc>Created with Sketch.</desc>
    <g id="icons/navigation/reports" stroke="none" stroke-width="1" fill="none" fill-rule="evenodd">
        <g id="icons/navigation/dashboard" transform="translate(0.800000, 1.000000)" fill="#112B42" fill-rule="nonzero">
            <path d="M16.2857143,2.5 L16.2857143,7.26902668 L16.2857143,7.26902668 L11.9220779,7.26902668 C11.7032818,7.26906827 11.4982329,7.36737803 11.3613275,7.53318731 L11.2988052,7.62157447 L9.87116883,10 L7.50680519,4.09173512 C7.40433373,3.83523222 7.16527403,3.6589327 6.88983266,3.63673596 C6.64882146,3.61731381 6.41639286,3.71881295 6.26674592,3.90311574 L6.2078961,3.98706113 L4.23771429,7.26902668 L0.285714286,7.26902668 L0.285714286,2.5 C0.285714286,1.11928813 1.40500241,2.53632657e-16 2.78571429,0 L13.7857143,0 C15.1664262,-1.47995115e-15 16.2857143,1.11928813 16.2857143,2.5 Z" id="Path" opacity="0.396856399"></path>
            <path d="M0.285714286,13.5 L0.285714286,8.73097332 L0.285714286,8.73097332 L4.64935065,8.73097332 C4.86814675,8.73093173 5.07319563,8.63262197 5.2101011,8.46681269 L5.27262338,8.37842553 L6.70025974,6 L9.06462338,11.9104456 C9.15434161,12.1350283 9.34876191,12.2981168 9.58061609,12.3501369 L9.68207792,12.3654867 L9.74025974,12.3654867 C9.95905584,12.3654451 10.1641047,12.2671353 10.3010102,12.101326 L10.3635325,12.0129389 L12.3337143,8.73097332 L16.2857143,8.73097332 L16.2857143,13.5 C16.2857143,14.8807119 15.1664262,16 13.7857143,16 L2.78571429,16 C1.40500241,16 0.285714286,14.8807119 0.285714286,13.5 Z" id="Path" opacity="0.800000012"></path>
        </g>
    </g>
</svg>