<?xml version="1.0" encoding="UTF-8"?>
<svg width="16px" height="16px" viewBox="0 0 16 16" version="1.1" xmlns="http://www.w3.org/2000/svg" xmlns:xlink="http://www.w3.org/1999/xlink">
    <!-- Generator: Sketch 61.2 (89653) - https://sketch.com -->
    <title>icons/income</title>
    <desc>Created with Sketch.</desc>
    <g id="icons/income" stroke="none" stroke-width="1" fill="none" fill-rule="evenodd">
        <path d="M16,12.8586667 L16,14 C16,15.1046667 13.9106667,16 11.3333333,16 C8.756,16 6.66666667,15.1046667 6.66666667,14 L6.66666667,14 L6.66666667,12.8586667 C7.73133333,13.574 9.366,14 11.3333333,14 C13.3006667,14 14.9353333,13.574 16,12.8586667 L16,12.8586667 Z M16,9.52533333 L16,10.6666667 C16,11.7713333 13.9106667,12.6666667 11.3333333,12.6666667 C8.756,12.6666667 6.66666667,11.7713333 6.66666667,10.6666667 L6.66666667,10.6666667 L6.66666667,9.52533333 C7.73133333,10.2406667 9.366,10.6666667 11.3333333,10.6666667 C13.3006667,10.6666667 14.9353333,10.2406667 16,9.52533333 L16,9.52533333 Z M11.3333333,5.33333333 C13.9106622,5.33333333 16,6.22876383 16,7.33333333 C16,8.43790283 13.9106622,9.33333333 11.3333333,9.33333333 C8.7560045,9.33333333 6.66666667,8.43790283 6.66666667,7.33333333 C6.66666667,6.22876383 8.7560045,5.33333333 11.3333333,5.33333333 Z" id="Combined-Shape" fill="#415668" fill-rule="nonzero"></path>
        <path d="M2.44249065e-14,10.8586667 C1.06466667,11.574 2.69933333,12 4.66666667,12 C4.894,12 5.11533333,11.9926667 5.33333333,11.982 L5.33333333,11.982 L5.33333333,13.9773333 C5.11533333,13.9906667 4.89333333,14 4.66666667,14 C2.08933333,14 2.44249065e-14,13.1046667 2.44249065e-14,12 L2.44249065e-14,12 Z M2.44249065e-14,7.52533333 C1.06466667,8.24066667 2.69933333,8.66666667 4.66666667,8.66666667 C4.894,8.66666667 5.11533333,8.65933333 5.33333333,8.64866667 L5.33333333,8.64866667 L5.33333333,10.644 C5.11533333,10.6573333 4.89333333,10.6666667 4.66666667,10.6666667 C2.08933333,10.6666667 2.44249065e-14,9.77133333 2.44249065e-14,8.66666667 L2.44249065e-14,8.66666667 Z M-5.57776048e-13,4.192 C1.06466667,4.90733333 2.69933333,5.33333333 4.66666667,5.33333333 C5.36133333,5.33333333 6.012,5.27733333 6.61333333,5.17733333 C5.80666667,5.73733333 5.34333333,6.46866667 5.33533333,7.31066667 C5.116,7.324 4.894,7.33333333 4.66666667,7.33333333 C2.08933333,7.33333333 -5.57776048e-13,6.438 -5.57776048e-13,5.33333333 L-5.57776048e-13,5.33333333 Z M4.66666667,0 C7.2439955,0 9.33333333,0.8954305 9.33333333,2 C9.33333333,3.1045695 7.2439955,4 4.66666667,4 C2.08933783,4 2.48689958e-14,3.1045695 2.48689958e-14,2 C2.48689958e-14,0.8954305 2.08933783,0 4.66666667,0 Z" id="Combined-Shape" fill="#A1ABB4"></path>
    </g>
</svg>