<?xml version="1.0" encoding="UTF-8"?>
<svg width="18px" height="18px" viewBox="0 0 18 18" version="1.1" xmlns="http://www.w3.org/2000/svg" xmlns:xlink="http://www.w3.org/1999/xlink">
    <!-- Generator: Sketch 61.2 (89653) - https://sketch.com -->
    <title>icons/navigation/property</title>
    <desc>Created with Sketch.</desc>
    <g id="icons/navigation/property" stroke="none" stroke-width="1" fill="none" fill-rule="evenodd">
        <g id="new-construction" transform="translate(1.000000, 1.000000)">
            <path d="M15.5246667,2.028 L8.858,0.028 C8.65616136,-0.0324717007 8.43761545,0.00603303671 8.2685973,0.131844525 C8.09957915,0.257656014 7.99998537,0.455963879 8,0.666666667 L8,4 L9.33333333,4 L9.33333333,1.56266667 L14.6666667,3.16266667 L14.6666667,14.6666667 L10.6666667,14.6666667 L10.6666667,6 C10.6666667,5.63181017 10.3681898,5.33333333 10,5.33333333 L3.33333333,5.33333333 C2.9651435,5.33333333 2.66666667,5.63181017 2.66666667,6 L2.66666667,14.6666667 L1.33333333,14.6666667 L1.33333333,8 L0.666666667,8 C0.298476833,8 0,8.29847683 0,8.66666667 L0,15.3333333 C0,15.7015232 0.298476833,16 0.666666667,16 L15.3333333,16 C15.7015232,16 16,15.7015232 16,15.3333333 L16,2.66666667 C16,2.3721545 15.8067889,2.11252499 15.5246667,2.028 Z M8,14 L5.33333333,14 L5.33333333,12.6666667 L8,12.6666667 L8,14 Z M8,11.3333333 L5.33333333,11.3333333 L5.33333333,10 L8,10 L8,11.3333333 Z M8,8.66666667 L5.33333333,8.66666667 L5.33333333,7.33333333 L8,7.33333333 L8,8.66666667 Z" id="Shape" fill="#415668" fill-rule="nonzero"></path>
            <rect id="Rectangle" fill="#A1ABB4" x="12" y="5.33333333" width="1.33333333" height="8"></rect>
        </g>
    </g>
</svg>