<svg width="406" height="82" viewBox="0 0 406 82" fill="none" xmlns="http://www.w3.org/2000/svg">
    <path d="M33.4319 16H0V24.794H33.4319V16Z" fill="#0089FF"/>
    <path d="M0 38.4357V66H10.671V47.2445H31.2149V38.4357H0Z" fill="#0089FF"/>
    <path d="M54.8778 66V16.5455H86.5597V24.0554H63.8366V37.4815H84.3864V44.9915H63.8366V66H54.8778ZM92.104 66V28.9091H100.58V35.0909H100.966C101.642 32.9337 102.801 31.2756 104.443 30.1165C106.102 28.9574 107.993 28.3778 110.118 28.3778C110.601 28.3778 111.14 28.402 111.736 28.4503C112.348 28.4825 112.855 28.5388 113.257 28.6193V36.6605C112.887 36.5317 112.3 36.419 111.495 36.3224C110.706 36.2098 109.941 36.1534 109.201 36.1534C106.802 36.1534 104.806 36.91 103.212 38.4233C101.634 39.9205 100.845 41.8442 100.845 44.1946V66H92.104ZM127.308 66.7486C123.766 66.7486 120.812 65.7988 118.446 63.8991C116.079 61.9995 114.896 59.2306 114.896 55.5923C114.896 52.8073 115.564 50.6501 116.9 49.1207C118.252 47.5753 119.999 46.4564 122.14 45.7642C124.297 45.0559 126.575 44.5729 128.974 44.3153C132.242 43.9612 134.584 43.6312 136.001 43.3253C137.434 43.0194 138.15 42.2386 138.15 40.983V40.8381C138.15 39.0189 137.611 37.6103 136.532 36.6122C135.454 35.6141 133.9 35.1151 131.872 35.1151C129.731 35.1151 128.032 35.5819 126.776 36.5156C125.537 37.4493 124.7 38.5521 124.265 39.8239L116.103 38.6648C117.069 35.2841 118.953 32.7325 121.754 31.0099C124.571 29.2874 127.928 28.4261 131.823 28.4261C133.594 28.4261 135.365 28.6354 137.136 29.054C138.907 29.4725 140.525 30.1648 141.99 31.1307C143.471 32.0966 144.654 33.4006 145.539 35.0426C146.441 36.6847 146.892 38.7292 146.892 41.1761V66H138.488V60.9048H138.198C137.41 62.4664 136.122 63.8348 134.335 65.0099C132.564 66.169 130.222 66.7486 127.308 66.7486ZM129.578 60.3253C132.218 60.3253 134.311 59.5687 135.856 58.0554C137.401 56.5421 138.174 54.7552 138.174 52.6946V48.3239C137.804 48.6297 137.12 48.9034 136.122 49.1449C135.14 49.3703 134.093 49.5634 132.982 49.7244C131.872 49.8854 130.93 50.0223 130.157 50.1349C128.209 50.4086 126.583 50.9479 125.279 51.7528C123.975 52.5417 123.323 53.7732 123.323 55.4474C123.323 57.0573 123.911 58.2727 125.086 59.0938C126.261 59.9148 127.758 60.3253 129.578 60.3253ZM153.981 66V28.9091H162.336V35.2116H162.771C163.544 33.1027 164.824 31.4446 166.611 30.2372C168.398 29.0298 170.531 28.4261 173.01 28.4261C175.505 28.4261 177.622 29.0298 179.361 30.2372C181.099 31.4446 182.323 33.1027 183.031 35.2116H183.417C184.238 33.151 185.623 31.509 187.571 30.2855C189.535 29.0459 191.861 28.4261 194.55 28.4261C197.962 28.4261 200.747 29.5047 202.905 31.6619C205.062 33.8191 206.14 36.9664 206.14 41.1037V66H197.375V42.456C197.375 40.1539 196.763 38.4716 195.54 37.4091C194.316 36.3305 192.819 35.7912 191.048 35.7912C188.939 35.7912 187.289 36.4512 186.098 37.7713C184.923 39.0753 184.335 40.7737 184.335 42.8665V66H175.763V42.0938C175.763 40.178 175.183 38.6487 174.024 37.5057C172.881 36.3627 171.384 35.7912 169.532 35.7912C167.649 35.7912 166.039 36.4995 164.703 37.9162C163.383 39.3168 162.723 41.16 162.723 43.446V66H153.981ZM229.729 66.7244C226.01 66.7244 222.799 65.9437 220.094 64.3821C217.406 62.8205 215.337 60.6151 213.888 57.7656C212.439 54.9162 211.715 51.5516 211.715 47.6719C211.715 43.8565 212.439 40.508 213.888 37.6264C215.337 34.7287 217.374 32.4749 219.998 30.8651C222.638 29.2391 225.729 28.4261 229.27 28.4261C232.313 28.4261 235.122 29.0862 237.698 30.4062C240.274 31.7102 242.334 33.7467 243.88 36.5156C245.441 39.2685 246.222 42.8182 246.222 47.1648V49.8452H220.384C220.432 53.0166 221.31 55.4877 223.016 57.2585C224.739 59.0294 227.017 59.9148 229.85 59.9148C231.733 59.9148 233.359 59.5123 234.728 58.7074C236.112 57.8864 237.102 56.6951 237.698 55.1335L245.86 56.0511C245.087 59.2708 243.284 61.8546 240.451 63.8026C237.633 65.7505 234.06 66.7244 229.729 66.7244ZM220.408 43.9531H237.843C237.827 41.4257 237.038 39.3409 235.476 37.6989C233.931 36.0568 231.902 35.2358 229.391 35.2358C226.783 35.2358 224.666 36.0971 223.04 37.8196C221.414 39.5421 220.537 41.5866 220.408 43.9531ZM259.373 66L248.893 28.9091H257.803L264.323 54.9886H264.661L271.326 28.9091H280.14L286.805 54.8438H287.167L293.59 28.9091H302.525L292.021 66H282.917L275.962 40.9347H275.455L268.501 66H259.373ZM322.111 66.7244C318.489 66.7244 315.35 65.9276 312.693 64.3338C310.037 62.7401 307.977 60.5104 306.512 57.6449C305.063 54.7633 304.338 51.4148 304.338 47.5994C304.338 43.768 305.063 40.4195 306.512 37.554C307.977 34.6723 310.037 32.4347 312.693 30.8409C315.35 29.2311 318.489 28.4261 322.111 28.4261C325.733 28.4261 328.872 29.2311 331.529 30.8409C334.201 32.4347 336.262 34.6723 337.711 37.554C339.159 40.4195 339.884 43.768 339.884 47.5994C339.884 51.4148 339.159 54.7633 337.711 57.6449C336.262 60.5104 334.201 62.7401 331.529 64.3338C328.872 65.9276 325.733 66.7244 322.111 66.7244ZM322.159 59.7216C324.139 59.7216 325.782 59.1823 327.086 58.1037C328.406 57.0251 329.388 55.5682 330.032 53.733C330.692 51.8816 331.022 49.8291 331.022 47.5753C331.022 45.3054 330.692 43.2528 330.032 41.4176C329.388 39.5663 328.406 38.0933 327.086 36.9986C325.782 35.9039 324.139 35.3565 322.159 35.3565C320.163 35.3565 318.497 35.9039 317.161 36.9986C315.841 38.0933 314.851 39.5663 314.191 41.4176C313.531 43.2528 313.201 45.3054 313.201 47.5753C313.201 49.8291 313.531 51.8816 314.191 53.733C314.851 55.5682 315.841 57.0251 317.161 58.1037C318.497 59.1823 320.163 59.7216 322.159 59.7216ZM345.603 66V28.9091H354.079V35.0909H354.465C355.142 32.9337 356.301 31.2756 357.943 30.1165C359.601 28.9574 361.492 28.3778 363.617 28.3778C364.1 28.3778 364.64 28.402 365.235 28.4503C365.847 28.4825 366.354 28.5388 366.757 28.6193V36.6605C366.386 36.5317 365.799 36.419 364.994 36.3224C364.205 36.2098 363.44 36.1534 362.7 36.1534C360.301 36.1534 358.305 36.91 356.711 38.4233C355.134 39.9205 354.345 41.8442 354.345 44.1946V66H345.603ZM370.864 66V16.5455H379.606V43.8082H380.209L393.539 28.9091H403.753L389.385 44.919L404.599 66H394.143L382.793 50.1349L379.606 53.5398V66H370.864Z" fill="white"/>
</svg>
