<svg width="13" height="13" viewBox="0 0 13 13" fill="none" xmlns="http://www.w3.org/2000/svg">
<path d="M4.18675 11.6976L4.28481 12.1879C4.3816 12.1686 4.4705 12.121 4.5403 12.0512L4.18675 11.6976ZM0.580503 12.4189L0.0902127 12.3208C0.0574268 12.4848 0.108738 12.6542 0.22695 12.7725C0.345161 12.8907 0.514631 12.942 0.678561 12.9092L0.580503 12.4189ZM1.30175 8.81265L0.948198 8.4591C0.878398 8.5289 0.830821 8.6178 0.811461 8.7146L1.30175 8.81265ZM12.2297 2.43066L11.8762 2.78422L12.2297 2.43066ZM12.2297 3.65466L12.5833 4.00822L12.5833 4.00822L12.2297 3.65466ZM10.5687 0.769667L10.9223 0.416113L10.5687 0.769667ZM9.34474 0.769666L8.99119 0.416112L9.34474 0.769666ZM10.2152 1.12322L11.8762 2.78422L12.5833 2.07711L10.9223 0.416113L10.2152 1.12322ZM11.8762 3.30111L3.83319 11.3441L4.5403 12.0512L12.5833 4.00822L11.8762 3.30111ZM4.08869 11.2074L0.482445 11.9286L0.678561 12.9092L4.28481 12.1879L4.08869 11.2074ZM1.07079 12.517L1.79204 8.91071L0.811461 8.7146L0.0902127 12.3208L1.07079 12.517ZM1.6553 9.16621L9.69829 1.12322L8.99119 0.416112L0.948198 8.4591L1.6553 9.16621ZM11.8762 2.78422C12.0189 2.92695 12.0189 3.15837 11.8762 3.30111L12.5833 4.00822C13.1165 3.47496 13.1165 2.61037 12.5833 2.07711L11.8762 2.78422ZM10.9223 0.416113C10.389 -0.117147 9.52445 -0.117149 8.99119 0.416112L9.69829 1.12322C9.84103 0.980484 10.0724 0.980483 10.2152 1.12322L10.9223 0.416113ZM7.83284 2.10636L10.8928 5.16636L11.6 4.45926L8.53995 1.39926L7.83284 2.10636Z" fill="#2D95F0"/>
</svg>
