<svg width="34" height="40" viewBox="0 0 34 40" fill="none" xmlns="http://www.w3.org/2000/svg">
<path d="M33 35.9989C33 37.6557 31.6568 39 30 39L4.00041 38.9995C2.3435 38.9995 1.00036 37.656 1.00025 35.9991C1.00016 34.5888 1 33.3235 1 32.1238V4.00023C1 2.34337 2.34356 1.00023 4.00042 1.00017C5.89004 1.0001 7.515 1 8.82222 1H25.1778C26.3765 1 28.2434 1.00008 30.0002 1.00015C31.657 1.00021 33 2.34337 33 4.00022V32.1238C33 33.4586 33 34.3864 33 35.9989Z" stroke="#A6B1B9" stroke-miterlimit="10" stroke-linecap="round" stroke-linejoin="round"/>
<path d="M9 12C10.1046 12 11 11.1046 11 10C11 8.89543 10.1046 8 9 8C7.89543 8 7 8.89543 7 10C7 11.1046 7.89543 12 9 12Z" stroke="#A6B1B9" stroke-miterlimit="10" stroke-linecap="round" stroke-linejoin="round"/>
<path d="M9 22C10.1046 22 11 21.1046 11 20C11 18.8954 10.1046 18 9 18C7.89543 18 7 18.8954 7 20C7 21.1046 7.89543 22 9 22Z" stroke="#A6B1B9" stroke-miterlimit="10" stroke-linecap="round" stroke-linejoin="round"/>
<path d="M15 8.5H27" stroke="#A6B1B9" stroke-miterlimit="10" stroke-linecap="round" stroke-linejoin="round"/>
<path d="M15 18.5H26" stroke="#A6B1B9" stroke-miterlimit="10" stroke-linecap="round" stroke-linejoin="round"/>
<path d="M15 11.5H23" stroke="#A6B1B9" stroke-miterlimit="10" stroke-linecap="round" stroke-linejoin="round"/>
<path d="M15 21.5H23" stroke="#A6B1B9" stroke-miterlimit="10" stroke-linecap="round" stroke-linejoin="round"/>
</svg>
