<svg width="16" height="16" xmlns="http://www.w3.org/2000/svg" viewBox="0 0 18 18"><defs><linearGradient id="a" x1="13.25" y1="12.83" x2="8.62" y2="4.06" gradientUnits="userSpaceOnUse"><stop offset="0" stop-color="#1988d9"/><stop offset=".9" stop-color="#54aef0"/></linearGradient></defs><path fill="#50e6ff" d="M1.01 10.01l7.92 5.13 8.06-5.15L18 11.16l-9.07 5.85L0 11.17l1.01-1.16z"/><path fill="#fff" d="M1.61 9.35L8.93.62l7.47 8.74-7.47 4.72-7.32-4.73z"/><path fill="#50e6ff" d="M8.93.62v13.46L1.61 9.35 8.93.62z"/><path fill="url(#a)" d="M8.93.62v13.46l7.47-4.72L8.93.62z"/><path fill="#53b1e0" d="M8.93 7.57l7.47 1.79-7.47 4.72V7.57z"/><path fill="#9cebff" d="M8.93 14.08L1.61 9.35l7.32-1.78v6.51z"/><path fill="#5ea0ef" d="M8.93 17.01L18 11.16l-1.01-1.17-8.06 5.15v1.87z"/><path d="M17.45 16a.44.44 0 00.44-.44 2.5 2.5 0 00-2.45-2.5c-1.53 0-2.32.95-2.47 2.5a.45.45 0 00.39.49h4.09z" fill="#773adc"/><path d="M15.44 13.38a1.35 1.35 0 01-.75-.22l.74 1.93.73-1.92a1.38 1.38 0 01-.72.21z" fill="#fff" opacity=".8"/><circle cx="15.44" cy="12" r="1.38" fill="#773adc"/><path d="M14.68 17.38a.65.65 0 00.66-.66v-.08c-.26-2.05-1.43-3.73-3.67-3.73S8.22 14.33 8 16.65a.65.65 0 00.58.72h6.11z" fill="#a67af4"/><path d="M11.7 13.4a2 2 0 01-1.11-.33l1.1 2.93 1.1-2.87a2 2 0 01-1.09.27z" fill="#fff" opacity=".8"/><circle cx="11.69" cy="11.34" r="2.06" fill="#a67af4"/></svg>