<svg width="16" height="16" viewBox="0 0 16 16" fill="none" xmlns="http://www.w3.org/2000/svg">
<path d="M15 8.04204C14.9998 6.70434 14.6164 5.39469 13.8951 4.26815C13.1737 3.1416 12.1447 2.24534 10.9298 1.68546C9.71487 1.12558 8.36499 0.925532 7.03993 1.109C5.71487 1.29247 4.47012 1.85178 3.45306 2.7207C2.43599 3.58962 1.6892 4.73177 1.30109 6.01193C0.912983 7.29209 0.899811 8.65666 1.26313 9.94407C1.62646 11.2315 2.35106 12.3878 3.35116 13.2762C4.35126 14.1646 5.58498 14.7479 6.90625 14.9569V10.0656H5.12883V8.04204H6.90625V6.49971C6.90625 4.74562 7.95158 3.77612 9.54992 3.77612C10.075 3.78365 10.5988 3.82927 11.1173 3.91262V5.63579H10.2342C9.96831 5.6005 9.69932 5.67223 9.48634 5.83522C9.27336 5.99821 9.13382 6.23911 9.09842 6.50496C9.08841 6.5794 9.08684 6.65474 9.09375 6.72954V8.04204H11.0333L10.723 10.0656H9.08967V14.9569C10.737 14.6973 12.2376 13.8581 13.3211 12.5903C14.4047 11.3226 15 9.70973 15 8.04204Z" fill="#5389DB"/>
</svg>
