<?xml version="1.0" encoding="UTF-8"?>
<svg width="16px" height="16px" viewBox="0 0 16 16" version="1.1" xmlns="http://www.w3.org/2000/svg" xmlns:xlink="http://www.w3.org/1999/xlink">
    <!-- Generator: Sketch 61.2 (89653) - https://sketch.com -->
    <title>Artboard</title>
    <desc>Created with Sketch.</desc>
    <g id="Artboard" stroke="none" stroke-width="1" fill="none" fill-rule="evenodd">
        <g id="key" transform="translate(1.000000, 1.000000)" fill="#82AD29">
            <path d="M14,5.25 C14,8.1494875 11.6494875,10.5 8.75,10.5 C8.219575,10.5 7.7076125,10.4213375 7.2249625,10.2750375 L7,10.5 L6.125,11.375 L5.25,12.25 L3.5,12.25 L3.5,14 L0,14 L0,10.5 L3.72493625,6.77506375 C3.57865375,6.29243125 3.5,5.78039875 3.5,5.25 C3.5,2.35050375 5.85050375,0 8.75,0 C11.6494875,0 14,2.35050375 14,5.25 Z M8.75,1.75 C8.2667375,1.75 7.875,2.141755 7.875,2.625 C7.875,3.108245 8.2667375,3.5 8.75,3.5 C9.716525,3.5 10.5,4.28350125 10.5,5.25 C10.5,5.733245 10.8917375,6.125 11.375,6.125 C11.8582625,6.125 12.25,5.733245 12.25,5.25 C12.25,3.3170025 10.6829625,1.75 8.75,1.75 Z" id="Shape"></path>
        </g>
    </g>
</svg>