<svg width="16" height="16" viewBox="0 0 16 16" fill="none" xmlns="http://www.w3.org/2000/svg">
<path fill-rule="evenodd" clip-rule="evenodd" d="M7.95652 1C4.13043 1 1 4.13043 1 7.95652C1 11 3 13.6087 5.78261 14.5652C6.13043 14.6522 6.21739 14.3913 6.21739 14.2174C6.21739 14.0435 6.21739 13.6087 6.21739 13C4.30435 13.4348 3.86957 12.1304 3.86957 12.1304C3.52174 11.3478 3.08696 11.087 3.08696 11.087C2.47826 10.6522 3.17391 10.6522 3.17391 10.6522C3.86957 10.7391 4.21739 11.3478 4.21739 11.3478C4.82609 12.4783 5.86957 12.1304 6.21739 11.9565C6.30435 11.5217 6.47826 11.1739 6.65217 11C5.08696 10.8261 3.52174 10.2174 3.52174 7.52174C3.52174 6.73913 3.78261 6.13043 4.21739 5.69565C4.13043 5.52174 3.86957 4.82609 4.30435 3.86956C4.30435 3.86956 4.91304 3.69565 6.21739 4.56522C6.73913 4.3913 7.34783 4.30435 7.95652 4.30435C8.56522 4.30435 9.17391 4.3913 9.69565 4.56522C11 3.69565 11.6087 3.86956 11.6087 3.86956C11.9565 4.82609 11.7826 5.52174 11.6957 5.69565C12.1304 6.21739 12.3913 6.82609 12.3913 7.52174C12.3913 10.2174 10.7391 10.7391 9.17391 10.913C9.43478 11.2609 9.69565 11.6957 9.69565 12.3043C9.69565 13.2609 9.69565 13.9565 9.69565 14.2174C9.69565 14.3913 9.78261 14.6522 10.2174 14.5652C13 13.6087 15 11 15 7.95652C14.913 4.13043 11.7826 1 7.95652 1Z" fill="#2E2F31"/>
</svg>
