<svg width="16" height="16" viewBox="0 0 16 16" fill="none" xmlns="http://www.w3.org/2000/svg">
<path d="M8.1073 3.9076C9.09411 3.90699 10.0493 4.25571 10.8036 4.89197L12.9164 2.87994C12.1053 2.13208 11.1311 1.58355 10.0711 1.27789C9.01106 0.972233 7.89437 0.917853 6.80964 1.11907C5.72492 1.32029 4.70203 1.77156 3.82214 2.43707C2.94225 3.10259 2.2296 3.96403 1.74072 4.95303L4.12266 6.78899C4.40045 5.95131 4.93476 5.22228 5.6499 4.70514C6.36505 4.188 7.22477 3.90898 8.1073 3.9076Z" fill="#D94F3D"/>
<path d="M3.90755 8.10738C3.90815 7.65922 3.9808 7.21406 4.12271 6.78896L1.74078 4.953C1.25355 5.93314 1 7.01282 1 8.10738C1 9.20194 1.25355 10.2816 1.74078 11.2618L4.12271 9.42579C3.9808 9.00069 3.90815 8.55554 3.90755 8.10738Z" fill="#F2C042"/>
<path d="M14.9239 6.81506H8.13965V9.72262H11.9841C11.7554 10.5447 11.2314 11.2536 10.5125 11.7133L12.8761 13.5354C14.3864 12.1798 15.2738 9.97558 14.9239 6.81506Z" fill="#5085ED"/>
<path d="M10.5115 11.7134C9.7811 12.1315 8.94838 12.3371 8.1073 12.3072C7.22477 12.3058 6.36505 12.0268 5.6499 11.5096C4.93476 10.9925 4.40045 10.2635 4.12266 9.42578L1.74072 11.2617C2.32906 12.4477 3.23664 13.446 4.36138 14.1444C5.48612 14.8427 6.7834 15.2134 8.1073 15.2147C9.84937 15.2621 11.5474 14.6637 12.8751 13.5348L10.5115 11.7134Z" fill="#57A75C"/>
</svg>
