<svg width="16" height="16" viewBox="0 0 16 16" fill="none" xmlns="http://www.w3.org/2000/svg">
<path d="M6.82596 4.06912C7.27748 3.59867 7.90608 3.30688 8.60129 3.30688C9.52545 3.30688 10.3317 3.8222 10.7611 4.58722C11.1343 4.4205 11.5473 4.32776 11.9818 4.32776C13.6487 4.32776 15 5.69088 15 7.37226C15 9.05385 13.6487 10.417 11.9818 10.417C11.7822 10.4171 11.583 10.3972 11.3873 10.3577C11.0092 11.0322 10.2887 11.4879 9.46163 11.4879C9.11542 11.4879 8.78795 11.4079 8.49639 11.2657C8.11308 12.1674 7.22004 12.7995 6.1792 12.7995C5.0953 12.7995 4.17154 12.1137 3.81696 11.1519C3.662 11.1848 3.50146 11.2019 3.33672 11.2019C2.04622 11.2019 1 10.1449 1 8.84088C1 7.96698 1.47006 7.20394 2.16846 6.79571C2.02468 6.46487 1.9447 6.09971 1.9447 5.71579C1.9447 4.21608 3.16222 3.00037 4.66394 3.00037C5.54561 3.00037 6.32918 3.41957 6.82596 4.06912Z" fill="#00A1E0"/>
</svg>
