<svg xmlns="http://www.w3.org/2000/svg" xmlns:xlink="http://www.w3.org/1999/xlink" version="1.1" id="Layer_1" x="0px" y="0px" viewBox="0 0 100 100" enable-background="new 0 0 100 100" xml:space="preserve" height="100px" width="100px">
<g>
	<path d="M49.384,79.89c-3.008,0-4.094-2.315-4.248-3.539c-0.042-0.335,0.197-0.64,0.533-0.681c0.332-0.044,0.641,0.195,0.683,0.528   c0.036,0.259,0.416,2.472,3.032,2.472c2.691,0,3.019-2.37,3.031-2.47c0.042-0.335,0.353-0.579,0.684-0.53   c0.336,0.041,0.574,0.346,0.533,0.681C53.478,77.575,52.394,79.89,49.384,79.89z"/>
</g>
<path fill="#000000" d="M59.556,68.476c-1.494,0-2.705,1.206-2.705,2.695s1.211,2.696,2.705,2.696c1.494,0,2.705-1.207,2.705-2.696  S61.05,68.476,59.556,68.476z M60.233,70.988c-0.41,0-0.743-0.332-0.743-0.741c0-0.41,0.333-0.741,0.743-0.741  c0.41,0,0.743,0.332,0.743,0.741C60.977,70.656,60.643,70.988,60.233,70.988z"/>
<path fill="#000000" d="M39.627,68.476c-1.494,0-2.705,1.206-2.705,2.695s1.211,2.696,2.705,2.696c1.494,0,2.705-1.207,2.705-2.696  S41.121,68.476,39.627,68.476z M40.305,70.988c-0.41,0-0.743-0.332-0.743-0.741c0-0.41,0.333-0.741,0.743-0.741  c0.411,0,0.743,0.332,0.743,0.741C41.047,70.656,40.716,70.988,40.305,70.988z"/>
<path fill="#000000" d="M74.065,44.479h-0.503c0.004-0.163,0.008-0.324,0.008-0.486c0-11.033-7.479-20.665-18.188-23.42  c-0.314-0.082-0.646,0.021-0.861,0.264c-0.479,0.543-1.037,1.001-1.646,1.366L50.841,7.707c-0.02-0.14-0.077-0.264-0.156-0.37  c-0.166-0.729-1.079-1.145-2.529-1.145c-0.394,0-0.805,0.032-1.223,0.095c-1.575,0.237-3.096,0.891-3.261,1.853  c-0.101,0.161-0.145,0.351-0.118,0.539l1.877,13.35c-0.501-0.333-0.962-0.732-1.369-1.191c-0.214-0.243-0.547-0.345-0.861-0.264  c-10.708,2.756-18.188,12.388-18.188,23.421c0,0.162,0.004,0.323,0.007,0.486h-0.503c-0.462,0-0.837,0.374-0.837,0.835v2.854  c0,0.46,0.375,0.834,0.837,0.834h2.602l7.032,39.349c0.025,0.138,0.084,0.262,0.165,0.368c-0.081-0.266-0.07-0.265,0.011,0  c0.158,0.207,0.157,0.212-0.002,0.012c1.032,3.337,8.191,5.128,14.96,5.128c6.74,0,13.864-1.775,14.945-5.083  c0.003-0.004,0.007-0.006,0.01-0.009c0.003-0.007,0.004-0.015,0.006-0.022c0.092-0.11,0.159-0.244,0.185-0.393l6.192-34.645  c0.018-0.032,0.037-0.064,0.055-0.097l-0.035-0.019l0.82-4.588h2.602c0.463,0,0.838-0.374,0.838-0.834v-2.854  C74.903,44.852,74.529,44.479,74.065,44.479z M55.441,22.363c9.687,2.725,16.408,11.547,16.408,21.63  c0,0.162-0.007,0.323-0.01,0.486H56l-2.871-20.465C53.978,23.596,54.761,23.042,55.441,22.363z M54.35,44.479h-4.109L47.46,24.71  c0.597,0.129,1.21,0.198,1.832,0.198c0.774,0,1.536-0.105,2.27-0.304L54.35,44.479z M45.011,8.27  c-0.065-0.433,0.854-0.93,2.054-1.111c1.2-0.18,2.226,0.025,2.291,0.457c0.066,0.433-0.853,0.931-2.053,1.111  C46.103,8.908,45.077,8.703,45.011,8.27z M45.339,9.635c0.264,0.039,0.554,0.06,0.872,0.06c0.394,0,0.805-0.032,1.224-0.094  c0.723-0.109,1.4-0.303,1.944-0.553l1.942,13.841c-0.652,0.198-1.334,0.305-2.029,0.305c-0.716,0-1.42-0.112-2.091-0.323  L45.339,9.635z M43.143,22.362c0.752,0.752,1.631,1.351,2.587,1.78l2.861,20.336H26.745c-0.005-0.163-0.011-0.324-0.011-0.486  C26.734,33.91,33.456,25.087,43.143,22.362z M28.867,49.001h20.359l0.897,6.379c-0.146-0.065-0.293-0.128-0.439-0.191  c-3.23-1.408-6.282-2.738-10.266-2.778c-3.67-0.036-7.023,1.005-9.426,2.89L28.867,49.001z M37.919,87.49  c0-1.228,1.003-2.227,2.236-2.227s2.235,0.999,2.235,2.227c0,1.228-1.002,2.228-2.235,2.228S37.919,88.718,37.919,87.49z   M40.303,90.936c0.98-0.041,1.856-0.489,2.461-1.18c0.114,0.765,0.477,1.448,1.008,1.963C42.467,91.517,41.307,91.246,40.303,90.936  z M46.189,91.475c-1.233,0-2.236-0.999-2.236-2.227c0-1.228,1.003-2.228,2.236-2.228c1.232,0,2.235,1,2.235,2.228  C48.424,90.476,47.421,91.475,46.189,91.475z M47.779,86.184c0.352-0.772,1.13-1.31,2.034-1.31c1.072,0,1.969,0.755,2.185,1.759  c0,0,0.002-0.001,0.002-0.001c-0.704,0.602-1.161,1.481-1.203,2.467c-0.297,0.146-0.63,0.229-0.984,0.229  c-0.054,0-0.107-0.004-0.161-0.008c0-0.024,0.002-0.048,0.002-0.072C49.654,87.915,48.892,86.759,47.779,86.184z M49.285,92.123  c-0.392,0-0.776-0.006-1.153-0.017c0.568-0.384,1.017-0.933,1.275-1.578v0c0.133,0.016,0.27,0.026,0.406,0.026  c0.409,0,0.799-0.074,1.164-0.204c0.228,0.671,0.655,1.251,1.215,1.666C51.274,92.085,50.304,92.123,49.285,92.123z M54.255,91.475  c-1.232,0-2.235-0.999-2.235-2.227c0-1.228,1.003-2.228,2.235-2.228c0.763,0,1.436,0.383,1.84,0.965  c0.061,0.418,0.193,0.813,0.391,1.168c0.002,0.032,0.005,0.062,0.005,0.094C56.491,90.476,55.488,91.475,54.255,91.475z   M54.329,85.142c0-1.228,1.002-2.227,2.235-2.227c0.883,0,1.646,0.515,2.009,1.256c-1.104,0.314-1.986,1.16-2.344,2.243  c-0.561-0.39-1.241-0.619-1.975-0.619c0.059,0,0.116,0.004,0.174,0.007C54.364,85.593,54.329,85.372,54.329,85.142z M57.058,91.271  c0.209-0.286,0.375-0.604,0.489-0.946c0.323,0.224,0.686,0.392,1.076,0.497C58.141,90.982,57.619,91.132,57.058,91.271z   M59.521,89.718c-0.762,0-1.436-0.383-1.84-0.965c-0.061-0.418-0.193-0.813-0.391-1.169c-0.001-0.031-0.005-0.062-0.005-0.093  c0-1.228,1.003-2.227,2.236-2.227c1.233,0,2.236,0.999,2.236,2.227C61.757,88.718,60.754,89.718,59.521,89.718z M63.198,85.475  c0.003,0.003,0.006,0.006,0.01,0.01l-0.265,1.481c-0.238-1.55-1.511-2.765-3.093-2.914c0,0,0,0,0,0  c-0.458-1.371-1.758-2.364-3.286-2.364c-1.912,0-3.466,1.549-3.466,3.453c0,0.284,0.039,0.559,0.104,0.823c0.001,0,0.002,0,0.003,0  c-0.037,0.011-0.074,0.021-0.11,0.034c-0.464-1.365-1.758-2.35-3.282-2.35c-1.457,0-2.704,0.901-3.216,2.173  c0.003,0,0.005,0.001,0.008,0.001c-0.137-0.016-0.275-0.027-0.416-0.027c-1.041,0-1.974,0.462-2.61,1.188  c-0.248-1.664-1.686-2.945-3.424-2.945c-1.912,0-3.466,1.549-3.466,3.453c0,0.878,0.333,1.676,0.874,2.286  c-0.398-0.237-0.728-0.478-0.982-0.719h0.006c-0.421-0.398-0.857-1.714-0.857-1.714l-0.395-2.149l-5.008-28.025  c2.114-2.028,5.394-3.169,9.074-3.129c3.652,0.037,6.555,1.302,9.628,2.642c0.583,0.254,1.178,0.512,1.787,0.768l0.001,0  c0.218,0.091,0.421,0.176,0.619,0.256c0.055,0.022,0.108,0.044,0.163,0.066c0.288,0.116,0.562,0.224,0.83,0.326  c0.205,0.078,0.417,0.15,0.631,0.219c0.058,0.019,0.116,0.036,0.174,0.054c0.169,0.052,0.339,0.101,0.514,0.148  c0.057,0.016,0.114,0.031,0.172,0.046c0.221,0.056,0.444,0.109,0.673,0.157c0.065,0.013,0.132,0.024,0.197,0.037  c0.152,0.03,0.306,0.059,0.462,0.085c0.141,0.023,0.283,0.046,0.426,0.066c0.066,0.01,0.131,0.019,0.197,0.028  c0.916,0.125,1.863,0.19,2.82,0.19c2.502,0,5.043-0.426,7.108-1.267c0.98-0.4,1.848-0.905,2.602-1.511L63.198,85.475z   M50.876,49.001h4.108l1.168,8.327c-0.06-0.008-0.122-0.014-0.182-0.023c-0.059-0.008-0.117-0.017-0.174-0.025  c-0.202-0.031-0.401-0.065-0.598-0.102c-0.062-0.013-0.123-0.025-0.184-0.038c-0.196-0.039-0.39-0.082-0.58-0.128  c-0.048-0.012-0.096-0.025-0.144-0.037c-0.201-0.052-0.399-0.106-0.592-0.166c-0.025-0.007-0.048-0.016-0.072-0.024  c-0.209-0.065-0.415-0.135-0.612-0.21c-0.002-0.001-0.002-0.001-0.003-0.001c-0.002,0-0.003-0.001-0.005-0.002  c-0.279-0.105-0.553-0.214-0.826-0.323c-0.03-0.013-0.062-0.026-0.093-0.038c-0.07-0.028-0.14-0.058-0.209-0.086L50.876,49.001z   M68.942,53.335c-0.855,1.333-2.116,2.347-3.759,3.018c-2.091,0.853-4.793,1.227-7.361,1.118l-1.188-8.47h13.083L68.942,53.335z   M73.229,47.332H25.355v-1.185h47.874V47.332z"/>
</svg>