<svg xmlns="http://www.w3.org/2000/svg" xmlns:xlink="http://www.w3.org/1999/xlink" version="1.1" id="Layer_1" x="0px" y="0px" viewBox="0 0 100 100" enable-background="new 0 0 100 100" xml:space="preserve" height="100px" width="100px">
<path fill="#000000" d="M74.046,44.479h-0.503c0.003-0.162,0.007-0.324,0.007-0.485c0-11.034-7.479-20.665-18.187-23.421  c-0.314-0.082-0.647,0.021-0.861,0.264c-0.48,0.543-1.037,1.001-1.647,1.366L50.821,7.708c-0.019-0.14-0.076-0.265-0.155-0.37  c-0.167-0.729-1.08-1.146-2.53-1.146c-0.394,0-0.806,0.032-1.223,0.095c-1.575,0.237-3.096,0.891-3.261,1.852  C43.552,8.3,43.508,8.49,43.534,8.678l1.877,13.351c-0.501-0.334-0.962-0.733-1.369-1.192c-0.214-0.243-0.547-0.345-0.861-0.264  C32.473,23.329,24.994,32.96,24.994,43.994c0,0.161,0.003,0.324,0.008,0.485h-0.504c-0.462,0-0.838,0.375-0.838,0.835v2.854  c0,0.461,0.376,0.834,0.838,0.834H27.1l7.032,39.349c0.025,0.138,0.084,0.262,0.165,0.368c-0.08-0.266-0.07-0.265,0.011,0  c0.158,0.207,0.156,0.212-0.002,0.012c1.031,3.337,8.19,5.128,14.96,5.128c6.74,0,13.864-1.775,14.944-5.083  c0.003-0.004,0.007-0.006,0.01-0.01c0.002-0.007,0.005-0.015,0.007-0.022c0.092-0.11,0.159-0.244,0.186-0.393l6.192-34.645  c0.018-0.033,0.037-0.064,0.055-0.097l-0.035-0.018l0.82-4.589h2.602c0.462,0,0.837-0.373,0.837-0.834v-2.854  C74.883,44.854,74.508,44.479,74.046,44.479z M55.421,22.364c9.687,2.724,16.408,11.546,16.408,21.629  c0,0.161-0.006,0.324-0.009,0.485h-15.84l-2.871-20.464C53.957,23.597,54.742,23.043,55.421,22.364z M54.33,44.479h-4.11  l-2.781-19.768c0.598,0.129,1.211,0.197,1.832,0.197c0.775,0,1.537-0.106,2.271-0.303L54.33,44.479z M44.991,8.271  c-0.066-0.433,0.854-0.93,2.054-1.11c1.2-0.181,2.225,0.024,2.291,0.457c0.065,0.433-0.854,0.93-2.053,1.111  C46.082,8.908,45.057,8.704,44.991,8.271z M45.319,9.636c0.264,0.039,0.555,0.06,0.873,0.06c0.393,0,0.806-0.032,1.223-0.094  c0.723-0.109,1.4-0.303,1.945-0.553l1.942,13.842c-0.652,0.198-1.335,0.304-2.03,0.304c-0.716,0-1.42-0.112-2.09-0.323L45.319,9.636  z M43.122,22.364c0.753,0.751,1.632,1.35,2.587,1.779l2.86,20.336H26.725c-0.003-0.162-0.01-0.324-0.01-0.485  C26.714,33.911,33.436,25.088,43.122,22.364z M28.847,49.002h20.36l0.898,6.379c-0.147-0.064-0.295-0.128-0.44-0.191  c-3.23-1.408-6.281-2.738-10.266-2.778c-3.67-0.036-7.023,1.005-9.425,2.89L28.847,49.002z M37.9,87.491  c0-1.229,1.002-2.228,2.235-2.228c1.233,0,2.235,0.999,2.235,2.228c0,1.228-1.002,2.227-2.235,2.227  C38.902,89.718,37.9,88.719,37.9,87.491z M40.284,90.938c0.98-0.042,1.855-0.49,2.46-1.181c0.115,0.765,0.478,1.448,1.009,1.964  C42.447,91.518,41.286,91.248,40.284,90.938z M46.168,91.476c-1.232,0-2.235-0.999-2.235-2.227c0-1.228,1.002-2.228,2.235-2.228  c1.233,0,2.236,1,2.236,2.228C48.405,90.477,47.402,91.476,46.168,91.476z M47.76,86.184c0.352-0.771,1.13-1.31,2.034-1.31  c1.071,0,1.968,0.755,2.184,1.759c0-0.001,0.001-0.001,0.001-0.001c-0.704,0.602-1.16,1.481-1.202,2.466  c-0.297,0.146-0.63,0.23-0.983,0.23c-0.055,0-0.108-0.004-0.162-0.008c0.001-0.024,0.003-0.048,0.003-0.072  C49.635,87.915,48.872,86.759,47.76,86.184z M49.266,92.123c-0.393,0-0.776-0.006-1.153-0.017c0.568-0.385,1.016-0.934,1.274-1.578  v0c0.134,0.016,0.269,0.026,0.407,0.026c0.408,0,0.798-0.075,1.163-0.204c0.229,0.671,0.655,1.25,1.216,1.666  C51.254,92.086,50.284,92.123,49.266,92.123z M54.235,91.476c-1.232,0-2.235-0.999-2.235-2.227c0-1.228,1.003-2.228,2.235-2.228  c0.763,0,1.436,0.383,1.84,0.965c0.061,0.419,0.193,0.813,0.39,1.17c0.001,0.031,0.005,0.062,0.005,0.093  C56.471,90.477,55.468,91.476,54.235,91.476z M54.309,85.143c0-1.228,1.002-2.227,2.236-2.227c0.882,0,1.646,0.514,2.008,1.256  c-1.104,0.314-1.985,1.16-2.343,2.242c-0.561-0.389-1.241-0.619-1.975-0.619c0.058,0,0.116,0.004,0.174,0.007  C54.344,85.594,54.309,85.372,54.309,85.143z M57.039,91.271c0.208-0.286,0.375-0.604,0.488-0.946  c0.323,0.224,0.685,0.393,1.076,0.498C58.121,90.983,57.599,91.134,57.039,91.271z M59.502,89.718c-0.763,0-1.437-0.383-1.84-0.965  c-0.061-0.418-0.194-0.813-0.392-1.169c-0.001-0.031-0.004-0.062-0.004-0.093c0-1.229,1.002-2.228,2.236-2.228  c1.232,0,2.235,0.999,2.235,2.228C61.737,88.719,60.734,89.718,59.502,89.718z M63.178,85.476c0.003,0.003,0.007,0.007,0.01,0.01  l-0.265,1.481c-0.239-1.549-1.512-2.765-3.093-2.914h0c-0.459-1.371-1.758-2.364-3.286-2.364c-1.912,0-3.467,1.549-3.467,3.454  c0,0.284,0.039,0.559,0.103,0.823c0.002,0,0.003-0.001,0.004-0.001c-0.037,0.011-0.074,0.021-0.11,0.034  c-0.463-1.364-1.758-2.35-3.281-2.35c-1.458,0-2.704,0.901-3.216,2.172c0.002,0,0.004,0.001,0.007,0.001  c-0.136-0.016-0.274-0.027-0.416-0.027c-1.041,0-1.974,0.462-2.609,1.188c-0.248-1.664-1.686-2.946-3.424-2.946  c-1.911,0-3.466,1.549-3.466,3.454c0,0.877,0.332,1.675,0.874,2.285c-0.399-0.236-0.728-0.478-0.983-0.719h0.006  c-0.421-0.398-0.856-1.713-0.856-1.713l-0.396-2.149l-5.008-28.025c2.114-2.028,5.395-3.169,9.076-3.129  c3.65,0.037,6.554,1.302,9.626,2.642c0.583,0.253,1.178,0.512,1.788,0.768v0c0.219,0.091,0.421,0.175,0.62,0.255  c0.054,0.022,0.108,0.044,0.163,0.066c0.289,0.116,0.562,0.224,0.831,0.326c0.204,0.078,0.415,0.15,0.63,0.219  c0.058,0.019,0.116,0.036,0.174,0.054c0.168,0.052,0.339,0.101,0.514,0.147c0.058,0.016,0.114,0.031,0.172,0.046  c0.221,0.057,0.444,0.109,0.673,0.157c0.065,0.013,0.132,0.024,0.197,0.037c0.152,0.03,0.306,0.059,0.462,0.085  c0.141,0.024,0.283,0.046,0.426,0.066c0.065,0.01,0.131,0.019,0.197,0.028c0.916,0.125,1.863,0.19,2.819,0.19  c2.502,0,5.043-0.425,7.109-1.267c0.979-0.4,1.847-0.906,2.6-1.511L63.178,85.476z M50.856,49.002h4.108l1.168,8.327  c-0.061-0.009-0.122-0.015-0.181-0.023c-0.058-0.008-0.117-0.017-0.175-0.025c-0.202-0.031-0.4-0.065-0.596-0.102  c-0.062-0.012-0.124-0.024-0.185-0.037c-0.196-0.04-0.391-0.082-0.58-0.128c-0.048-0.012-0.096-0.025-0.144-0.037  c-0.201-0.052-0.399-0.107-0.592-0.166c-0.024-0.008-0.049-0.016-0.072-0.024c-0.21-0.065-0.415-0.135-0.612-0.21  c-0.001,0-0.002-0.001-0.003-0.001c-0.002,0-0.003-0.001-0.005-0.002c-0.279-0.105-0.553-0.214-0.825-0.324  c-0.03-0.012-0.062-0.025-0.093-0.038c-0.071-0.028-0.14-0.058-0.21-0.086L50.856,49.002z M68.922,53.336  c-0.855,1.332-2.115,2.347-3.758,3.018c-2.091,0.853-4.793,1.227-7.362,1.118l-1.188-8.47h13.082L68.922,53.336z M73.208,47.333  H25.335v-1.185h47.873V47.333z"/>
<path fill="#000000" d="M45.153,70.495c0.055,0,0.108-0.008,0.16-0.024c0.225-0.071,0.376-0.276,0.376-0.512  c0-1.893-1.063-3.023-2.841-3.023c-0.835,0-1.502,0.213-1.983,0.634c-0.569,0.498-0.857,1.263-0.857,2.273  c0,0.295,0.242,0.536,0.539,0.536c0.143,0,0.278-0.056,0.38-0.157c0.101-0.101,0.157-0.236,0.157-0.379  c0-0.689,0.165-1.182,0.49-1.467c0.279-0.244,0.707-0.368,1.273-0.368c1.188,0,1.764,0.639,1.764,1.952  c0,0.295,0.243,0.535,0.537,0.535H45.153z"/>
<path fill="#000000" d="M55.696,66.935c-1.778,0.001-2.84,1.131-2.84,3.024c0.001,0.295,0.243,0.535,0.538,0.535h0.002  c0.295,0,0.536-0.24,0.537-0.536c0-1.312,0.577-1.951,1.763-1.952c1.22,0.001,1.764,0.566,1.764,1.835  c0.001,0.295,0.242,0.535,0.542,0.535c0.054,0,0.108-0.008,0.159-0.024c0.226-0.072,0.377-0.277,0.377-0.512  C58.537,67.967,57.527,66.935,55.696,66.935z"/>
<g>
	<path fill="#000000" d="M53.877,74.289C53.908,74.345,53.785,74.109,53.877,74.289L53.877,74.289z"/>
	<path fill="#000000" d="M53.877,74.289c-0.164-0.322-0.495-0.292-0.795-0.292c-0.392,0.001-0.786,0.001-1.179,0.001   c-1.181,0.001-2.363,0.002-3.544,0.003c-0.869,0-1.738,0.001-2.607,0.002c-0.619,0-0.707,0.457-0.727,1.011   c-0.025,0.734,0.066,1.483,0.27,2.189c0.341,1.179,1.022,2.276,2.035,2.991c1.12,0.79,2.559,0.934,3.8,0.332   c1.035-0.503,1.801-1.432,2.264-2.467c0.241-0.54,0.411-1.118,0.5-1.702c0.05-0.323,0.079-0.65,0.085-0.978   C53.985,75.063,54.037,74.575,53.877,74.289z M50.277,79.714c-0.657,0.208-1.371,0.13-1.983-0.183   c-0.152-0.078-0.297-0.17-0.434-0.271c0.081-0.127,0.166-0.251,0.254-0.371c0.176-0.241,0.368-0.47,0.578-0.681   c1.069-1.081,2.491-1.534,3.996-1.34C52.349,78.094,51.548,79.313,50.277,79.714z M52.902,75.76   c-0.008-0.019-0.018-0.02-0.023,0.04c-2.355-0.315-4.472,0.741-5.791,2.673c-0.388-0.526-0.637-1.122-0.808-1.749   c-0.059-0.214-0.285-1.645-0.151-1.645c0.699-0.001,1.398-0.001,2.098-0.002c1.09-0.001,2.181-0.001,3.271-0.002   c0.371,0,0.742-0.001,1.112-0.001c0.084,0,0.167,0,0.25,0C52.946,75.075,52.931,75.6,52.902,75.76z"/>
</g>
<ellipse transform="matrix(0.9986 -0.052 0.052 0.9986 -3.8023 3.1534)" cx="58.739" cy="74.695" rx="2.663" ry="1.627"/>
<ellipse transform="matrix(0.9957 0.0931 -0.0931 0.9957 7.0726 -3.437)" cx="40.388" cy="74.114" rx="2.663" ry="1.626"/>
</svg>