<?xml version="1.0" encoding="UTF-8" standalone="no"?>
<svg width="222px" height="168px" viewBox="0 0 222 168" version="1.1" xmlns="http://www.w3.org/2000/svg" xmlns:xlink="http://www.w3.org/1999/xlink">
    <!-- Generator: Sketch 3.8.3 (29802) - http://www.bohemiancoding.com/sketch -->
    <title>frappe-bird-thin</title>
    <desc>Created with Sketch.</desc>
    <defs></defs>
    <g id="Page-1" stroke="none" stroke-width="1" fill="none" fill-rule="evenodd" stroke-linecap="square">
        <path d="M39.8339845,6.35742187 C39.8339845,6.35742187 38.907729,7.32706577 37.7630149,8.52540151 L9.19499304,38.4316297 C8.05122811,39.6289718 8.46727449,40.5960402 10.1280828,40.5916272 L39.8339844,40.5126953" id="Path-15" stroke="#36414C" stroke-width="2"></path>
        <path d="M41.2099609,85.7724601 C41.2099609,85.7724601 42.246104,84.9323632 43.5439645,83.880068 L124.476543,18.2605562 C125.765578,17.2154169 128.161162,16.3593828 129.811104,16.3486553 L214.381278,15.7988056 C216.038441,15.7880312 216.354955,16.6457025 215.084115,17.7179435 L82.5527344,129.538086" id="Path-16" stroke="#36414C" stroke-width="2"></path>
        <path d="M40.2283479,7.31347656 L40.2283479,83.6377396 C40.2283479,85.2950137 41.1697172,87.5989999 42.326813,88.7796105 L112.583536,160.464109 C113.742486,161.646612 114.682641,161.256142 114.683425,159.605481 L114.710139,103.344911" id="Path-17" stroke="#36414C" stroke-width="2"></path>
        <path d="M39.94185,6.10443997 L83.6230481,50.8125012" id="Path-18" stroke="#36414C" stroke-width="2"></path>
    </g>
</svg>