<svg xmlns="http://www.w3.org/2000/svg" width="72" height="72" fill="none"><rect width="72" height="72" fill="#A6B1B9" rx="13"/><path stroke="#F9FAFA" stroke-linecap="round" stroke-linejoin="round" stroke-miterlimit="10" stroke-width="2" d="m38.992 46.496 4.424 4.424a5.248 5.248 0 0 0 7.498 0v0a5.248 5.248 0 0 0 0-7.498l-2.924-2.924"/><path stroke="#F9FAFA" stroke-miterlimit="10" stroke-width="2" d="m32.882 33.338-5.136-5.136"/><path stroke="#F9FAFA" stroke-linecap="round" stroke-linejoin="round" stroke-miterlimit="10" stroke-width="2" d="m24.596 29.252 3.15-1.05 1.05-3.15-4.2-4.198-4.198 4.199 4.198 4.198Z"/><path stroke="#F9FAFA" stroke-linecap="square" stroke-linejoin="round" stroke-miterlimit="10" stroke-width="2" d="m52.006 25.385-4.616 4.596L42 24.62l4.618-4.598a6.315 6.315 0 0 0-3.388-.46 8.42 8.42 0 0 0-7.697 8.582 6.337 6.337 0 0 0 .46 2.458L21.215 43.62a5.127 5.127 0 0 0-.308 7.356 4.93 4.93 0 0 0 7.39-.3l13.086-14.71c1.398.41 2.87.512 4.311.3a8.526 8.526 0 0 0 6.465-5.978 7.622 7.622 0 0 0-.153-4.904Z"/></svg>