<svg width="16" height="16" viewBox="0 0 16 16" fill="none" xmlns="http://www.w3.org/2000/svg">
<path stroke="none" fill="#888" fill-rule="evenodd" clip-rule="evenodd" d="M2.02062 7.49896C2.49506 7.49716 2.97742 7.4933 3.47006 7.48935C3.94277 7.48556 4.42495 7.48169 4.9187 7.47951C4.97589 6.3862 5.14998 5.23014 5.51484 4.17085C5.76241 3.45208 6.1023 2.76557 6.56226 2.17336C4.09972 2.77895 2.23508 4.90491 2.02062 7.49896ZM8 2.1204C7.29452 2.69277 6.79592 3.52219 6.46032 4.49652C6.13931 5.4285 5.97681 6.46734 5.92025 7.4779C6.5896 7.47899 7.28127 7.485 8 7.49989C8.7546 7.48425 9.43077 7.47841 10.0797 7.47777C10.0232 6.46725 9.86068 5.42846 9.53968 4.49651C9.20408 3.52219 8.70548 2.69277 8 2.1204ZM10.0822 8.47771C10.0279 9.50221 9.8654 10.5578 9.53968 11.5035C9.20409 12.4778 8.70548 13.3072 8.00001 13.8796C7.29453 13.3072 6.79592 12.4778 6.46032 11.5035C6.13462 10.5579 5.9721 9.5023 5.91784 8.47784C6.58355 8.47892 7.27164 8.48494 7.98959 8.49989C7.99653 8.50004 8.00347 8.50004 8.01042 8.49989C8.76493 8.48417 9.43715 8.47833 10.0822 8.47771ZM4.91661 8.47951C4.43411 8.48168 3.962 8.48548 3.49714 8.48922C2.99784 8.49323 2.50691 8.49718 2.02045 8.49899C2.2341 11.094 4.09907 13.2209 6.56227 13.8266C6.1023 13.2344 5.76241 12.5479 5.51484 11.8291C5.14541 10.7566 4.97157 9.58487 4.91661 8.47951ZM9.43774 13.8266C9.89771 13.2344 10.2376 12.5479 10.4852 11.8291C10.8545 10.7569 11.0283 9.58549 11.0834 8.48039C11.4269 8.48234 11.771 8.48511 12.1244 8.48796C12.7045 8.49264 13.3098 8.49752 13.9795 8.4993C13.7658 11.0941 11.9008 13.2209 9.43774 13.8266ZM13.9794 7.49928C13.3241 7.49751 12.7264 7.49271 12.1508 7.48809C11.7885 7.48518 11.435 7.48234 11.0814 7.48037C11.0242 6.38681 10.8501 5.23042 10.4852 4.17085C10.2376 3.45208 9.89771 2.76557 9.43774 2.17336C11.9004 2.77897 13.7651 4.90509 13.9794 7.49928ZM1 8C1 4.13401 4.13401 1 8 1C11.866 1 15 4.13401 15 8C15 11.866 11.866 15 8 15C4.13401 15 1 11.866 1 8Z"/>
</svg>
