<svg width="16" height="16" viewBox="0 0 16 16" xmlns="http://www.w3.org/2000/svg">
	<path fill-rule="evenodd" clip-rule="evenodd" d="M11.6647 3.5L9.75437 3.5H5.4885L5.00008 3.5C4.17165 3.50001 3.50008 4.17158 3.50008 5V7.82297V7.82297L3.50006 8.99615C3.50005 9.82459 4.17162 10.4962 5.00006 10.4962H6.35239C6.87269 10.4962 7.35582 10.7658 7.629 11.2086L8.33241 12.3488L9.18233 10.9711C9.36445 10.6759 9.68654 10.4962 10.0334 10.4962H11.6647C12.4932 10.4962 13.1647 9.82461 13.1647 8.99618V7.82297V5C13.1647 4.17157 12.4932 3.5 11.6647 3.5ZM9.75437 2.5L11.6647 2.5C13.0455 2.5 14.1647 3.61929 14.1647 5V7.82297V8.99618C14.1647 10.3769 13.0455 11.4962 11.6647 11.4962L10.0334 11.4962L9.18349 12.8738C8.79281 13.5071 7.87202 13.5071 7.48134 12.8738L6.77793 11.7337C6.68687 11.5861 6.52583 11.4962 6.35239 11.4962H5.00006C3.61933 11.4962 2.50004 10.3769 2.50006 8.99614L2.50008 7.82297V7.82296V5C2.50008 3.61929 3.61937 2.50001 5.00008 2.5L5.4885 2.5H9.75437ZM5.34386 5.84168C5.34386 5.56554 5.56772 5.34168 5.84386 5.34168H10.8207C11.0968 5.34168 11.3207 5.56554 11.3207 5.84168C11.3207 6.11782 11.0968 6.34168 10.8207 6.34168H5.84386C5.56772 6.34168 5.34386 6.11782 5.34386 5.84168ZM5.84386 7.47294C5.56772 7.47294 5.34386 7.69679 5.34386 7.97294C5.34386 8.24908 5.56772 8.47294 5.84386 8.47294H8.68777C8.96391 8.47294 9.18777 8.24908 9.18777 7.97294C9.18777 7.69679 8.96391 7.47294 8.68777 7.47294H5.84386Z" fill="#4C5A67"/>
</svg>
