<svg width="16" height="16" viewBox="0 0 16 16" fill="none" xmlns="http://www.w3.org/2000/svg">
    <path fill-rule="evenodd" clip-rule="evenodd" d="M3.5 7.44462C3.5 5.26607 5.26607 3.5 7.44462 3.5C9.62318 3.5 11.3892 5.26607 11.3892 7.44462C11.3892 8.50829 10.9683 9.47362 10.2838 10.1831C10.265 10.1972 10.247 10.2128 10.2299 10.2299C10.2128 10.247 10.1972 10.265 10.1831 10.2838C9.47362 10.9683 8.50829 11.3892 7.44462 11.3892C5.26607 11.3892 3.5 9.62318 3.5 7.44462ZM10.5696 11.2767C9.71788 11.9722 8.62996 12.3892 7.44462 12.3892C4.71378 12.3892 2.5 10.1755 2.5 7.44462C2.5 4.71378 4.71378 2.5 7.44462 2.5C10.1755 2.5 12.3892 4.71378 12.3892 7.44462C12.3892 8.62996 11.9722 9.71788 11.2767 10.5696L13.3538 12.6467C13.549 12.8419 13.549 13.1585 13.3538 13.3538C13.1585 13.549 12.8419 13.549 12.6467 13.3538L10.5696 11.2767Z" fill="#4C5A67"/>
</svg>
