<svg aria-hidden="true" style="position: absolute; width: 0; height: 0; overflow: hidden;" version="1.1" xmlns="http://www.w3.org/2000/svg" xmlns:xlink="http://www.w3.org/1999/xlink">
<defs>
<symbol id="icon-resting" viewBox="0 0 32 32">
<path stroke-linejoin="miter" stroke-linecap="butt" stroke-miterlimit="4" stroke-width="2" d="M15.212 7.597l0.788 1.007 0.788-1.007c0.090-0.115 0.157-0.205 0.212-0.28 0.095-0.129 0.159-0.215 0.258-0.316 2.609-2.668 6.831-2.668 9.44 0 0.848 0.867 1.311 2.49 1.302 4.555-0.013 3.157-1.372 5.862-3.458 8.317-2.099 2.469-4.877 4.618-7.627 6.656-0.547 0.406-1.282 0.406-1.829 0-2.75-2.039-5.528-4.187-7.627-6.656-2.087-2.455-3.445-5.16-3.459-8.317-0.009-2.065 0.454-3.688 1.302-4.555 2.609-2.668 6.831-2.668 9.44 0 0.099 0.101 0.163 0.188 0.258 0.316 0.056 0.075 0.122 0.165 0.212 0.28z"></path>
</symbol>
<symbol id="icon-active" viewBox="0 0 32 32">
<path fill="#e24c4c" style="fill: var(--color1, #e24c4c)" d="M27.413 6.302c-3.001-3.069-7.869-3.069-10.869 0-0.207 0.211-0.366 0.452-0.543 0.679-0.178-0.227-0.336-0.468-0.543-0.679-3.001-3.069-7.869-3.069-10.87 0-1.125 1.151-1.596 3.104-1.587 5.259 0.030 6.936 5.998 11.701 11.49 15.772 0.901 0.668 2.119 0.668 3.020 0 5.492-4.071 11.46-8.836 11.49-15.772 0.009-2.154-0.462-4.108-1.587-5.259z"></path>
</symbol>
<symbol id="icon-up" viewBox="0 0 32 32">
<path fill="#112b42" style="fill: var(--color2, #112b42)" d="M8 13.333h16l-8-8-8 8z"></path>
<path fill="#112b42" style="fill: var(--color2, #112b42)" opacity="0.5" d="M16 26.667l8-8h-16l8 8z"></path>
</symbol>
<symbol id="icon-select" viewBox="0 0 32 32">
<path stroke-linejoin="round" stroke-linecap="round" stroke-miterlimit="4" stroke-width="2.6667" d="M12 9.697l4.364-4.364 4.364 4.364M12 22.303l4.364 4.364 4.364-4.364"></path>
</symbol>
<symbol id="icon-down" viewBox="0 0 32 32">
<path fill="#112b42" style="fill: var(--color2, #112b42)" opacity="0.5" d="M8 13.333h16l-8-8-8 8z"></path>
<path fill="#112b42" style="fill: var(--color2, #112b42)" d="M16 26.667l8-8h-16l8 8z"></path>
</symbol>
<symbol id="icon-both" viewBox="0 0 32 32">
<path d="M16 5.333l8 8h-16l8-8zM24 18.667l-8 8-8-8h16z"></path>
</symbol>
<symbol id="icon-edit" viewBox="0 0 32 32">
<path fill="#fff" style="fill: var(--color3, #fff); stroke: var(--color4, #cdd2d7)" stroke="#cdd2d7" stroke-linejoin="miter" stroke-linecap="butt" stroke-miterlimit="4" stroke-width="1.2308" d="M31.385 16c0 8.497-6.888 15.385-15.385 15.385s-15.385-6.888-15.385-15.385c0-8.497 6.888-15.385 15.385-15.385s15.385 6.888 15.385 15.385z"></path>
<path fill="#70818f" style="fill: var(--color5, #70818f)" d="M20.068 9.379c-0.237 0.098-0.452 0.242-0.634 0.423l-0.754 0.754 2.763 2.763 0.754-0.754c0.181-0.181 0.325-0.397 0.423-0.634s0.149-0.491 0.149-0.748-0.051-0.511-0.149-0.748c-0.098-0.237-0.242-0.452-0.423-0.634s-0.397-0.325-0.634-0.423c-0.237-0.098-0.491-0.149-0.748-0.149s-0.511 0.051-0.748 0.149zM20.573 14.19l-2.763-2.763-7.584 7.584c-0.076 0.076-0.13 0.17-0.159 0.273l-0.823 3.018c-0.075 0.276 0.178 0.529 0.453 0.453l3.018-0.823c0.103-0.028 0.198-0.083 0.273-0.159l7.584-7.584z"></path>
</symbol>
<symbol id="icon-upload" viewBox="0 0 32 32">
<path fill="#50a6f2" style="fill: var(--color6, #50a6f2)" d="M32 16c0 8.837-7.163 16-16 16s-16-7.163-16-16c0-8.837 7.163-16 16-16s16 7.163 16 16z"></path>
<path fill="#fff" style="fill: var(--color3, #fff)" d="M15.623 9.333c3.052 0 5.615 2.478 5.991 5.687 1.696 0.203 3.052 1.747 3.052 3.656 0 2.031-1.507 3.656-3.391 3.656h-10.551c-1.884 0-3.391-1.625-3.391-3.656 0-1.584 0.942-2.966 2.299-3.453 0.264-3.331 2.864-5.891 5.991-5.891zM15.82 12.493c-0.191 0-0.363 0.080-0.484 0.209l-2.074 2.074c-0.26 0.26-0.26 0.682 0 0.943s0.682 0.26 0.943 0l0.948-0.949v4.129c0 0.368 0.299 0.667 0.667 0.667s0.667-0.299 0.667-0.667v-4.13l0.949 0.949c0.26 0.26 0.682 0.26 0.943 0s0.26-0.682 0-0.943l-2.087-2.087c-0.13-0.13-0.301-0.195-0.472-0.195h-0z"></path>
</symbol>
<symbol id="icon-upload1" viewBox="0 0 32 32">
<path d="M15.435 6c4.578 0 8.422 3.717 8.987 8.531 2.543 0.305 4.578 2.62 4.578 5.484 0 3.047-2.261 5.484-5.087 5.484h-15.826c-2.826 0-5.087-2.438-5.087-5.484 0-2.377 1.413-4.448 3.448-5.18 0.396-4.997 4.296-8.836 8.987-8.836zM15.73 10.739c-0.286 0-0.544 0.12-0.727 0.313l-3.11 3.11c-0.391 0.391-0.391 1.024 0 1.414s1.024 0.391 1.414 0l1.423-1.423v6.194c0 0.552 0.448 1 1 1s1-0.448 1-1v-6.195l1.424 1.424c0.391 0.391 1.024 0.391 1.414 0s0.391-1.024 0-1.414l-3.13-3.13c-0.195-0.195-0.451-0.293-0.707-0.293h-0z"></path>
</symbol>
<symbol id="icon-up1" viewBox="0 0 32 32">
<path stroke-linejoin="round" stroke-linecap="round" stroke-miterlimit="4" stroke-width="2" d="M26 21l-10-10-10 10"></path>
</symbol>
<symbol id="icon-tag" viewBox="0 0 32 32">
<path fill="none" stroke="#70818f" style="stroke: var(--color5, #70818f)" stroke-linejoin="round" stroke-linecap="round" stroke-miterlimit="4" stroke-width="2" d="M25.28 20.514l-5.066 5.066c-1.172 1.172-3.070 1.171-4.242-0.001l-10.979-10.979c-0.188-0.188-0.293-0.442-0.293-0.707v-7.894c0-0.552 0.448-1 1-1h7.894c0.265 0 0.52 0.105 0.707 0.293l10.979 10.979c1.172 1.172 1.172 3.071 0 4.242z"></path>
<path fill="none" stroke="#70818f" style="stroke: var(--color5, #70818f)" stroke-linejoin="round" stroke-linecap="round" stroke-miterlimit="4" stroke-width="2" d="M12.16 10.923c0 0.85-0.689 1.539-1.538 1.539s-1.539-0.689-1.539-1.538c0-0.85 0.689-1.538 1.539-1.538s1.538 0.689 1.538 1.538z"></path>
</symbol>
<symbol id="icon-table_2" viewBox="0 0 32 32">
<path d="M5 7.444v2.556h22v-2.556c0-0.908-0.633-1.444-1.182-1.444h-19.636c-0.549 0-1.182 0.537-1.182 1.444zM3 11v-3.556c0-1.792 1.321-3.444 3.182-3.444h19.636c1.861 0 3.182 1.652 3.182 3.444v17.111c0 1.792-1.321 3.444-3.182 3.444h-19.636c-1.861 0-3.182-1.652-3.182-3.444v-13.556zM5 18h6v-6h-6v6zM5 20v4.556c0 0.908 0.633 1.444 1.182 1.444h4.818v-6h-6zM13 26h6v-6h-6v6zM21 26h4.818c0.549 0 1.182-0.537 1.182-1.444v-4.556h-6v6zM27 18v-6h-6v6h6zM19 18v-6h-6v6h6z"></path>
</symbol>
<symbol id="icon-table" viewBox="0 0 32 32">
<path d="M5 7.444c0-0.908 0.633-1.444 1.182-1.444h4.218v5.4h-5.4v-3.956zM5 13.4v5.2h5.4v-5.2h-5.4zM5 20.6h5.4v5.4h-4.218c-0.549 0-1.182-0.537-1.182-1.444v-3.956zM12.4 26h13.418c0.549 0 1.182-0.537 1.182-1.444v-3.956c0 0-0 0-0 0h-14.6v5.4zM27 18.6v-5.2c-0 0-0 0-0.001 0h-14.599v5.2h14.6c0 0 0 0 0 0zM27 11.4v-3.956c0-0.908-0.633-1.444-1.182-1.444h-13.418v5.4h14.599c0 0 0 0 0.001 0zM3 19.6v-12.156c0-1.792 1.321-3.444 3.182-3.444h19.636c1.861 0 3.182 1.652 3.182 3.444v17.111c0 1.792-1.321 3.444-3.182 3.444h-19.636c-1.861 0-3.182-1.652-3.182-3.444v-4.956z"></path>
</symbol>
<symbol id="icon-sort" viewBox="0 0 32 32">
<path stroke-linejoin="round" stroke-linecap="round" stroke-miterlimit="10" stroke-width="2" d="M19 21l4 4 4-4"></path>
<path stroke-linejoin="round" stroke-linecap="round" stroke-miterlimit="10" stroke-width="2" d="M23 25v-18"></path>
<path stroke-linejoin="round" stroke-linecap="round" stroke-miterlimit="10" stroke-width="2" d="M13 11l-4-4-4 4"></path>
<path stroke-linejoin="round" stroke-linecap="round" stroke-miterlimit="10" stroke-width="2" d="M9 7v18"></path>
</symbol>
<symbol id="icon-small-down" viewBox="0 0 32 32">
<path stroke-linejoin="round" stroke-linecap="round" stroke-miterlimit="10" stroke-width="2.6667" d="M7 11.667l9 9 9-9"></path>
</symbol>
<symbol id="icon-small-add" viewBox="0 0 32 32">
<path stroke-linejoin="round" stroke-linecap="round" stroke-miterlimit="10" stroke-width="3" d="M16 8v16"></path>
<path stroke-linejoin="round" stroke-linecap="round" stroke-miterlimit="10" stroke-width="3" d="M8 16h16"></path>
</symbol>
<symbol id="icon-small-message" viewBox="0 0 32 32">
<path stroke-linejoin="miter" stroke-linecap="square" stroke-miterlimit="10" stroke-width="1.6" d="M24.96 6.4h-17.92c-0.594 0-1.164 0.236-1.584 0.656s-0.656 0.99-0.656 1.584v11.947c0 0.594 0.236 1.164 0.656 1.584s0.99 0.656 1.584 0.656h4.489c0.468 0 0.913 0.205 1.217 0.561l2.402 2.814c0.447 0.524 1.256 0.524 1.704 0l2.402-2.814c0.304-0.356 0.749-0.561 1.217-0.561h4.489c0.594 0 1.164-0.236 1.584-0.656s0.656-0.99 0.656-1.584v-11.947c0-0.594-0.236-1.164-0.656-1.584s-0.99-0.656-1.584-0.656z"></path>
<path stroke-linejoin="miter" stroke-linecap="round" stroke-miterlimit="10" stroke-width="1.6" d="M9.778 11.378h9.956"></path>
<path stroke-linejoin="miter" stroke-linecap="round" stroke-miterlimit="10" stroke-width="1.6" d="M9.778 15.733h4.978"></path>
</symbol>
<symbol id="icon-share" viewBox="0 0 32 32">
<path fill="none" stroke="#70818f" style="stroke: var(--color5, #70818f)" stroke-linejoin="round" stroke-linecap="round" stroke-miterlimit="10" stroke-width="2" d="M23.637 25.637h2.364c1.104 0 2-0.895 2-2v-2.716c-0-0.218-0.066-0.431-0.188-0.611s-0.296-0.32-0.498-0.401l-4.082-1.636c-0.202-0.081-0.375-0.22-0.498-0.4s-0.188-0.392-0.188-0.61v-0.958c0.662-0.38 1.212-0.927 1.595-1.587s0.586-1.409 0.587-2.172v-2.182c0-0.766-0.201-1.519-0.584-2.182s-0.934-1.215-1.597-1.598-1.416-0.585-2.182-0.585c-0.766-0-1.519 0.202-2.182 0.585"></path>
<path fill="none" stroke="#70818f" style="stroke: var(--color5, #70818f)" stroke-linejoin="round" stroke-linecap="round" stroke-miterlimit="10" stroke-width="2" d="M18.587 21l-4.082-1.636c-0.202-0.081-0.375-0.22-0.498-0.4s-0.188-0.392-0.188-0.61v-0.958c0.662-0.38 1.212-0.927 1.595-1.587s0.586-1.409 0.587-2.172v-2.182c0-1.157-0.46-2.267-1.278-3.086s-1.928-1.278-3.086-1.278c-1.157 0-2.267 0.46-3.086 1.278s-1.278 1.928-1.278 3.086v2.182c0.002 0.763 0.204 1.512 0.587 2.172s0.933 1.207 1.595 1.587v0.958c-0 0.218-0.066 0.431-0.188 0.611s-0.296 0.32-0.498 0.401l-4.082 1.636c-0.202 0.081-0.375 0.22-0.498 0.4s-0.188 0.392-0.188 0.61v1.625c0 1.105 0.895 2 2 2h11.273c1.105 0 2-0.895 2-2v-1.625c-0-0.218-0.066-0.431-0.188-0.611s-0.296-0.32-0.498-0.401z"></path>
</symbol>
<symbol id="icon-share-people" viewBox="0 0 32 32">
<path d="M21.267 5.6c-0.948 0-1.812 0.327-2.514 0.857 0.917 1.223 1.466 2.737 1.466 4.381v1.047c0 0.998-0.202 1.95-0.566 2.819 0.498 0.207 1.041 0.324 1.613 0.324 2.314 0 4.19-1.876 4.19-4.19v-1.047c0-2.314-1.876-4.19-4.19-4.19z"></path>
<path d="M13.026 17.122c-2.892 0-5.237-2.345-5.237-5.237v-1.047c0-2.892 2.345-5.237 5.237-5.237s5.237 2.345 5.237 5.237v1.047c0 2.892-2.345 5.237-5.237 5.237z"></path>
<path d="M27.384 18.070c-1.345-0.618-3.65-1.472-6.116-1.472-1.252 0-2.462 0.221-3.527 0.518 0.394 0.082 0.789 0.164 1.184 0.265 3.049 0.777 5.206 3.43 5.439 6.549h3.189c0.578 0 1.048-0.469 1.048-1.047v-2.911c0-0.819-0.471-1.561-1.216-1.902z"></path>
<path d="M21.407 26.026h-16.76c-0.578 0-1.047-0.469-1.047-1.047v-0.498c0-2.383 1.599-4.48 3.908-5.069 1.544-0.394 3.446-0.719 5.519-0.719s3.975 0.325 5.519 0.719c2.309 0.589 3.908 2.686 3.908 5.069v0.498c0 0.578-0.469 1.047-1.047 1.047z"></path>
</symbol>
<symbol id="icon-search" viewBox="0 0 32 32">
<path fill="none" stroke="#70818f" style="stroke: var(--color5, #70818f)" stroke-linejoin="round" stroke-linecap="round" stroke-miterlimit="4" stroke-width="2" d="M14.778 24.556c5.4 0 9.778-4.378 9.778-9.778s-4.378-9.778-9.778-9.778c-5.4 0-9.778 4.378-9.778 9.778s4.378 9.778 9.778 9.778z"></path>
<path fill="none" stroke="#70818f" style="stroke: var(--color5, #70818f)" stroke-linejoin="round" stroke-linecap="round" stroke-miterlimit="4" stroke-width="2" d="M27 27l-5.317-5.317"></path>
</symbol>
<symbol id="icon-right" viewBox="0 0 32 32">
<path stroke-linejoin="round" stroke-linecap="round" stroke-miterlimit="4" stroke-width="2.6667" d="M11.333 25.333l9.333-9.333-9.333-9.333"></path>
</symbol>
<symbol id="icon-right-arrow" viewBox="0 0 32 32">
<path stroke-linejoin="round" stroke-linecap="round" stroke-miterlimit="4" stroke-width="2.6667" d="M26.667 16.006l-24-0.007"></path>
<path stroke-linejoin="round" stroke-linecap="round" stroke-miterlimit="4" stroke-width="2.6667" d="M20.534 8.007l8 8-8 8"></path>
</symbol>
<symbol id="icon-review" viewBox="0 0 32 32">
<path fill="none" stroke="#70818f" style="stroke: var(--color5, #70818f)" stroke-linejoin="round" stroke-linecap="round" stroke-miterlimit="4" stroke-width="2" d="M14.66 7.421c0.402-1.325 2.278-1.325 2.68 0l1.359 4.485c0.179 0.59 0.723 0.994 1.34 0.994h4.875c1.334 0 1.912 1.688 0.859 2.506l-3.949 3.066c-0.462 0.359-0.652 0.968-0.477 1.526l1.525 4.848c0.408 1.298-1.088 2.357-2.176 1.54l-3.855-2.894c-0.498-0.374-1.183-0.374-1.681 0l-3.855 2.894c-1.088 0.817-2.584-0.242-2.176-1.54l1.525-4.848c0.176-0.558-0.015-1.167-0.477-1.526l-3.949-3.066c-1.053-0.818-0.475-2.506 0.859-2.506h4.875c0.617 0 1.161-0.404 1.34-0.994l1.359-4.485z"></path>
</symbol>
<symbol id="icon-refresh" viewBox="0 0 32 32">
<path stroke-linejoin="round" stroke-linecap="round" stroke-miterlimit="4" stroke-width="2" d="M27.288 16.858c-0 2.682-0.968 5.274-2.726 7.3s-4.187 3.35-6.842 3.73c-2.655 0.379-5.358-0.211-7.612-1.664s-3.91-3.67-4.661-6.244c-0.752-2.574-0.55-5.334 0.569-7.771s3.079-4.39 5.521-5.499c2.442-1.109 5.202-1.3 7.774-0.538s4.782 2.426 6.225 4.686"></path>
<path stroke-linejoin="round" stroke-linecap="round" stroke-miterlimit="4" stroke-width="2" d="M25.575 4v6.858h-6.858"></path>
</symbol>
<symbol id="icon-printer" viewBox="0 0 32 32">
<path fill="#12283a" style="fill: var(--color7, #12283a)" d="M8 10c-0.552 0-1 0.448-1 1s0.448 1 1 1v-2zM24 12c0.552 0 1-0.448 1-1s-0.448-1-1-1v2zM24 10h-16v2h16v-2zM6 11c0 1.105 0.895 2 2 2s2-0.895 2-2h-4zM22 11c0 1.105 0.895 2 2 2s2-0.895 2-2h-4zM10 11v-5h-4v5h4zM11 5h10v-4h-10v4zM22 6v5h4v-5h-4zM21 5c0.552 0 1 0.448 1 1h4c0-2.761-2.239-5-5-5v4zM10 6c0-0.552 0.448-1 1-1v-4c-2.761 0-5 2.239-5 5h4z"></path>
<path fill="#12283a" style="fill: var(--color7, #12283a)" d="M9.8 21h-2.4v4h2.4v-4zM5 20.6v-6.2h-4v6.2h4zM7.4 12h17.2v-4h-17.2v4zM27 14.4v6.2h4v-6.2h-4zM26.6 21h-3v4h3v-4zM5.4 25h2v-4h-2v4zM23.6 21h-13.8v4h13.8v-4zM1 20.6c0 2.43 1.97 4.4 4.4 4.4v-4c-0.221 0-0.4-0.179-0.4-0.4h-4zM27 20.6c0 0.221-0.179 0.4-0.4 0.4v4c2.43 0 4.4-1.97 4.4-4.4h-4zM24.6 12c1.325 0 2.4 1.075 2.4 2.4h4c0-3.535-2.865-6.4-6.4-6.4v4zM5 14.4c0-1.325 1.075-2.4 2.4-2.4v-4c-3.535 0-6.4 2.865-6.4 6.4h4z"></path>
<path fill="#fff" style="fill: var(--color3, #fff); stroke: var(--color7, #12283a)" stroke="#12283a" stroke-linejoin="round" stroke-linecap="round" stroke-miterlimit="4" stroke-width="2" d="M9 19h14v5c0 1.105-0.895 2-2 2h-10c-1.105 0-2-0.895-2-2v-5z"></path>
<path fill="#12283a" style="fill: var(--color7, #12283a)" d="M25 15c0 0.552-0.448 1-1 1s-1-0.448-1-1c0-0.552 0.448-1 1-1s1 0.448 1 1z"></path>
</symbol>
<symbol id="icon-permission" viewBox="0 0 32 32">
<path stroke-linejoin="round" stroke-linecap="round" stroke-miterlimit="4" stroke-width="2" d="M16 4c-3.294 3.108-7.502 5.072-12 5.601 0 0 0 13.599 12 18.399 12-4.8 12-18.399 12-18.399-4.498-0.529-8.706-2.492-12-5.601z"></path>
<path stroke-linejoin="round" stroke-linecap="round" stroke-miterlimit="4" stroke-width="2" d="M11.5 16l3 3 6-6"></path>
</symbol>
<symbol id="icon-notification" viewBox="0 0 32 32">
<path fill="none" stroke="#12283a" style="stroke: var(--color7, #12283a)" stroke-linejoin="miter" stroke-linecap="square" stroke-miterlimit="10" stroke-width="1.3333" d="M21.988 16.722v-2.567c0-1.588-0.631-3.112-1.754-4.235s-2.647-1.754-4.235-1.754c-1.588 0-3.112 0.631-4.235 1.754s-1.754 2.646-1.754 4.235v2.567c0 2.823-2.567 3.508-2.567 5.133 0 1.454 3.337 2.567 8.556 2.567s8.555-1.112 8.555-2.567c0-1.626-2.567-2.31-2.567-5.133z"></path>
<path fill="#3e414b" style="fill: var(--color8, #3e414b); stroke: var(--color7, #12283a)" stroke="#12283a" stroke-linejoin="miter" stroke-linecap="butt" stroke-miterlimit="4" stroke-width="1.3333" d="M17.155 26.782c-0.011 0.009-0.023 0.017-0.034 0.026v0c-0.325 0.239-0.718 0.367-1.121 0.367s-0.796-0.129-1.121-0.367c-0.011-0.008-0.023-0.017-0.034-0.026 0.375 0.012 0.76 0.018 1.155 0.018s0.78-0.006 1.155-0.018z"></path>
<path fill="#ff5858" style="fill: var(--color9, #ff5858); stroke: var(--color3, #fff)" stroke="#fff" stroke-linejoin="miter" stroke-linecap="butt" stroke-miterlimit="4" stroke-width="2" d="M21.111 11.556c2.025 0 3.667-1.642 3.667-3.667s-1.642-3.667-3.667-3.667c-2.025 0-3.667 1.642-3.667 3.667s1.642 3.667 3.667 3.667z"></path>
</symbol>
<symbol id="icon-notification-1" viewBox="0 0 32 32">
<path fill="none" stroke="#12283a" style="stroke: var(--color7, #12283a)" stroke-linejoin="miter" stroke-linecap="square" stroke-miterlimit="10" stroke-width="2" d="M23.002 15.001v-3c0-1.857-0.738-3.637-2.050-4.95s-3.094-2.051-4.95-2.051-3.637 0.738-4.95 2.051c-1.313 1.313-2.051 3.094-2.051 4.95v3c0 3.3-3 4.101-3 6.001 0 1.7 3.901 3 10.001 3s10.001-1.3 10.001-3c0-1.9-3-2.7-3-6.001z"></path>
<path fill="#3e414b" style="fill: var(--color8, #3e414b)" d="M16.001 26.003c-1.011 0-1.961-0.034-2.855-0.1 0.191 0.608 0.57 1.139 1.084 1.517s1.134 0.581 1.771 0.581c0.637 0 1.258-0.203 1.771-0.581s0.893-0.909 1.084-1.517c-0.894 0.066-1.844 0.1-2.855 0.1z"></path>
<path fill="#12283a" style="fill: var(--color7, #12283a)" d="M13.146 25.903l0.147-1.995-2.936-0.217 0.881 2.81 1.908-0.598zM18.856 25.903l1.908 0.598 0.881-2.81-2.936 0.217 0.147 1.995zM16.001 24.003c-0.966 0-1.867-0.033-2.708-0.095l-0.294 3.989c0.947 0.070 1.947 0.105 3.003 0.105v-4zM11.237 26.501c0.318 1.014 0.952 1.901 1.808 2.53l2.368-3.224c-0.17-0.125-0.296-0.301-0.359-0.503l-3.817 1.196zM13.046 29.031c0.857 0.629 1.892 0.969 2.955 0.969v-4c-0.211 0-0.417-0.067-0.587-0.193l-2.368 3.224zM16.001 30c1.063 0 2.099-0.339 2.955-0.969l-2.368-3.224c-0.17 0.125-0.376 0.193-0.587 0.193v4zM18.956 29.031c0.857-0.629 1.49-1.516 1.808-2.53l-3.817-1.196c-0.063 0.202-0.189 0.378-0.359 0.503l2.368 3.224zM18.709 23.908c-0.841 0.062-1.742 0.095-2.708 0.095v4c1.056 0 2.055-0.036 3.003-0.105l-0.294-3.989z"></path>
<path fill="#ff5858" style="fill: var(--color9, #ff5858); stroke: var(--color3, #fff)" stroke="#fff" stroke-linejoin="miter" stroke-linecap="butt" stroke-miterlimit="4" stroke-width="2" d="M21.111 9.556c2.025 0 3.667-1.642 3.667-3.667s-1.642-3.667-3.667-3.667c-2.025 0-3.667 1.642-3.667 3.667s1.642 3.667 3.667 3.667z"></path>
</symbol>
<symbol id="icon-month-view" viewBox="0 0 32 32">
<path stroke-linejoin="round" stroke-linecap="round" stroke-miterlimit="4" stroke-width="2" d="M10 11.556v8.889M16 11.556v8.889M6 6h20c1.105 0 2 0.995 2 2.222v15.556c0 1.227-0.895 2.222-2 2.222h-20c-1.105 0-2-0.995-2-2.222v-15.556c0-1.227 0.895-2.222 2-2.222z"></path>
</symbol>
<symbol id="icon-message" viewBox="0 0 32 32">
<path stroke-linejoin="miter" stroke-linecap="square" stroke-miterlimit="10" stroke-width="1.3333" d="M24 7.333h-16c-0.53 0-1.039 0.206-1.414 0.573s-0.586 0.864-0.586 1.383v10.43c0 0.519 0.211 1.016 0.586 1.383s0.884 0.573 1.414 0.573h4.078c0.375 0 0.733 0.158 0.986 0.435l2.247 2.466c0.37 0.406 1.010 0.406 1.38 0l2.247-2.466c0.253-0.277 0.611-0.435 0.986-0.435h4.078c0.53 0 1.039-0.206 1.414-0.573s0.586-0.864 0.586-1.383v-10.43c0-0.519-0.211-1.016-0.586-1.383s-0.884-0.573-1.414-0.573z"></path>
<path stroke-linejoin="miter" stroke-linecap="round" stroke-miterlimit="10" stroke-width="1.3333" d="M10 11.333h8.691"></path>
<path stroke-linejoin="miter" stroke-linecap="round" stroke-miterlimit="10" stroke-width="1.3333" d="M10 15.333h4.346"></path>
</symbol>
<symbol id="icon-message-1" viewBox="0 0 32 32">
<path stroke-linejoin="miter" stroke-linecap="square" stroke-miterlimit="10" stroke-width="2" d="M25.6 5.2h-19.2c-0.637 0-1.247 0.247-1.697 0.687s-0.703 1.037-0.703 1.659v12.516c0 0.622 0.253 1.219 0.703 1.659s1.061 0.687 1.697 0.687h4.716c0.563 0 1.1 0.237 1.479 0.653l2.37 2.602c0.555 0.61 1.515 0.61 2.070 0l2.37-2.602c0.379-0.416 0.916-0.653 1.479-0.653h4.716c0.637 0 1.247-0.247 1.697-0.687s0.703-1.037 0.703-1.659v-12.516c0-0.622-0.253-1.219-0.703-1.659s-1.060-0.687-1.697-0.687z"></path>
<path stroke-linejoin="miter" stroke-linecap="round" stroke-miterlimit="10" stroke-width="2" d="M8.8 10h10.43"></path>
<path stroke-linejoin="miter" stroke-linecap="round" stroke-miterlimit="10" stroke-width="2" d="M8.8 14.8h5.215"></path>
</symbol>
<symbol id="icon-menu" viewBox="0 0 32 32">
<path d="M4 8c0-0.552 0.448-1 1-1h21.997c0.552 0 1 0.448 1 1s-0.448 1-1 1h-21.997c-0.552 0-1-0.448-1-1zM4 16c0-0.552 0.448-1 1-1h21.997c0.552 0 1 0.448 1 1s-0.448 1-1 1h-21.997c-0.552 0-1-0.448-1-1zM5 23c-0.552 0-1 0.448-1 1s0.448 1 1 1h21.997c0.552 0 1-0.448 1-1s-0.448-1-1-1h-21.997z"></path>
</symbol>
<symbol id="icon-lock" viewBox="0 0 32 32">
<path d="M16.154 2.9h0.010v0c1.78 0.018 3.48 0.743 4.725 2.014 1.245 1.27 1.934 2.982 1.918 4.76v0.569h1.77c2.209 0 4 1.791 4 4v10.783c0 2.209-1.791 4-4 4h-17.077c-2.209 0-4-1.791-4-4v-10.783c0-2.209 1.791-4 4-4h1.769v-0.699h0c0.018-1.78 0.743-3.48 2.014-4.725 1.27-1.245 2.982-1.934 4.76-1.918h0.111zM20.807 10.243v-0.584c0.012-1.25-0.472-2.453-1.346-3.345-0.873-0.891-2.065-1.4-3.313-1.414l-0.12-0c-1.25-0.012-2.453 0.472-3.345 1.347-0.891 0.873-1.4 2.065-1.414 3.313v0.684h9.538zM7.5 12.243c-1.105 0-2 0.895-2 2v10.783c0 1.105 0.895 2 2 2h17.077c1.104 0 2-0.895 2-2v-10.783c0-1.105-0.896-2-2-2h-17.077zM16.039 20.782c0.633 0 1.147-0.514 1.147-1.147s-0.513-1.147-1.147-1.147-1.147 0.513-1.147 1.147c0 0.633 0.513 1.147 1.147 1.147zM19.186 19.635c0 1.738-1.409 3.147-3.147 3.147s-3.147-1.409-3.147-3.147c0-1.738 1.409-3.147 3.147-3.147s3.147 1.409 3.147 3.147z"></path>
</symbol>
<symbol id="icon-list_alt" viewBox="0 0 32 32">
<path d="M5.334 6.5c-0.828 0-1.5 0.672-1.5 1.5s0.672 1.5 1.5 1.5h0.013c0.828 0 1.5-0.672 1.5-1.5s-0.672-1.5-1.5-1.5h-0.013zM10.666 7c-0.552 0-1 0.448-1 1s0.448 1 1 1h17.333c0.552 0 1-0.448 1-1s-0.448-1-1-1h-17.333zM10.666 15c-0.552 0-1 0.448-1 1s0.448 1 1 1h17.333c0.552 0 1-0.448 1-1s-0.448-1-1-1h-17.333zM9.666 24c0-0.552 0.448-1 1-1h17.333c0.552 0 1 0.448 1 1s-0.448 1-1 1h-17.333c-0.552 0-1-0.448-1-1zM3.834 16c0-0.828 0.672-1.5 1.5-1.5h0.013c0.828 0 1.5 0.672 1.5 1.5s-0.672 1.5-1.5 1.5h-0.013c-0.828 0-1.5-0.672-1.5-1.5zM5.334 22.5c-0.828 0-1.5 0.672-1.5 1.5s0.672 1.5 1.5 1.5h0.013c0.828 0 1.5-0.672 1.5-1.5s-0.672-1.5-1.5-1.5h-0.013z"></path>
</symbol>
<symbol id="icon-list" viewBox="0 0 32 32">
<path d="M5 7.444c0-0.908 0.633-1.444 1.182-1.444h19.636c0.549 0 1.182 0.537 1.182 1.444v17.111c0 0.908-0.633 1.444-1.182 1.444h-19.636c-0.549 0-1.182-0.537-1.182-1.444v-17.111zM6.182 4c-1.861 0-3.182 1.652-3.182 3.444v17.111c0 1.792 1.321 3.444 3.182 3.444h19.636c1.861 0 3.182-1.652 3.182-3.444v-17.111c0-1.792-1.321-3.444-3.182-3.444h-19.636zM10 9c-0.552 0-1 0.448-1 1s0.448 1 1 1h8.003c0.552 0 1-0.448 1-1s-0.448-1-1-1h-8.003zM10 14c-0.552 0-1 0.448-1 1s0.448 1 1 1h10.003c0.552 0 1-0.448 1-1s-0.448-1-1-1h-10.003zM9 20c0-0.552 0.448-1 1-1h4.541c0.552 0 1 0.448 1 1s-0.448 1-1 1h-4.541c-0.552 0-1-0.448-1-1z"></path>
</symbol>
<symbol id="icon-left" viewBox="0 0 32 32">
<path stroke-linejoin="round" stroke-linecap="round" stroke-miterlimit="4" stroke-width="2.6667" d="M20 25.333l-9.333-9.333 9.333-9.333"></path>
</symbol>
<symbol id="icon-insert-below" viewBox="0 0 32 32">
<path fill="none" stroke="#12283a" style="stroke: var(--color7, #12283a)" stroke-linejoin="miter" stroke-linecap="butt" stroke-miterlimit="4" stroke-width="2" d="M8 22h18c1.105 0 2 0.895 2 2s-0.895 2-2 2h-18c-1.105 0-2-0.895-2-2s0.895-2 2-2z"></path>
<path fill="none" stroke="#12283a" style="stroke: var(--color7, #12283a)" stroke-linejoin="miter" stroke-linecap="round" stroke-miterlimit="4" stroke-width="2" d="M6 12h22"></path>
<path fill="none" stroke="#12283a" style="stroke: var(--color7, #12283a)" stroke-linejoin="miter" stroke-linecap="round" stroke-miterlimit="4" stroke-width="2" d="M6 7h22"></path>
<path d="M2.975 20.22l3.44-2.752c0.3-0.24 0.3-0.697 0-0.937l-3.44-2.752c-0.393-0.314-0.975-0.035-0.975 0.469v5.503c0 0.503 0.582 0.783 0.975 0.469z"></path>
</symbol>
<symbol id="icon-insert-above" viewBox="0 0 32 32">
<path fill="none" stroke="#12283a" style="stroke: var(--color7, #12283a)" stroke-linejoin="miter" stroke-linecap="butt" stroke-miterlimit="4" stroke-width="2" d="M8 6h18c1.105 0 2 0.895 2 2s-0.895 2-2 2h-18c-1.105 0-2-0.895-2-2s0.895-2 2-2z"></path>
<path d="M2.975 18.22l3.44-2.752c0.3-0.24 0.3-0.697 0-0.937l-3.44-2.752c-0.393-0.314-0.975-0.035-0.975 0.469v5.503c0 0.503 0.582 0.783 0.975 0.469z"></path>
<path fill="none" stroke="#12283a" style="stroke: var(--color7, #12283a)" stroke-linejoin="miter" stroke-linecap="round" stroke-miterlimit="4" stroke-width="2" d="M6 20h22"></path>
<path fill="none" stroke="#12283a" style="stroke: var(--color7, #12283a)" stroke-linejoin="miter" stroke-linecap="round" stroke-miterlimit="4" stroke-width="2" d="M6 25h22"></path>
</symbol>
<symbol id="icon-filter" viewBox="0 0 32 32">
<path stroke-linejoin="round" stroke-linecap="round" stroke-miterlimit="10" stroke-width="2" d="M4 8h24"></path>
<path stroke-linejoin="round" stroke-linecap="round" stroke-miterlimit="10" stroke-width="2" d="M8 16h16"></path>
<path stroke-linejoin="round" stroke-linecap="round" stroke-miterlimit="10" stroke-width="2" d="M13 24h6"></path>
</symbol>
<symbol id="icon-external-link" viewBox="0 0 32 32">
<path stroke-linejoin="round" stroke-linecap="round" stroke-miterlimit="4" stroke-width="2.6667" d="M24 17.333v8c0 0.707-0.281 1.386-0.781 1.886s-1.178 0.781-1.886 0.781h-14.667c-0.707 0-1.386-0.281-1.886-0.781s-0.781-1.178-0.781-1.886v-14.667c0-0.707 0.281-1.386 0.781-1.886s1.178-0.781 1.886-0.781h8"></path>
<path stroke-linejoin="round" stroke-linecap="round" stroke-miterlimit="4" stroke-width="2.6667" d="M20 4h8v7"></path>
<path stroke-linejoin="round" stroke-linecap="round" stroke-miterlimit="4" stroke-width="2.6667" d="M13.333 18.667l14.667-14.667"></path>
</symbol>
<symbol id="icon-px" viewBox="0 0 32 32">
<path stroke-linejoin="round" stroke-linecap="round" stroke-miterlimit="4" stroke-width="2.6667" d="M21.522 4.552c1.041-1.041 2.73-1.041 3.771 0l2.155 2.155c1.041 1.041 1.041 2.73 0 3.771l-15.892 15.892-8.889 2.963 2.963-8.889 15.892-15.892z"></path>
</symbol>
<symbol id="icon-edit1" viewBox="0 0 32 32">
<path stroke-linejoin="round" stroke-linecap="round" stroke-miterlimit="4" stroke-width="2" d="M20.697 6.414c0.781-0.781 2.047-0.781 2.829 0l2.060 2.060c0.781 0.781 0.781 2.047 0 2.828l-13.252 13.252-7.333 2.444 2.444-7.333 13.252-13.252z"></path>
</symbol>
<symbol id="icon-edit-fill" viewBox="0 0 32 32">
<path d="M22.61 5.242c-0.385 0.16-0.735 0.393-1.030 0.688l-1.225 1.225 4.212 4.212-1.414 1.414-4.212-4.212-12.325 12.325c-0.123 0.123-0.212 0.276-0.258 0.444l-1.337 4.904c-0.122 0.448 0.289 0.859 0.737 0.737l4.904-1.337c0.168-0.046 0.321-0.135 0.444-0.258l14.964-14.964c0.295-0.295 0.529-0.645 0.688-1.030s0.242-0.798 0.242-1.215-0.082-0.83-0.242-1.215c-0.159-0.385-0.393-0.735-0.688-1.030s-0.645-0.529-1.030-0.688c-0.385-0.16-0.798-0.242-1.215-0.242s-0.83 0.082-1.215 0.242z"></path>
</symbol>
<symbol id="icon-duplicate" viewBox="0 0 32 32">
<path d="M13.871 4c-2.209 0-4 1.791-4 4v1.297h2v-1.297c0-1.105 0.895-2 2-2h11.132c1.105 0 2 0.895 2 2v9.189c0 1.105-0.895 2-2 2h-1.283v2h1.283c2.209 0 4-1.791 4-4v-9.189c0-2.209-1.791-4-4-4h-11.132zM7 10.804c-2.209 0-4 1.791-4 4v9.189c0 2.209 1.791 4 4 4h11.132c2.209 0 4-1.791 4-4v-9.189c0-2.209-1.791-4-4-4h-11.132zM5 14.804c0-1.105 0.895-2 2-2h11.132c1.105 0 2 0.895 2 2v9.189c0 1.105-0.895 2-2 2h-11.132c-1.105 0-2-0.895-2-2v-9.189z"></path>
</symbol>
<symbol id="icon-drag" viewBox="0 0 32 32">
<path fill="#acb5bd" style="fill: var(--color10, #acb5bd)" d="M13 4c0 2.209-1.791 4-4 4s-4-1.791-4-4c0-2.209 1.791-4 4-4s4 1.791 4 4zM13 28c0 2.209-1.791 4-4 4s-4-1.791-4-4c0-2.209 1.791-4 4-4s4 1.791 4 4zM9 20c2.209 0 4-1.791 4-4s-1.791-4-4-4c-2.209 0-4 1.791-4 4s1.791 4 4 4zM27 4c0 2.209-1.791 4-4 4s-4-1.791-4-4c0-2.209 1.791-4 4-4s4 1.791 4 4zM23 32c2.209 0 4-1.791 4-4s-1.791-4-4-4-4 1.791-4 4c0 2.209 1.791 4 4 4zM27 16c0 2.209-1.791 4-4 4s-4-1.791-4-4c0-2.209 1.791-4 4-4s4 1.791 4 4z"></path>
</symbol>
<symbol id="icon-drag-1" viewBox="0 0 32 32">
<path fill="#acb5bd" style="fill: var(--color10, #acb5bd)" d="M13.8 6c0 1.657-1.343 3-3 3s-3-1.343-3-3c0-1.657 1.343-3 3-3s3 1.343 3 3zM13.8 26c0 1.657-1.343 3-3 3s-3-1.343-3-3c0-1.657 1.343-3 3-3s3 1.343 3 3zM10.8 19c1.657 0 3-1.343 3-3s-1.343-3-3-3c-1.657 0-3 1.343-3 3s1.343 3 3 3zM24.3 6c0 1.657-1.343 3-3 3s-3-1.343-3-3 1.343-3 3-3c1.657 0 3 1.343 3 3zM21.3 29c1.657 0 3-1.343 3-3s-1.343-3-3-3c-1.657 0-3 1.343-3 3s1.343 3 3 3zM24.3 16c0 1.657-1.343 3-3 3s-3-1.343-3-3 1.343-3 3-3c1.657 0 3 1.343 3 3z"></path>
</symbol>
<symbol id="icon-down1" viewBox="0 0 32 32">
<path stroke-linejoin="round" stroke-linecap="round" stroke-miterlimit="4" stroke-width="2" d="M6 11l10 10 10-10"></path>
</symbol>
<symbol id="icon-dot-horizontal" viewBox="0 0 32 32">
<path d="M10 16c0 1.105-0.895 2-2 2s-2-0.895-2-2c0-1.105 0.895-2 2-2s2 0.895 2 2zM16 18c1.105 0 2-0.895 2-2s-0.895-2-2-2c-1.105 0-2 0.895-2 2s0.895 2 2 2zM24 18c1.105 0 2-0.895 2-2s-0.895-2-2-2c-1.105 0-2 0.895-2 2s0.895 2 2 2z"></path>
</symbol>
<symbol id="icon-dot-vertical" viewBox="0 0 32 32">
<path d="M16 10c1.105 0 2-0.895 2-2s-0.895-2-2-2c-1.105 0-2 0.895-2 2s0.895 2 2 2zM16 18c1.105 0 2-0.895 2-2s-0.895-2-2-2c-1.105 0-2 0.895-2 2s0.895 2 2 2zM18 24c0 1.105-0.895 2-2 2s-2-0.895-2-2c0-1.105 0.895-2 2-2s2 0.895 2 2z"></path>
</symbol>
<symbol id="icon-delete" viewBox="0 0 32 32">
<path stroke-linejoin="round" stroke-linecap="round" stroke-miterlimit="10" stroke-width="2" d="M6 7v18.118c0 2.145 1.492 3.882 3.333 3.882h13.333c1.842 0 3.333-1.737 3.333-3.882v-18.118"></path>
<path stroke-linejoin="round" stroke-linecap="round" stroke-miterlimit="10" stroke-width="2" d="M4 7h24"></path>
<path stroke-linejoin="round" stroke-linecap="round" stroke-miterlimit="10" stroke-width="2" d="M10 7v-2c0-1.105 0.895-2 2-2h8c1.105 0 2 0.895 2 2v2"></path>
<path stroke-linejoin="round" stroke-linecap="round" stroke-miterlimit="10" stroke-width="2" d="M16 13.8v8.571"></path>
<path stroke-linejoin="round" stroke-linecap="round" stroke-miterlimit="10" stroke-width="2" d="M21 13.8v8.58"></path>
<path stroke-linejoin="round" stroke-linecap="round" stroke-miterlimit="10" stroke-width="2" d="M11 13.8v8.571"></path>
</symbol>
<symbol id="icon-create" viewBox="0 0 32 32">
<path d="M12.48 19.515l3.717-0.946 11.224-11.224c0.182-0.182 0.326-0.398 0.425-0.636s0.149-0.492 0.149-0.75-0.051-0.512-0.149-0.75c-0.099-0.238-0.243-0.454-0.425-0.636s-0.398-0.326-0.636-0.425c-0.238-0.099-0.492-0.149-0.75-0.149s-0.512 0.051-0.75 0.149c-0.238 0.099-0.454 0.243-0.635 0.425l-11.224 11.224-0.946 3.717zM6 9.217c0-1.105 0.895-2 2-2h8.637c0.552 0 1-0.448 1-1s-0.448-1-1-1h-8.637c-2.209 0-4 1.791-4 4v14.779c0 2.209 1.791 4 4 4h14.78c2.209 0 4-1.791 4-4v-8.636c0-0.552-0.448-1-1-1s-1 0.448-1 1v8.636c0 1.104-0.895 2-2 2h-14.78c-1.105 0-2-0.896-2-2v-14.779z"></path>
</symbol>
<symbol id="icon-close_alt" viewBox="0 0 32 32">
<path fill="#70818f" style="fill: var(--color5, #70818f)" d="M7.561 5.439c-0.586-0.586-1.536-0.586-2.121 0s-0.586 1.536 0 2.121l8.442 8.442-8.442 8.442c-0.586 0.586-0.586 1.535 0 2.121s1.536 0.586 2.121 0l8.442-8.442 8.442 8.442c0.586 0.586 1.535 0.586 2.121 0s0.586-1.536 0-2.121l-8.441-8.442 8.441-8.441c0.586-0.586 0.586-1.536 0-2.121s-1.535-0.586-2.121 0l-8.442 8.441-8.442-8.442z"></path>
</symbol>
<symbol id="icon-close" viewBox="0 0 32 32">
<path fill="#70818f" style="fill: var(--color5, #70818f)" d="M8.293 22.435c-0.391 0.391-0.391 1.024 0 1.414s1.024 0.391 1.414 0l6.364-6.364 6.364 6.364c0.391 0.391 1.024 0.391 1.414 0s0.391-1.024 0-1.414l-6.364-6.364 6.364-6.364c0.391-0.391 0.391-1.024 0-1.414s-1.024-0.391-1.414 0l-6.364 6.364-6.364-6.364c-0.391-0.391-1.024-0.391-1.414 0s-0.391 1.024 0 1.414l6.364 6.364-6.364 6.364z"></path>
</symbol>
<symbol id="icon-calendar" viewBox="0 0 32 32">
<path fill="none" stroke="#12283a" style="stroke: var(--color7, #12283a)" stroke-linejoin="miter" stroke-linecap="butt" stroke-miterlimit="4" stroke-width="2" d="M4 14h24v8.6c0 1.137-0.001 1.929-0.051 2.546-0.049 0.605-0.142 0.953-0.276 1.216-0.288 0.564-0.747 1.023-1.311 1.311-0.263 0.134-0.611 0.226-1.216 0.276-0.617 0.050-1.409 0.051-2.546 0.051h-13.2c-1.137 0-1.929-0.001-2.546-0.051-0.605-0.049-0.953-0.142-1.216-0.276-0.564-0.288-1.023-0.747-1.311-1.311-0.134-0.263-0.226-0.611-0.276-1.216-0.050-0.617-0.051-1.409-0.051-2.546v-8.6z"></path>
<path fill="none" stroke="#12283a" style="stroke: var(--color7, #12283a)" stroke-linejoin="miter" stroke-linecap="butt" stroke-miterlimit="4" stroke-width="2" d="M4 13.4c0-1.137 0.001-1.929 0.051-2.546 0.049-0.605 0.142-0.953 0.276-1.216 0.288-0.564 0.747-1.023 1.311-1.311 0.263-0.134 0.611-0.226 1.216-0.276 0.617-0.050 1.409-0.051 2.546-0.051h13.2c1.137 0 1.929 0.001 2.546 0.051 0.605 0.049 0.953 0.142 1.216 0.276 0.564 0.288 1.023 0.747 1.311 1.311 0.134 0.263 0.226 0.611 0.276 1.216 0.050 0.617 0.051 1.409 0.051 2.546v0.6h-24v-0.6z"></path>
<path d="M8 7c0 1.105 0.895 2 2 2s2-0.895 2-2h-4zM12 4.161c0-1.105-0.895-2-2-2s-2 0.895-2 2h4zM12 7v-2.839h-4v2.839h4z"></path>
<path d="M20 7c0 1.105 0.895 2 2 2s2-0.895 2-2h-4zM24 4.161c0-1.105-0.895-2-2-2s-2 0.895-2 2h4zM24 7v-2.839h-4v2.839h4z"></path>
</symbol>
<symbol id="icon-attachment" viewBox="0 0 32 32">
<path stroke-linejoin="miter" stroke-linecap="round" stroke-miterlimit="10" stroke-width="2" d="M28 15.332l-10.626 10.442c-3.019 2.967-8.091 2.967-11.109 0s-3.019-7.951 0-10.917l9.419-9.256c2.174-2.136 5.555-2.136 7.728 0s2.174 5.459 0 7.595l-8.694 8.425c-1.208 1.187-3.14 1.187-4.226 0-1.208-1.187-1.208-3.085 0-4.153l7.245-7.12"></path>
</symbol>
<symbol id="icon-assign" viewBox="0 0 32 32">
<path fill="none" stroke="#70818f" style="stroke: var(--color5, #70818f)" stroke-linejoin="round" stroke-linecap="round" stroke-miterlimit="4" stroke-width="2" d="M17.601 20h-4.8c-2.122 0-4.157 0.843-5.657 2.343s-2.343 3.535-2.343 5.657h14.4"></path>
<path fill="none" stroke="#70818f" style="stroke: var(--color5, #70818f)" stroke-linejoin="round" stroke-linecap="round" stroke-miterlimit="4" stroke-width="2" d="M15.201 15.2c3.093 0 5.6-2.507 5.6-5.6s-2.507-5.6-5.6-5.6c-3.093 0-5.6 2.507-5.6 5.6s2.507 5.6 5.6 5.6z"></path>
<path fill="none" stroke="#70818f" style="stroke: var(--color5, #70818f)" stroke-linejoin="round" stroke-linecap="round" stroke-miterlimit="4" stroke-width="2" d="M24.001 20v6.4"></path>
<path fill="none" stroke="#70818f" style="stroke: var(--color5, #70818f)" stroke-linejoin="round" stroke-linecap="round" stroke-miterlimit="4" stroke-width="2" d="M20.801 23.2h6.4"></path>
</symbol>
<symbol id="icon-add" viewBox="0 0 32 32">
<path stroke-linejoin="round" stroke-linecap="round" stroke-miterlimit="10" stroke-width="2" d="M16 6v20"></path>
<path stroke-linejoin="round" stroke-linecap="round" stroke-miterlimit="10" stroke-width="2" d="M6 16h20"></path>
</symbol>
</defs>
</svg>
