<svg width="0" height="0" class="hidden">
  <symbol fill="none" viewBox="0 0 12 12" xmlns="http://www.w3.org/2000/svg" id="icon-edit-small">
    <path clip-rule="evenodd" d="M8.07 1.707a1 1 0 0 1 1.415 0l.808.808a1 1 0 0 1 0 1.414l-5.96 5.96L1 11l1.111-3.333z" fill-rule="evenodd" stroke="#192734" stroke-linecap="round" stroke-linejoin="round"></path>
  </symbol>
  <symbol viewBox="0 0 16 16" fill="none" xmlns="http://www.w3.org/2000/svg" id="icon-today">
    <path d="M8 2v.857m4.243.9l-.606.606M14 8h-.857m-.9 4.243l-.606-.606M8 14v-.857m-4.243-.9l.606-.606M2 8h.857m.9-4.243l.606.606M8 10.571A2.571 2.571 0 1 0 8 5.43a2.571 2.571 0 0 0 0 5.142z" stroke="#192734" stroke-miterlimit="10" stroke-linecap="round"
      stroke-linejoin="round"></path>
  </symbol>
  <symbol viewBox="0 0 20 20" fill="none" xmlns="http://www.w3.org/2000/svg" id="icon-expenses">
    <path d="M17 16a2 2 0 0 1-2 2H5a2 2 0 0 1-2-2V2.37a.2.2 0 0 1 .31-.168l1.75 1.143a.5.5 0 0 0 .547 0L7.393 2.18a.5.5 0 0 1 .547 0l1.787 1.166a.5.5 0 0 0 .546 0L12.06 2.18a.5.5 0 0 1 .547 0l1.786 1.166a.5.5 0 0 0 .547 0l1.75-1.143a.2.2 0 0 1 .31.167V16z"
      stroke="#192734" stroke-miterlimit="10" stroke-linecap="square"></path>
    <path d="M12.925 9.097l-.298 1.052h-.904c-.174 1.15-.997 1.986-2.748 2.093l2.787 3.413v.072h-1.556l-3.05-3.703-.01-.83H8.66c.938 0 1.53-.372 1.705-1.045H7.04l.298-1.052h2.992c-.196-.601-.737-.963-1.67-.963H7.04L7.351 7h5.578l-.302 1.061-1.343-.008c.222.298.367.652.43 1.044h1.211z"
      fill="#192734"></path>
  </symbol>
  <symbol viewBox="0 0 20 20" fill="none" xmlns="http://www.w3.org/2000/svg" id="icon-income">
    <path d="M2 4.182V7.09c0 1.205 1.953 2.182 4.364 2.182 2.41 0 4.363-.977 4.363-2.182V4.18" stroke="#192734" stroke-miterlimit="10"></path>
    <path d="M2 7.09V10c0 1.205 1.953 2.182 4.364 2.182 1.117 0 2.136-.211 2.909-.556" stroke="#192734" stroke-miterlimit="10"></path>
    <path d="M2 10v2.91c0 1.204 1.953 2.18 4.364 2.18 1.117 0 2.137-.21 2.909-.555" stroke="#192734" stroke-miterlimit="10"></path>
    <path d="M6.364 6.364c2.41 0 4.363-.977 4.363-2.182S8.774 2 6.364 2 2 2.977 2 4.182s1.954 2.182 4.364 2.182z" stroke="#192734" stroke-miterlimit="10" stroke-linecap="square"></path>
    <path d="M9.273 10v2.91c0 1.204 1.953 2.18 4.364 2.18 2.41 0 4.363-.976 4.363-2.18V10" stroke="#192734" stroke-miterlimit="10"></path>
    <path d="M9.273 12.91v2.908c0 1.205 1.953 2.182 4.364 2.182 2.41 0 4.363-.977 4.363-2.182V12.91" stroke="#192734" stroke-miterlimit="10"></path>
    <path d="M13.637 12.182c2.41 0 4.363-.977 4.363-2.182s-1.953-2.182-4.363-2.182S9.273 8.795 9.273 10s1.954 2.182 4.364 2.182z" stroke="#192734" stroke-miterlimit="10" stroke-linecap="square"></path>
  </symbol>
  <symbol viewBox="0 0 20 20" fill="none" xmlns="http://www.w3.org/2000/svg" id="icon-equity">
    <path d="M10.696 11.196a.5.5 0 0 0 .5-.5V4.589a6.465 6.465 0 0 1 6.304 6.454 6.465 6.465 0 0 1-6.457 6.457 6.465 6.465 0 0 1-6.454-6.304h6.107z" stroke="#192734" stroke-linejoin="round"></path>
    <path d="M2.502 8.804a6.465 6.465 0 0 1 6.302-6.302v6.302H2.502z" stroke="#192734" stroke-linecap="round" stroke-linejoin="round"></path>
  </symbol>
  <symbol viewBox="0 0 20 20" fill="none" xmlns="http://www.w3.org/2000/svg" id="icon-liabilities">
    <path d="M8.588 17H5a2 2 0 0 1-2-2V4a2 2 0 0 1 2-2h8.5a2 2 0 0 1 2 2v5.5" stroke="#192734" stroke-miterlimit="10" stroke-linecap="round" stroke-linejoin="round"></path>
    <path d="M5.76 6.09h6.785M5.76 9.5h6.785M5.76 12.91h2.727" stroke="#192734" stroke-miterlimit="10" stroke-linecap="round"></path>
    <path d="M16.668 13.59V17h-5.454v-3.41l2.727-2.044 2.727 2.045z" stroke="#192734" stroke-miterlimit="10" stroke-linecap="round" stroke-linejoin="round"></path>
    <path d="M13.94 15.636V17" stroke="#192734" stroke-miterlimit="10" stroke-linecap="round"></path>
  </symbol>
  <symbol viewBox="0 0 24 24" fill="none" xmlns="http://www.w3.org/2000/svg" id="icon-tool">
    <path d="M16.127 13.077l3.194 3.194a2.588 2.588 0 0 1 0 3.66 2.589 2.589 0 0 1-3.66 0l-2.902-2.902" stroke="#4C5A67" stroke-miterlimit="10" stroke-linecap="round" stroke-linejoin="round"></path>
    <path d="M11.315 10.095l-4.96-4.96a1.294 1.294 0 1 0-1.83 1.83l4.877 4.877" stroke="#4C5A67" stroke-miterlimit="10"></path>
    <path d="M18.56 11.949l-.353.353a.5.5 0 0 0 .707 0l-.354-.353zM21 9.509l.354.353a.5.5 0 0 0 0-.705L21 9.509zm-5.47-5.51l.354-.352-.004-.004-.35.357zm-4.9.02l-.353-.353a.5.5 0 0 0 0 .707l.353-.354zm8.284 8.283l2.44-2.44-.707-.707-2.44 2.44.707.707zm2.44-3.145l-5.47-5.51-.71.705 5.471 5.51.71-.705zM15.88 3.643A3.977 3.977 0 0 0 13.074 2.5l.004 1a2.977 2.977 0 0 1 2.1.856l.702-.713zM13.074 2.5a3.977 3.977 0 0 0-2.797 1.166l.707.706a2.977 2.977 0 0 1 2.094-.872l-.004-1zm-2.797 1.873l7.93 7.93.707-.708-7.93-7.93-.707.708z"
      fill="#4C5A67"></path>
    <path d="M14.133 7.522L3.398 17.325a1.219 1.219 0 0 0-.04 1.764L4.6 20.331a1.22 1.22 0 0 0 1.764-.04l9.789-10.75" stroke="#4C5A67" stroke-miterlimit="10"></path>
  </symbol>
  <symbol viewBox="0 0 24 24" fill="none" xmlns="http://www.w3.org/2000/svg" id="icon-users">
    <path d="M17.727 18.728H20a1 1 0 0 0 1-1v-2.537a.818.818 0 0 0-.515-.76l-3.061-1.226a.819.819 0 0 1-.515-.758v-.718a3.258 3.258 0 0 0 1.636-2.82V7.274a3.272 3.272 0 0 0-4.909-2.835m.304 10.811l-3.062-1.227a.818.818 0 0 1-.514-.758v-.369c2.675-.357 3.272-1.532 3.272-1.532S12 9.728 12 8.092a3.273 3.273 0 1 0-6.545 0c0 1.636-1.637 3.272-1.637 3.272s.597 1.175 3.273 1.532v.37a.818.818 0 0 1-.515.758l-3.061 1.228a.819.819 0 0 0-.515.757v1.72a1 1 0 0 0 1 1h9.454a1 1 0 0 0 1-1v-1.72a.818.818 0 0 0-.514-.759z"
      stroke="#4C5A67" stroke-miterlimit="10" stroke-linecap="round" stroke-linejoin="round"></path>
  </symbol>
  <symbol viewBox="0 0 24 24" fill="none" xmlns="http://www.w3.org/2000/svg" id="icon-integration">
    <path d="M2.5 20.503l2.218-2.218m1.35-7.717l-1.35 1.35a4.5 4.5 0 1 0 6.364 6.365l1.35-1.35-6.364-6.365zM20.5 2.5l-2.218 2.218m-1.35 7.712l1.35-1.35a4.5 4.5 0 0 0-6.365-6.365l-1.35 1.35 6.365 6.365zM9.7 10.604l-1.8 1.8m4.5.898l-1.8 1.8" stroke="#4C5A67"
      stroke-miterlimit="10" stroke-linecap="round" stroke-linejoin="round"></path>
  </symbol>
  <symbol viewBox="0 0 24 24" fill="none" xmlns="http://www.w3.org/2000/svg" id="icon-customization">
    <path d="M12.636 5.455H21m-18 0h2.455M19 12h2M3 12h9m.636 6.546H21m-18 0h2.455m2-11.046a2 2 0 1 0 0-4 2 2 0 0 0 0 4zM14 14a2 2 0 1 0 0-4 2 2 0 0 0 0 4zm-6.545 6.5a2 2 0 1 0 0-4 2 2 0 0 0 0 4z" stroke="#4C5A67" stroke-miterlimit="10" stroke-linecap="round"
      stroke-linejoin="round"></path>
  </symbol>
  <symbol viewBox="0 0 24 24" fill="none" xmlns="http://www.w3.org/2000/svg" id="icon-retail">
    <path d="M18 6H6m-1 5v8.318a1.5 1.5 0 0 0 1.5 1.5H11a.5.5 0 0 0 .5-.5V17a1 1 0 0 1 1-1H14a1 1 0 0 1 1 1v3.318a.5.5 0 0 0 .5.5h2a1.5 1.5 0 0 0 1.5-1.5V11" stroke="#4C5A67" stroke-miterlimit="10" stroke-linecap="square"></path>
    <path d="M18.546 6.2L21 9.4V11H3V9.4l2.455-3.2V4a1 1 0 0 1 1-1h11.09a1 1 0 0 1 1 1v2.2z" stroke="#4C5A67" stroke-miterlimit="10" stroke-linecap="round" stroke-linejoin="round"></path>
    <path d="M7.5 15.5v-1h1v1h-1z" fill="#4C5A67" stroke="#4C5A67"></path>
  </symbol>
  <symbol viewBox="0 0 24 24" fill="none" xmlns="http://www.w3.org/2000/svg" id="icon-non-profit">
    <path d="M3 11.364h5.727l1.637-2.455 3.272 4.91 1.637-2.455H21" stroke="#4C5A67" stroke-miterlimit="10" stroke-linecap="round" stroke-linejoin="round"></path>
    <path d="M6.273 13.982a48.214 48.214 0 0 0 5.052 5.74.97.97 0 0 0 1.35 0 48.216 48.216 0 0 0 5.052-5.74" stroke="#4C5A67" stroke-miterlimit="10" stroke-linecap="round"></path>
    <path d="M20.182 8.442A4.466 4.466 0 0 0 15.719 4 4.517 4.517 0 0 0 12 5.999 4.517 4.517 0 0 0 8.282 4a4.466 4.466 0 0 0-4.464 4.442" stroke="#4C5A67" stroke-miterlimit="10" stroke-linecap="round" stroke-linejoin="round"></path>
  </symbol>
  <symbol viewBox="0 0 24 24" fill="none" xmlns="http://www.w3.org/2000/svg" id="icon-oranisation">
    <path d="M6.273 21H3v-6.364a1 1 0 0 1 1-1h2.273M17.727 21H21v-6.364a1 1 0 0 0-1-1h-2.273M15.727 3H8.273a2 2 0 0 0-2 2v16h11.454V5a2 2 0 0 0-2-2z" stroke="#4C5A67" stroke-miterlimit="10" stroke-linecap="square"></path>
    <path d="M9.545 6.273h1m3.091 0h1M9.545 9.545h1m3.091 0h1m-5.091 3.273h1m3.091 0h1M9.545 16.09h1m3.091 0h1M12 21v-1.636" stroke="#4C5A67" stroke-miterlimit="10" stroke-linecap="round"></path>
  </symbol>
  <symbol viewBox="0 0 24 24" fill="none" xmlns="http://www.w3.org/2000/svg" id="icon-education">
    <path d="M12 5.625V14" stroke="#4C5A67" stroke-miterlimit="10" stroke-linecap="round"></path>
    <path d="M14.125 3.5C12.951 3.5 12 4.45 12 5.625 12 4.451 11.05 3.5 9.875 3.5H4.5a1 1 0 0 0-1 1v11.875a2 2 0 0 0 2 2h4.375c1.174 0 2.125.95 2.125 2.125 0-1.174.95-2.125 2.125-2.125H18.5a2 2 0 0 0 2-2V4.5a1 1 0 0 0-1-1h-5.375z" stroke="#4C5A67"
      stroke-miterlimit="10" stroke-linecap="square"></path>
  </symbol>
  <symbol viewBox="0 0 24 24" fill="none" xmlns="http://www.w3.org/2000/svg" id="icon-agriculture">
    <path d="M12 12V2" stroke="#4C5A67" stroke-miterlimit="10" stroke-linecap="round"></path>
    <path d="M17.1 3h-.85A4.25 4.25 0 0 0 12 7.25v1.7h.85A4.25 4.25 0 0 0 17.1 4.7V3z" stroke="#4C5A67" stroke-miterlimit="10" stroke-linecap="square"></path>
    <path d="M19 15l-.755 5.283A2 2 0 0 1 16.265 22h-8.53a2 2 0 0 1-1.98-1.717L5 15" stroke="#4C5A67" stroke-miterlimit="10"></path>
    <path d="M20 12H4a1 1 0 0 0-1 1v1a1 1 0 0 0 1 1h16a1 1 0 0 0 1-1v-1a1 1 0 0 0-1-1z" stroke="#4C5A67" stroke-miterlimit="10" stroke-linecap="square"></path>
  </symbol>
  <symbol viewBox="0 0 24 24" fill="none" xmlns="http://www.w3.org/2000/svg" id="icon-setting">
    <rect x="3" y="3" width="18" height="8" rx="4" stroke="#4C5A67"></rect>
    <rect x="3" y="13" width="18" height="8" rx="4" stroke="#4C5A67"></rect>
    <path d="M7 8.5a1.5 1.5 0 1 0 0-3 1.5 1.5 0 0 0 0 3zm10 10a1.5 1.5 0 1 0 0-3 1.5 1.5 0 0 0 0 3z" stroke="#4C5A67" stroke-miterlimit="10" stroke-linecap="square"></path>
  </symbol>
  <symbol viewBox="0 0 24 24" fill="none" xmlns="http://www.w3.org/2000/svg" id="icon-website">
    <path d="M3 9h18" stroke="#4C5A67" stroke-miterlimit="10"></path>
    <rect x="3" y="3.5" width="18" height="17" rx="2" stroke="#4C5A67"></rect>
    <circle cx="5.75" cy="6.25" r=".5" fill="#4C5A67" stroke="#4C5A67" stroke-width=".5"></circle>
    <circle cx="8.25" cy="6.25" r=".5" fill="#4C5A67" stroke="#4C5A67" stroke-width=".5"></circle>
    <circle cx="10.75" cy="6.25" r=".5" fill="#4C5A67" stroke="#4C5A67" stroke-width=".5"></circle>
  </symbol>
  <symbol viewBox="0 0 24 24" fill="none" xmlns="http://www.w3.org/2000/svg" id="icon-support">
    <path d="M13.818 21h4.091a2.454 2.454 0 0 0 2.455-2.454V16.09" stroke="#4C5A67" stroke-miterlimit="10" stroke-linecap="round"></path>
    <path d="M8.09 14a2 2 0 0 0-2-2H4v4.09c0 .905.732 1.637 1.636 1.637h1.455a1 1 0 0 0 1-1V14zm12.274-2h-2.091a2 2 0 0 0-2 2v2.727a1 1 0 0 0 1 1h1.454c.905 0 1.637-.732 1.637-1.636V12zm0 0v-.818a8.182 8.182 0 1 0-16.364 0V12" stroke="#4C5A67"
      stroke-miterlimit="10" stroke-linecap="square"></path>
  </symbol>
  <symbol viewBox="0 0 24 24" fill="none" xmlns="http://www.w3.org/2000/svg" id="icon-stock">
    <path d="M7.5 4.84l9.818 4.91M21 7.91L12.818 12 3 7.09M12.818 12v9" stroke="#4C5A67" stroke-miterlimit="10"></path>
    <path d="M19.894 7.356A2 2 0 0 1 21 9.146v5.813a2 2 0 0 1-.971 1.715l-6.27 3.761a2 2 0 0 1-1.923.074l-7.73-3.865A2 2 0 0 1 3 14.854V8.328a2 2 0 0 1 1.106-1.789l6.181-3.09a2 2 0 0 1 1.79 0l7.817 3.908z" stroke="#4C5A67" stroke-miterlimit="10"
      stroke-linecap="square" stroke-linejoin="round"></path>
  </symbol>
  <symbol viewBox="0 0 24 24" fill="none" xmlns="http://www.w3.org/2000/svg" id="icon-sell">
    <path d="M3 8h18M3 6v11a2 2 0 0 0 2 2h14a2 2 0 0 0 2-2V6a2 2 0 0 0-2-2H5a2 2 0 0 0-2 2z" stroke="#4C5A67" stroke-miterlimit="10" stroke-linecap="square"></path>
    <path d="M6.273 15.136h4.09" stroke="#4C5A67" stroke-miterlimit="10" stroke-linecap="round"></path>
  </symbol>
  <symbol viewBox="0 0 24 24" fill="none" xmlns="http://www.w3.org/2000/svg" id="icon-money-coins-1">
    <path d="M8.41 13.818H5a1.5 1.5 0 0 1-1.5-1.5V4.5A1.5 1.5 0 0 1 5 3h11.727a1.5 1.5 0 0 1 1.5 1.5v5.185" stroke="#4C5A67" stroke-miterlimit="10" stroke-linecap="round" stroke-linejoin="round"></path>
    <path d="M11.682 12v3.273c0 1.355 2.197 2.454 4.909 2.454 2.711 0 4.909-1.099 4.909-2.454V12" stroke="#4C5A67" stroke-miterlimit="10"></path>
    <path d="M11.682 15.273v3.273C11.682 19.9 13.879 21 16.59 21c2.711 0 4.909-1.099 4.909-2.454v-3.273" stroke="#4C5A67" stroke-miterlimit="10"></path>
    <path d="M16.59 14.454c2.712 0 4.91-1.098 4.91-2.454s-2.198-2.455-4.91-2.455c-2.71 0-4.908 1.1-4.908 2.455 0 1.356 2.197 2.454 4.909 2.454zm-5.726-5.727a.818.818 0 1 0 0-1.636.818.818 0 0 0 0 1.636z" stroke="#4C5A67" stroke-miterlimit="10"
      stroke-linecap="square"></path>
    <path d="M11.182 7.91a.318.318 0 1 1-.637-.001.318.318 0 0 1 .637 0z" fill="#74808B" stroke="#4C5A67"></path>
  </symbol>
  <symbol viewBox="0 0 24 24" fill="none" xmlns="http://www.w3.org/2000/svg" id="icon-quality">
    <path d="M20 13a8.25 8.25 0 1 1-16.5 0V5.833L11.75 3 20 5.833V13z" stroke="#4C5A67" stroke-miterlimit="10" stroke-linecap="square" stroke-linejoin="round"></path>
    <path d="M15.907 11.674a4.278 4.278 0 1 1-2.27-2.882" stroke="#4C5A67"></path>
    <path d="M16.013 9.298l-5.077 4.558-.68-.68-.512-.512" stroke="#4C5A67" stroke-linecap="round" stroke-linejoin="round"></path>
  </symbol>
  <symbol viewBox="0 0 24 24" fill="none" xmlns="http://www.w3.org/2000/svg" id="icon-quantity-1">
    <path d="M18.747 8.576l.293-.405-.293.405 1.63 1.18-.822 1.835a1 1 0 0 0 0 .818l.822 1.836-1.63 1.179a1 1 0 0 0-.409.708l-.205 2-2.001.206a1 1 0 0 0-.709.41l-1.178 1.63-1.836-.823a1 1 0 0 0-.818 0l-1.836.822-1.179-1.63a1 1 0 0 0-.708-.409l-2-.205-.207-2.001a1 1 0 0 0-.408-.709l-1.63-1.178.822-1.836a1 1 0 0 0 0-.818l-.822-1.836 1.63-1.179-.293-.405.293.405a1 1 0 0 0 .408-.708l.206-2 2.001-.207a1 1 0 0 0 .708-.408l1.18-1.63 1.835.822a1 1 0 0 0 .818 0l1.836-.822 1.179 1.63a1 1 0 0 0 .708.408l2 .206.206 2.001a1 1 0 0 0 .41.708zM16.389 11A4.5 4.5 0 1 1 14 7.968"
      stroke="#4C5A67"></path>
    <path d="M16.5 8.5l-5.34 4.796-.717-.717-.537-.538" stroke="#4C5A67" stroke-linecap="round" stroke-linejoin="round"></path>
  </symbol>
  <symbol viewBox="0 0 24 24" fill="none" xmlns="http://www.w3.org/2000/svg" id="icon-quality-3">
    <path d="M4 6.798A14.286 14.286 0 0 0 12.137 3a14.285 14.285 0 0 0 8.137 3.798s-.115 2.264-.503 5.744c-.383 3.436-2.664 6.338-5.844 7.695l-1.79.763-1.668-.712c-3.246-1.384-5.54-4.378-5.933-7.886C4.122 8.703 4 6.798 4 6.798z" stroke="#4C5A67" stroke-linecap="round"
      stroke-linejoin="round"></path>
    <path d="M12.069 8.386a.2.2 0 0 1 .362 0l.933 1.986a.2.2 0 0 0 .15.113l2.101.321a.2.2 0 0 1 .113.337l-1.533 1.571a.2.2 0 0 0-.054.172l.36 2.208a.2.2 0 0 1-.294.207l-1.86-1.029a.2.2 0 0 0-.194 0l-1.86 1.029a.2.2 0 0 1-.294-.207l.36-2.208a.2.2 0 0 0-.054-.172l-1.533-1.57a.2.2 0 0 1 .113-.338l2.1-.321a.2.2 0 0 0 .152-.113l.932-1.986z"
      stroke="#4C5A67"></path>
  </symbol>
  <symbol viewBox="0 0 24 24" fill="none" xmlns="http://www.w3.org/2000/svg" id="icon-projectsss">
    <path d="M3 4.5V18a2 2 0 0 0 2 2h14a2 2 0 0 0 2-2V7a.5.5 0 0 0-.5-.5h-9.108a.5.5 0 0 1-.357-.15l-2.16-2.2A.5.5 0 0 0 8.516 4H3.5a.5.5 0 0 0-.5.5z" stroke="#4C5A67" stroke-miterlimit="10" stroke-linecap="square"></path>
    <path d="M3 10.5h18" stroke="#4C5A67"></path>
  </symbol>
  <symbol viewBox="0 0 24 24" fill="none" xmlns="http://www.w3.org/2000/svg" id="icon-projectss">
    <path d="M3 8v11a2 2 0 0 0 2 2h14a2 2 0 0 0 2-2v-8a.5.5 0 0 0-.5-.5h-9.081a.5.5 0 0 1-.387-.184L8.877 7.683A.5.5 0 0 0 8.49 7.5H3.5A.5.5 0 0 0 3 8z" stroke="#4C5A67" stroke-miterlimit="10" stroke-linecap="square"></path>
    <path d="M4.636 4h14.727v3.273" stroke="#4C5A67" stroke-miterlimit="10" stroke-linecap="round" stroke-linejoin="round"></path>
  </symbol>
  <symbol viewBox="0 0 24 24" fill="none" xmlns="http://www.w3.org/2000/svg" id="icon-project">
    <path d="M19.913 8.5H4.087a1 1 0 0 0-.997 1.083l.757 9.083A2 2 0 0 0 5.84 20.5h12.32a2 2 0 0 0 1.993-1.834l.757-9.083a1 1 0 0 0-.997-1.083z" stroke="#4C5A67" stroke-miterlimit="10" stroke-linecap="square"></path>
    <path d="M19 6h-5.667l-1.666-2H5v2" stroke="#4C5A67" stroke-miterlimit="10" stroke-linecap="round" stroke-linejoin="round"></path>
  </symbol>
  <symbol viewBox="0 0 24 24" fill="none" xmlns="http://www.w3.org/2000/svg" id="icon-projects">
    <path d="M3.09 10.083A1 1 0 0 1 4.087 9h15.826a1 1 0 0 1 .997 1.083l-.757 9.083A2 2 0 0 1 18.16 21H5.84a2 2 0 0 1-1.993-1.834l-.757-9.083z" stroke="#4C5A67"></path>
    <path d="M6 6.5h12M8 4h8" stroke="#4C5A67" stroke-linecap="round"></path>
  </symbol>
  <symbol viewBox="0 0 24 24" fill="none" xmlns="http://www.w3.org/2000/svg" id="icon-loan">
    <path d="M8.727 14.455H4a1 1 0 0 1-1-1V7.273a1 1 0 0 1 1-1h16a1 1 0 0 1 1 1v8" stroke="#4C5A67" stroke-miterlimit="10" stroke-linecap="round" stroke-linejoin="round"></path>
    <path d="M6.273 14.454v.41a6.137 6.137 0 0 0 12.273 0V8.727A3.273 3.273 0 0 0 15.273 12v1.636A3.273 3.273 0 0 0 12 16.91m0-5.728a.818.818 0 1 0 0-1.637.818.818 0 0 0 0 1.637z" stroke="#4C5A67" stroke-miterlimit="10" stroke-linecap="square"></path>
    <path d="M12.318 10.364a.318.318 0 1 1-.636 0 .318.318 0 0 1 .636 0z" fill="#4C5A67" stroke="#4C5A67"></path>
    <path d="M17.727 6.273v-.818A2.454 2.454 0 0 0 15.273 3H8.727a2.454 2.454 0 0 0-2.454 2.455v.818" stroke="#4C5A67" stroke-miterlimit="10" stroke-linecap="square"></path>
  </symbol>
  <symbol viewBox="0 0 24 24" fill="none" xmlns="http://www.w3.org/2000/svg" id="icon-hr">
    <path d="M8 5.5v-1a1 1 0 0 1 1-1h6a1 1 0 0 1 1 1v1m4 0H4a1 1 0 0 0-1 1v4a1 1 0 0 0 1 1h16a1 1 0 0 0 1-1v-4a1 1 0 0 0-1-1z" stroke="#4C5A67" stroke-miterlimit="10" stroke-linecap="square"></path>
    <path d="M20 13.5V19a2 2 0 0 1-2 2H6a2 2 0 0 1-2-2v-5.5" stroke="#4C5A67" stroke-miterlimit="10" stroke-linecap="round" stroke-linejoin="round"></path>
    <path d="M13.5 10.5h-3a1 1 0 1 0 0 2h3a1 1 0 1 0 0-2z" fill="#fff" stroke="#4C5A67" stroke-miterlimit="10" stroke-linecap="square"></path>
  </symbol>
  <symbol viewBox="0 0 24 24" fill="none" xmlns="http://www.w3.org/2000/svg" id="icon-crm">
    <path d="M13.636 3v7.364H21A7.363 7.363 0 0 0 13.636 3z" stroke="#4C5A67" stroke-miterlimit="10" stroke-linecap="square" stroke-linejoin="round"></path>
    <path d="M10.364 6.273A7.363 7.363 0 0 0 3 13.636 7.363 7.363 0 0 0 10.364 21a7.363 7.363 0 0 0 7.363-7.364h-7.363V6.273z" stroke="#4C5A67" stroke-miterlimit="10" stroke-linecap="square" stroke-linejoin="round"></path>
  </symbol>
  <symbol viewBox="0 0 24 24" fill="none" xmlns="http://www.w3.org/2000/svg" id="icon-buying">
    <path d="M3 6h17" stroke="#4C5A67" stroke-miterlimit="10"></path>
    <path d="M20 19a2 2 0 0 1-2 2H5a2 2 0 0 1-2-2V6l3.4-3h10.2L20 6v13z" stroke="#4C5A67" stroke-miterlimit="10" stroke-linecap="square" stroke-linejoin="round"></path>
    <path d="M15.582 10c0 2.29-1.8 4.09-4.091 4.09A4.051 4.051 0 0 1 7.4 10" stroke="#4C5A67" stroke-miterlimit="10" stroke-linecap="round" stroke-linejoin="round"></path>
    <circle cx="15.6" cy="10" r=".5" stroke="#4C5A67"></circle>
    <circle cx="7.3" cy="10" r=".5" stroke="#4C5A67"></circle>
  </symbol>
  <symbol viewBox="0 0 24 24" fill="none" xmlns="http://www.w3.org/2000/svg" id="icon-accounting">
    <path d="M19 7H5a2 2 0 0 0-2 2v10a2 2 0 0 0 2 2h14a2 2 0 0 0 2-2V9a2 2 0 0 0-2-2z" stroke="#4C5A67" stroke-miterlimit="10" stroke-linecap="square"></path>
    <path d="M13.3 14a1.3 1.3 0 1 1-2.6 0 1.3 1.3 0 0 1 2.6 0z" stroke="#4C5A67" stroke-miterlimit="10" stroke-linecap="square"></path>
    <path d="M8.26 10.3h7.48a2.844 2.844 0 0 0 2.36 2.36v2.68a2.844 2.844 0 0 0-2.36 2.36H8.26a2.844 2.844 0 0 0-2.36-2.36v-2.68a2.844 2.844 0 0 0 2.36-2.36zM6 5V4h12v1" stroke="#4C5A67" stroke-miterlimit="10" stroke-linecap="round" stroke-linejoin="round"></path>
  </symbol>
  <symbol viewBox="0 0 24 24" fill="none" xmlns="http://www.w3.org/2000/svg" id="icon-assets">
    <path d="M19 8.5H5a2 2 0 0 0-2 2v9a2 2 0 0 0 2 2h14a2 2 0 0 0 2-2v-9a2 2 0 0 0-2-2z" stroke="#4C5A67" stroke-miterlimit="10" stroke-linecap="square"></path>
    <path d="M12 17a2 2 0 1 0 0-4 2 2 0 0 0 0 4z" stroke="#4C5A67" stroke-miterlimit="10" stroke-linecap="square"></path>
    <path d="M18 6H6m10-2.5H8" stroke="#4C5A67" stroke-miterlimit="10" stroke-linecap="round"></path>
  </symbol>
  <symbol viewBox="0 0 24 24" fill="none" xmlns="http://www.w3.org/2000/svg" id="icon-getting-started">
    <path d="M13.632 17.725l2.413 2.413a2.86 2.86 0 0 0 4.09 0 2.864 2.864 0 0 0 0-4.09l-1.595-1.595" stroke="#4C5A67" stroke-miterlimit="10" stroke-linecap="round" stroke-linejoin="round"></path>
    <path d="M10.3 10.548L7.497 7.746" stroke="#4C5A67" stroke-miterlimit="10"></path>
    <path d="M5.78 8.319l1.718-.573.572-1.717-2.29-2.29-2.29 2.29 2.29 2.29z" stroke="#4C5A67" stroke-miterlimit="10" stroke-linecap="round" stroke-linejoin="round"></path>
    <path d="M20.73 6.21l-2.517 2.507-2.94-2.925 2.518-2.508a3.445 3.445 0 0 0-1.847-.25 4.593 4.593 0 0 0-4.199 4.68c-.006.46.08.915.251 1.341l-8.06 7.102a2.796 2.796 0 0 0-.168 4.012 2.689 2.689 0 0 0 4.03-.163l7.138-8.024a5.5 5.5 0 0 0 2.352.163 4.651 4.651 0 0 0 3.526-3.26 4.158 4.158 0 0 0-.084-2.675z"
      stroke="#4C5A67" stroke-miterlimit="10" stroke-linecap="square" stroke-linejoin="round"></path>
  </symbol>
  <symbol viewBox="0 0 16 16" fill="none" xmlns="http://www.w3.org/2000/svg" id="icon-image-1">
    <path d="M2.5 3.5a1 1 0 0 1 1-1h2a1 1 0 0 1 1 1v3h-3a1 1 0 0 1-1-1v-2zm0 7a1 1 0 0 1 1-1h3v3a1 1 0 0 1-1 1h-2a1 1 0 0 1-1-1v-2zm7-7a1 1 0 0 1 1-1h2a1 1 0 0 1 1 1v2a1 1 0 0 1-1 1h-3v-3zm0 6h3a1 1 0 0 1 1 1v2a1 1 0 0 1-1 1h-2a1 1 0 0 1-1-1v-3z" stroke="#000"></path>
  </symbol>
  <symbol viewBox="0 0 12 12" fill="none" xmlns="http://www.w3.org/2000/svg" id="icon-folder-normal-1">
    <path d="M9.5 6a3.5 3.5 0 1 1-7 0 3.5 3.5 0 0 1 7 0z" stroke="#4C5A67"></path>
  </symbol>
  <symbol viewBox="0 0 20 20" fill="none" xmlns="http://www.w3.org/2000/svg" id="icon-file">
    <path d="M6.5 14h7m-7-3h7m-7-3h2m3-5.5H5A1.5 1.5 0 0 0 3.5 4v12A1.5 1.5 0 0 0 5 17.5h10a1.5 1.5 0 0 0 1.5-1.5V7.5l-5-5z" stroke="#192734" stroke-miterlimit="10" stroke-linecap="round" stroke-linejoin="round"></path>
    <path d="M11.5 3v5h5" stroke="#192734" stroke-miterlimit="10" stroke-linecap="round" stroke-linejoin="round"></path>
  </symbol>
  <symbol viewBox="0 0 20 20" fill="none" xmlns="http://www.w3.org/2000/svg" id="icon-folder-open">
    <path d="M8.024 6.5H3a.5.5 0 0 0-.5.5v8a2 2 0 0 0 2 2h11a2 2 0 0 0 2-2V9.5A.5.5 0 0 0 17 9h-6.783a.5.5 0 0 1-.417-.224L8.441 6.724a.5.5 0 0 0-.417-.224z" stroke="#192734" stroke-miterlimit="10" stroke-linecap="square"></path>
    <path d="M3.88 4.5v-1a.5.5 0 0 1 .5-.5h11.24a.5.5 0 0 1 .5.5V7" stroke="#192734" stroke-miterlimit="10" stroke-linecap="round" stroke-linejoin="round"></path>
  </symbol>
  <symbol viewBox="0 0 20 20" fill="none" xmlns="http://www.w3.org/2000/svg" id="icon-folder-normal">
    <path d="M2.5 4v10a2 2 0 0 0 2 2h11a2 2 0 0 0 2-2V6.5a1 1 0 0 0-1-1h-6.283a.5.5 0 0 1-.417-.224L8.441 3.224A.5.5 0 0 0 8.024 3H3.5a1 1 0 0 0-1 1z" stroke="#192734" stroke-miterlimit="10" stroke-linecap="square"></path>
  </symbol>
  <symbol viewBox="0 0 20 20" fill="none" xmlns="http://www.w3.org/2000/svg" id="icon-image">
    <path d="M11.5 2.5H5A1.5 1.5 0 0 0 3.5 4v12A1.5 1.5 0 0 0 5 17.5h10a1.5 1.5 0 0 0 1.5-1.5V7.5l-5-5z" stroke="#192734" stroke-miterlimit="10" stroke-linecap="round" stroke-linejoin="round"></path>
    <path d="M5.876 15.4a.2.2 0 0 1-.166-.312l1.841-2.735a.2.2 0 0 1 .291-.045l1.224.98a.2.2 0 0 0 .283-.034l1.973-2.527a.2.2 0 0 1 .329.019l2.663 4.35a.2.2 0 0 1-.171.304H5.876z" stroke="#192734" stroke-miterlimit="10" stroke-linecap="square"
      stroke-linejoin="round"></path>
    <path d="M8 9.5a1 1 0 1 0 0-2 1 1 0 0 0 0 2z" stroke="#192734" stroke-miterlimit="10" stroke-linecap="square"></path>
  </symbol>
  <symbol viewBox="0 0 12 12" fill="none" xmlns="http://www.w3.org/2000/svg" id="icon-esc">
    <path d="M6.984 2.233c.481.115.94.32 1.35.605a3.953 3.953 0 0 1 .449 6.074 3.92 3.92 0 0 1-4.297.75 3.93 3.93 0 0 1-2.27-2.88" stroke="#192734" stroke-miterlimit="10" stroke-linecap="round"></path>
    <path d="M2.097 2.097l1.226 1.231L4.55 4.559l.613.616.307.308" stroke="#192734" stroke-linecap="round" stroke-linejoin="round"></path>
    <path d="M2 4.216V2h2.427" stroke="#192734" stroke-linecap="round" stroke-linejoin="round"></path>
  </symbol>
  <symbol viewBox="0 0 16 16" fill="none" xmlns="http://www.w3.org/2000/svg" id="icon-settings">
    <path d="M8 9.636a1.636 1.636 0 1 0 0-3.272 1.636 1.636 0 0 0 0 3.272z" stroke="#192734" stroke-linecap="round" stroke-linejoin="round"></path>
    <path d="M12.036 9.636a.9.9 0 0 0 .18.993l.033.033a1.09 1.09 0 1 1-1.543 1.543l-.033-.032a.9.9 0 0 0-.993-.18.9.9 0 0 0-.545.823v.093a1.091 1.091 0 0 1-2.182 0v-.049a.9.9 0 0 0-.59-.824.9.9 0 0 0-.992.18l-.033.033a1.091 1.091 0 1 1-1.543-1.543l.032-.033a.9.9 0 0 0 .18-.993.9.9 0 0 0-.823-.545H3.09a1.09 1.09 0 0 1 0-2.182h.049a.9.9 0 0 0 .824-.59.9.9 0 0 0-.18-.992l-.033-.033a1.09 1.09 0 1 1 1.544-1.543l.032.032a.9.9 0 0 0 .993.18h.044a.9.9 0 0 0 .545-.823V3.09a1.09 1.09 0 0 1 2.182 0v.049a.9.9 0 0 0 .545.824.9.9 0 0 0 .993-.18l.033-.033a1.09 1.09 0 0 1 1.78 1.19 1.091 1.091 0 0 1-.236.354l-.033.032a.9.9 0 0 0-.18.993v.044a.9.9 0 0 0 .823.545h.093a1.091 1.091 0 0 1 0 2.182h-.049a.9.9 0 0 0-.824.545z"
      stroke="#192734" stroke-linecap="round" stroke-linejoin="round"></path>
  </symbol>
  <symbol viewBox="0 0 16 16" fill="none" xmlns="http://www.w3.org/2000/svg" id="icon-mark-as-read">
    <path d="M1 8.5L3.5 11 10 3.5M9.5 8h5m-7 3h7" stroke="#192734" stroke-miterlimit="10" stroke-linecap="round" stroke-linejoin="round"></path>
  </symbol>
  <symbol viewBox="0 0 16 16" fill="none" xmlns="http://www.w3.org/2000/svg" id="icon-time">
    <path d="M8 14A6 6 0 1 0 8 2a6 6 0 0 0 0 12z" stroke="#192734" stroke-miterlimit="10" stroke-linecap="round" stroke-linejoin="round"></path>
    <path d="M8 5.21V8l2.791 2.79" stroke="#192734" stroke-miterlimit="10" stroke-linecap="round" stroke-linejoin="round"></path>
  </symbol>
  <symbol viewBox="0 0 12 12" fill="none" xmlns="http://www.w3.org/2000/svg" id="icon-collapse">
    <path d="M6.842 5.158L10 2m-8 8l3.158-3.158M9.79 5.158H6.842V2.21M5.158 9.79V6.841H2.21" stroke="#192734" stroke-miterlimit="10" stroke-linecap="round" stroke-linejoin="round"></path>
  </symbol>
  <symbol viewBox="0 0 12 12" fill="none" xmlns="http://www.w3.org/2000/svg" id="icon-expand">
    <path d="M10 2L6.844 5.158M7.053 2h2.948v2.948M5.158 6.842L2 10m0-2.947V10h2.947" stroke="#192734" stroke-miterlimit="10" stroke-linecap="round" stroke-linejoin="round"></path>
  </symbol>
  <symbol viewBox="0 0 16 16" fill="none" xmlns="http://www.w3.org/2000/svg" id="icon-real-location">
    <path d="M8 12.845a4.845 4.845 0 1 0 0-9.69 4.845 4.845 0 0 0 0 9.69zM8 13v1.5M14.5 8H13M8 1.5V3M3 8H1.5" stroke="#2D95F0" stroke-miterlimit="10" stroke-linecap="round" stroke-linejoin="round"></path>
    <circle cx="8" cy="8" r="2" fill="#2D95F0"></circle>
  </symbol>
  <symbol viewBox="0 0 20 20" fill="none" xmlns="http://www.w3.org/2000/svg" id="icon-attachment-1">
    <path d="M17 9.61l-6.199 6.092c-1.76 1.73-4.72 1.73-6.48 0-1.761-1.73-1.761-4.638 0-6.368l5.494-5.4a3.186 3.186 0 0 1 4.508 0c1.268 1.246 1.268 3.185 0 4.43L9.252 13.28c-.705.693-1.832.693-2.466 0-.704-.692-.704-1.8 0-2.422l4.227-4.154" stroke="#4C5A67"
      stroke-miterlimit="10" stroke-linecap="round"></path>
  </symbol>
  <symbol viewBox="0 0 20 20" fill="none" xmlns="http://www.w3.org/2000/svg" id="icon-keyboard">
    <rect x="2.5" y="4" width="15" height="12" rx="2" stroke="#192734"></rect>
    <circle cx="5.8" cy="7.65" r=".65" fill="#192734"></circle>
    <circle cx="7.9" cy="7.65" r=".65" fill="#192734"></circle>
    <circle cx="10" cy="7.65" r=".65" fill="#192734"></circle>
    <circle cx="12.1" cy="7.65" r=".65" fill="#192734"></circle>
    <circle cx="14.2" cy="7.65" r=".65" fill="#192734"></circle>
    <path d="M6.5 13h7" stroke="#192734" stroke-linecap="round" stroke-linejoin="round"></path>
    <circle cx="6.85" cy="9.75" r=".65" fill="#192734"></circle>
    <circle cx="8.95" cy="9.75" r=".65" fill="#192734"></circle>
    <circle cx="11.05" cy="9.75" r=".65" fill="#192734"></circle>
    <circle cx="13.15" cy="9.75" r=".65" fill="#192734"></circle>
  </symbol>
  <symbol viewBox="0 0 24 24" fill="none" xmlns="http://www.w3.org/2000/svg" id="icon-success">
    <path fill-rule="evenodd" clip-rule="evenodd" d="M22 12c0 5.523-4.477 10-10 10S2 17.523 2 12 6.477 2 12 2s10 4.477 10 10zm-5.127-1.86a1 1 0 1 0-1.414-1.414l-.833.833-1.667 1.667-2.626 2.626-.96-.96-.833-.833a1 1 0 0 0-1.414 1.415l.833.833 1.667 1.666a1 1 0 0 0 1.414 0l3.333-3.333 1.667-1.667.833-.833z"
      fill="#68D391"></path>
  </symbol>
  <symbol viewBox="0 0 24 24" fill="none" xmlns="http://www.w3.org/2000/svg" id="icon-error">
    <path fill-rule="evenodd" clip-rule="evenodd" d="M12 22c5.523 0 10-4.477 10-10S17.523 2 12 2 2 6.477 2 12s4.477 10 10 10zM8.043 8.043a1 1 0 0 1 1.414 0l2.544 2.544 2.544-2.544a1 1 0 1 1 1.414 1.414l-2.544 2.544 2.544 2.544a1 1 0 1 1-1.414 1.414l-2.544-2.544-2.544 2.544a1 1 0 0 1-1.414-1.414l2.544-2.544-2.544-2.544a1 1 0 0 1 0-1.414z"
      fill="#F56B6B"></path>
  </symbol>
  <symbol viewBox="0 0 24 24" fill="none" xmlns="http://www.w3.org/2000/svg" id="icon-warning">
    <path fill-rule="evenodd" clip-rule="evenodd" d="M4.003 21.397c-1.525 0-2.489-1.639-1.748-2.972L10.253 4.03c.762-1.372 2.734-1.372 3.496 0l7.998 14.396c.741 1.333-.223 2.972-1.748 2.972H4.003zm7.996-2.984a1.032 1.032 0 1 0 0-2.064 1.032 1.032 0 0 0 0 2.064zM13 8.86a1 1 0 1 0-2 0v5.047a1 1 0 1 0 2 0V8.86z"
      fill="#D6932E"></path>
  </symbol>
  <symbol viewBox="0 0 24 24" fill="none" xmlns="http://www.w3.org/2000/svg" id="icon-info">
    <path opacity=".8" fill-rule="evenodd" clip-rule="evenodd" d="M12 2C6.5 2 2 6.5 2 12s4.5 10 10 10 10-4.5 10-10S17.5 2 12 2zm0 8.5a1 1 0 0 1 1 1V17a1 1 0 1 1-2 0v-5.5a1 1 0 0 1 1-1zM13 8a1 1 0 1 0-2 0v.1a1 1 0 1 0 2 0V8z" fill="#318AD8"></path>
  </symbol>
  <symbol viewBox="0 0 16 16" fill="none" xmlns="http://www.w3.org/2000/svg" id="icon-globe">
    <path d="M8 2C4.691 2 2 4.691 2 8s2.691 6 6 6 6-2.691 6-6-2.691-6-6-6zm0 11a4.974 4.974 0 0 1-3.269-1.226c.004-.006.01-.011.013-.018.826-1.384.307-2.23-.077-2.61a3.558 3.558 0 0 0-.335-.285c-.311-.241-.518-.4-.518-.861 0-.217.122-.302.719-.506.411-.14.877-.3 1.177-.688.697-.902-.07-2.293-.23-2.563a4.533 4.533 0 0 0-.266-.393 4.972 4.972 0 0 1 2.613-.841c.156.264.414.487.666.704.216.187.56.264.736.484.101.127.052.37.056.529.006.315.197.772.841.772.029 0 .059 0 .089-.003.249-.017 1.026-.195 1.807-.453.612.83.978 1.851.978 2.958 0 2.757-2.243 5-5 5z"
      fill="#4C5A67"></path>
    <path d="M9.757 6.451c-.788 0-1.592.375-2.001.932-.275.374-.355.806-.226 1.218.258.821.283 1.305.122 1.847-.143.482-.157 1.181.66 1.514.153.063.322.095.5.095.607 0 1.326-.375 1.972-1.03.777-.788 1.234-1.753 1.223-2.583-.015-1.117-1.003-1.993-2.25-1.993z"
      fill="#4C5A67"></path>
  </symbol>
  <symbol viewBox="0 0 12 12" fill="none" xmlns="http://www.w3.org/2000/svg" id="icon-down-arrow">
    <path d="M3.568 4h4.864a.5.5 0 0 1 .385.82L6.384 7.74a.5.5 0 0 1-.768 0L3.183 4.82A.5.5 0 0 1 3.568 4z" fill="#192734"></path>
  </symbol>
  <symbol viewBox="0 0 12 12" fill="none" xmlns="http://www.w3.org/2000/svg" id="icon-small-right-arrow">
    <path d="M8.8 6.002L2.8 6m3.8-2.665l2.666 2.667L6.6 8.668" stroke="#112B42" stroke-linecap="round" stroke-linejoin="round"></path>
  </symbol>
  <symbol viewBox="0 0 12 12" fill="none" xmlns="http://www.w3.org/2000/svg" id="icon-folder-item">
    <path d="M6 9.5a3.5 3.5 0 1 0 0-7 3.5 3.5 0 0 0 0 7z" stroke="#415668"></path>
  </symbol>
  <symbol viewBox="0 0 16 16" fill="none" xmlns="http://www.w3.org/2000/svg" id="icon-equal">
    <path d="M4.75 3L2.5 5.25m0 0L4.75 7.5M2.5 5.25h9m-.25 3.375l2.25 2.25m0 0l-2.25 2.25m2.25-2.25h-9" stroke="#112B42" stroke-linecap="round" stroke-linejoin="round"></path>
  </symbol>
  <symbol viewBox="0 0 12 12" fill="none" xmlns="http://www.w3.org/2000/svg" id="icon-small-close">
    <path d="M9.1 5.7H2.7m3.2-3.2v6.4-6.4z" stroke="#112B42" stroke-linecap="round" stroke-linejoin="round"></path>
  </symbol>
  <symbol viewBox="0 0 12 12" fill="none" xmlns="http://www.w3.org/2000/svg" id="icon-extra-small-add">
    <path d="M9.2 9.2L2.8 2.8m6.4 0L2.8 9.2l6.4-6.4z" stroke="#112B42" stroke-linecap="round" stroke-linejoin="round"></path>
  </symbol>
  <symbol viewBox="0 0 16 16" fill="none" xmlns="http://www.w3.org/2000/svg" id="icon-list">
    <path d="M9.5 3.5v9m-6-9h9a1 1 0 0 1 1 1v7a1 1 0 0 1-1 1h-9a1 1 0 0 1-1-1v-7a1 1 0 0 1 1-1z" stroke="#112B42" stroke-linecap="round" stroke-linejoin="round"></path>
  </symbol>
  <symbol viewBox="0 0 20 20" fill="none" xmlns="http://www.w3.org/2000/svg" id="icon-clear-formatting">
    <path d="M6.667 6.667H15m-5.834 7.5l2.792-7.5" stroke="#192734" stroke-width="1.5" stroke-linecap="round" stroke-linejoin="round"></path>
    <path d="M5 5l10 10" stroke="#FBFBFB" stroke-width="2" stroke-linecap="round" stroke-linejoin="round"></path>
    <path d="M5.833 6.667L14.168 15" stroke="#192734" stroke-linecap="round" stroke-linejoin="round"></path>
  </symbol>
  <symbol viewBox="0 0 20 20" fill="none" xmlns="http://www.w3.org/2000/svg" id="icon-font-size">
    <path d="M4 5v1.895h3.158v7.579h1.895v-7.58h3.157V5H4zm12 3.158h-5.684v1.895h1.894v4.42h1.895v-4.42H16V8.158z" fill="#192734"></path>
  </symbol>
  <symbol viewBox="0 0 20 20" fill="none" xmlns="http://www.w3.org/2000/svg" id="icon-increase-indent">
    <path d="M9 9.9h6.12M5 5h10M5 14.8h10" stroke="#192734" stroke-miterlimit="10" stroke-linecap="round" stroke-linejoin="round"></path>
    <path d="M4.3 11.546V8.254a.4.4 0 0 1 .656-.307L6.93 9.593a.4.4 0 0 1 0 .614l-1.975 1.646a.4.4 0 0 1-.656-.307z" fill="#192734"></path>
  </symbol>
  <symbol viewBox="0 0 20 20" fill="none" xmlns="http://www.w3.org/2000/svg" id="icon-decrease-indent">
    <path d="M9 9.9h6.12M5 5h10M5 14.8h10" stroke="#192734" stroke-miterlimit="10" stroke-linecap="round" stroke-linejoin="round"></path>
    <path d="M7.3 8.254v3.292a.4.4 0 0 1-.656.307l-1.975-1.646a.4.4 0 0 1 0-.614l1.975-1.646a.4.4 0 0 1 .656.307z" fill="#192734"></path>
  </symbol>
  <symbol viewBox="0 0 20 20" fill="none" xmlns="http://www.w3.org/2000/svg" id="icon-left-align">
    <path d="M5 5.2h10M5 10h10M5 14.8h6" stroke="#192734" stroke-linecap="round" stroke-linejoin="round"></path>
  </symbol>
  <symbol viewBox="0 0 20 20" fill="none" xmlns="http://www.w3.org/2000/svg" id="icon-numbered-list">
    <path d="M7.917 5.42H16M7.917 9.896H16m-8.083 4.476H16" stroke="#192734" stroke-linecap="round" stroke-linejoin="round"></path>
    <path d="M4.88 6.8V4.61h-.013l-.705.477V4.47l.717-.488h.715V6.8H4.88zm-.864 2.549c0-.279.1-.505.302-.678.202-.173.467-.26.795-.26.318 0 .573.078.766.233a.739.739 0 0 1 .29.605.72.72 0 0 1-.032.213c-.022.07-.048.133-.078.188a1.24 1.24 0 0 1-.123.175 2.417 2.417 0 0 1-.274.29l-.674.62v.014h1.217v.551H4.057v-.479l1.1-1.011c.118-.113.2-.21.247-.287a.475.475 0 0 0 .073-.25.289.289 0 0 0-.108-.229.41.41 0 0 0-.28-.094.42.42 0 0 0-.3.114.376.376 0 0 0-.117.285v.014h-.656v-.014zm.732 5.258v-.494h.342c.12 0 .218-.031.29-.092a.309.309 0 0 0 .11-.246.296.296 0 0 0-.107-.242.46.46 0 0 0-.299-.088.435.435 0 0 0-.299.101.356.356 0 0 0-.121.266h-.648a.825.825 0 0 1 .308-.654c.2-.165.464-.247.791-.247.314 0 .565.07.754.21.19.139.285.324.285.556a.61.61 0 0 1-.162.428.734.734 0 0 1-.424.222v.016c.211.02.379.09.502.209.125.12.188.275.188.467a.727.727 0 0 1-.322.619c-.214.155-.497.232-.848.232-.33 0-.596-.082-.8-.248a.87.87 0 0 1-.327-.66h.684a.33.33 0 0 0 .13.254c.081.061.19.092.325.092a.48.48 0 0 0 .31-.096.311.311 0 0 0 .121-.254.313.313 0 0 0-.117-.258.502.502 0 0 0-.322-.093h-.344z"
      fill="#192734"></path>
  </symbol>
  <symbol viewBox="0 0 20 20" fill="none" xmlns="http://www.w3.org/2000/svg" id="icon-bullet-list">
    <path d="M7.333 5H16M7.333 9.8H16m-8.667 4.8H16M4 5h.006M4 9.8h.006M4 14.6h.006" stroke="#192734" stroke-linecap="round" stroke-linejoin="round"></path>
  </symbol>
  <symbol viewBox="0 0 20 20" fill="none" xmlns="http://www.w3.org/2000/svg" id="icon-image-add">
    <path d="M10.825 16H5.999A2 2 0 0 1 4 14V6a2 2 0 0 1 2-2h9a2 2 0 0 1 2 2v4.3" stroke="#192734" stroke-miterlimit="10" stroke-linecap="square"></path>
    <path d="M9.201 7.6a.7.7 0 1 1-1.4 0 .7.7 0 0 1 1.4 0z" stroke="#192734" stroke-miterlimit="10" stroke-linecap="square"></path>
    <path d="M6.5 13.6l2.4-3 2.4 1.8 3-3.6" stroke="#192734" stroke-miterlimit="10" stroke-linecap="round" stroke-linejoin="round"></path>
  </symbol>
  <symbol viewBox="0 0 20 20" fill="none" xmlns="http://www.w3.org/2000/svg" id="icon-link-url">
    <path d="M7.274 12.727l5.454-5.454M8.91 6.727l1.823-1.824a3.086 3.086 0 0 1 4.364 0 3.086 3.086 0 0 1 0 4.364l-1.824 1.824M6.727 8.91l-1.824 1.823a3.086 3.086 0 0 0 0 4.364 3.086 3.086 0 0 0 4.364 0l1.824-1.824" stroke="#192734" stroke-linecap="round"
      stroke-linejoin="round"></path>
  </symbol>
  <symbol viewBox="0 0 20 20" fill="none" xmlns="http://www.w3.org/2000/svg" id="icon-code">
    <path d="M12 5L8 15.4m-1.6-8L4 9.8l2.4 2.4m7.2-4.8L16 9.8l-2.4 2.4" stroke="#192734" stroke-linecap="round" stroke-linejoin="round"></path>
  </symbol>
  <symbol viewBox="0 0 20 20" fill="none" xmlns="http://www.w3.org/2000/svg" id="icon-quote">
    <path fill-rule="evenodd" clip-rule="evenodd" d="M8.437 5.312H5.521A.52.52 0 0 0 5 5.833v3.958a.52.52 0 0 0 .52.521h2.382c-.112 1.895-.857 3.103-2.268 3.686a.521.521 0 0 0 .398.963c1.942-.803 2.926-2.542 2.926-5.17V5.833a.52.52 0 0 0-.52-.52zm6.042 0h-2.917a.52.52 0 0 0-.52.521v3.958a.52.52 0 0 0 .52.521h2.381c-.112 1.895-.857 3.103-2.267 3.686a.521.521 0 0 0 .398.963C14.015 14.158 15 12.419 15 9.79V5.833a.52.52 0 0 0-.52-.52z"
      fill="#192734"></path>
  </symbol>
  <symbol viewBox="0 0 20 20" fill="none" xmlns="http://www.w3.org/2000/svg" id="icon-text-color">
    <path d="M10.16 6.157L9.132 9.123h2.046l-1.02-2.966zm.907-1.957l3.083 8.584h-1.833l-.802-2.252h-2.73l-.801 2.252H6.15L9.234 4.2h1.833z" fill="#192734"></path>
    <path d="M4 15.5a.5.5 0 0 1 .5-.5h11a.5.5 0 0 1 0 1h-11a.5.5 0 0 1-.5-.5z" fill="#73C42F"></path>
  </symbol>
  <symbol viewBox="0 0 20 20" fill="none" xmlns="http://www.w3.org/2000/svg" id="icon-italic">
    <path d="M7 13.596l.172-.85h1.146L9.685 5.85H8.539L8.712 5H12l-.172.85h-1.146l-1.367 6.896h1.146l-.173.85H7z" fill="#192734"></path>
  </symbol>
  <symbol viewBox="0 0 16 16" fill="none" xmlns="http://www.w3.org/2000/svg" id="icon-underline">
    <path d="M10 7L8 9 6 7m2 2V2" stroke="#122D43" stroke-linecap="round" stroke-linejoin="round"></path>
    <path d="M4.5 3.5h-2a1 1 0 0 0-1 1v7a1 1 0 0 0 1 1h11a1 1 0 0 0 1-1v-7a1 1 0 0 0-1-1h-2" stroke="#122D43" stroke-linecap="round" stroke-linejoin="round"></path>
  </symbol>
  <symbol viewBox="0 0 20 20" fill="none" xmlns="http://www.w3.org/2000/svg" id="icon-bold">
    <path d="M8.023 4.3v5.377c0 .59.173 1.064.52 1.422.35.354.835.531 1.457.531.622 0 1.108-.177 1.458-.53.35-.359.525-.833.525-1.423V4.3H13.5v5.513c0 .94-.317 1.7-.95 2.278-.63.578-1.48.868-2.55.868-1.066 0-1.916-.29-2.55-.868-.633-.579-.95-1.338-.95-2.278V4.3h1.523zM4 15.5a.5.5 0 0 1 .5-.5h11a.5.5 0 0 1 0 1h-11a.5.5 0 0 1-.5-.5z"
      fill="#192734"></path>
  </symbol>
  <symbol viewBox="0 0 20 20" fill="none" xmlns="http://www.w3.org/2000/svg" id="icon-account-in">
    <rect width="20" height="20" rx="3" fill="#E3F1FE"></rect>
    <path d="M8.797 10.485v2.668h1.522c1.256 0 1.884-.444 1.884-1.334 0-.89-.628-1.334-1.884-1.334H8.797zm0-3.876v2.266h1.126c.617 0 1.057-.107 1.321-.321.264-.22.396-.485.396-.798 0-.318-.134-.588-.402-.812-.264-.223-.702-.335-1.315-.335H8.797zM7 5h2.923c.416 0 .796.031 1.14.094.344.062.635.145.872.248.237.098.447.221.63.369a2.057 2.057 0 0 1 .697.932c.068.174.112.337.135.49.026.147.04.299.04.455 0 .487-.13.883-.39 1.187a2.11 2.11 0 0 1-1.012.644c.43.102.798.301 1.107.596.313.295.534.6.664.912.13.313.194.61.194.892 0 .237-.025.474-.074.71a2.73 2.73 0 0 1-.295.772 2.64 2.64 0 0 1-.59.73c-.241.206-.58.38-1.019.524-.434.138-.934.207-1.502.207H7V5z"
      fill="#2D95F0"></path>
  </symbol>
  <symbol viewBox="0 0 16 16" fill="none" xmlns="http://www.w3.org/2000/svg" id="icon-drag-1">
    <path fill-rule="evenodd" clip-rule="evenodd" d="M6.9 3a1.5 1.5 0 1 1-3 0 1.5 1.5 0 0 1 3 0zm0 10a1.5 1.5 0 1 1-3 0 1.5 1.5 0 0 1 3 0zM5.4 9.5a1.5 1.5 0 1 0 0-3 1.5 1.5 0 0 0 0 3zM12.15 3a1.5 1.5 0 1 1-3 0 1.5 1.5 0 0 1 3 0zm-1.5 11.5a1.5 1.5 0 1 0 0-3 1.5 1.5 0 0 0 0 3zm1.5-6.5a1.5 1.5 0 1 1-3 0 1.5 1.5 0 0 1 3 0z"
      fill="#A6B1B9"></path>
  </symbol>
  <symbol viewBox="0 0 12 12" fill="none" xmlns="http://www.w3.org/2000/svg" id="icon-drag">
    <path fill-rule="evenodd" clip-rule="evenodd" d="M4.875 1.5a1.5 1.5 0 1 1-3 0 1.5 1.5 0 0 1 3 0zm0 9a1.5 1.5 0 1 1-3 0 1.5 1.5 0 0 1 3 0zm-1.5-3a1.5 1.5 0 1 0 0-3 1.5 1.5 0 0 0 0 3zm6.75-6a1.5 1.5 0 1 1-3 0 1.5 1.5 0 0 1 3 0zM8.625 12a1.5 1.5 0 1 0 0-3 1.5 1.5 0 0 0 0 3zm1.5-6a1.5 1.5 0 1 1-3 0 1.5 1.5 0 0 1 3 0z"
      fill="#A6B1B9"></path>
  </symbol>
  <symbol viewBox="0 0 12 12" fill="none" xmlns="http://www.w3.org/2000/svg" id="icon-right-arrow">
    <path d="M10 6.002L1 6m6.7-2.998l3 3-3 3" stroke="#192734" stroke-linecap="round" stroke-linejoin="round"></path>
  </symbol>
  <symbol viewBox="0 0 16 16" fill="none" xmlns="http://www.w3.org/2000/svg" id="icon-review">
    <path d="M7.33 3.71c.2-.662 1.14-.662 1.34 0l.68 2.243a.7.7 0 0 0 .67.497h2.437c.667 0 .956.844.43 1.253l-1.975 1.533a.7.7 0 0 0-.239.763l.763 2.424c.204.65-.544 1.178-1.088.77L8.42 11.746a.7.7 0 0 0-.84 0l-1.928 1.447c-.544.409-1.292-.12-1.088-.77L5.327 10a.7.7 0 0 0-.239-.763L3.114 7.703c-.527-.409-.238-1.253.43-1.253H5.98a.7.7 0 0 0 .67-.497l.68-2.242z"
      stroke="#4C5A67" stroke-linecap="round" stroke-linejoin="round"></path>
  </symbol>
  <symbol viewBox="0 0 16 16" fill="none" xmlns="http://www.w3.org/2000/svg" id="icon-tag">
    <path d="M12.64 10.257l-2.533 2.533a1.5 1.5 0 0 1-2.121 0L2.496 7.3a.5.5 0 0 1-.146-.353V3a.5.5 0 0 1 .5-.5h3.947a.5.5 0 0 1 .353.146l5.49 5.49a1.5 1.5 0 0 1 0 2.121z" stroke="#4C5A67" stroke-linecap="round" stroke-linejoin="round"></path>
    <path d="M6.08 5.462a.77.77 0 1 1-1.538 0 .77.77 0 0 1 1.538 0z" stroke="#4C5A67" stroke-linecap="round" stroke-linejoin="round"></path>
  </symbol>
  <symbol viewBox="0 0 16 16" fill="none" xmlns="http://www.w3.org/2000/svg" id="icon-assign">
    <path d="M11.819 12.819H13a1 1 0 0 0 1-1V10.46a.546.546 0 0 0-.343-.507l-2.04-.818a.545.545 0 0 1-.344-.505v-.479a2.172 2.172 0 0 0 1.091-1.879v-1.09a2.181 2.181 0 0 0-3.273-1.89m.202 7.208l-2.04-.818a.546.546 0 0 1-.344-.505v-.48A2.172 2.172 0 0 0 8 6.82V5.728a2.182 2.182 0 1 0-4.364 0v1.09a2.172 2.172 0 0 0 1.091 1.88v.479a.546.546 0 0 1-.343.506l-2.04.818a.546.546 0 0 0-.344.505v.813a1 1 0 0 0 1 1h5.636a1 1 0 0 0 1-1v-.813a.545.545 0 0 0-.343-.506z"
      stroke="#4C5A67" stroke-miterlimit="10" stroke-linecap="round" stroke-linejoin="round"></path>
  </symbol>
  <symbol viewBox="0 0 16 16" fill="none" xmlns="http://www.w3.org/2000/svg" id="icon-share">
    <path d="M8.8 10H6.4a4 4 0 0 0-4 4h7.2m-2-6.4a2.8 2.8 0 1 0 0-5.6 2.8 2.8 0 0 0 0 5.6zM12 10v3.2m-1.6-1.6h3.2" stroke="#4C5A67" stroke-linecap="round" stroke-linejoin="round"></path>
  </symbol>
  <symbol viewBox="0 0 16 16" fill="none" xmlns="http://www.w3.org/2000/svg" id="icon-close-alt">
    <path fill-rule="evenodd" clip-rule="evenodd" d="M3.78 2.72a.75.75 0 0 0-1.06 1.06l4.22 4.221-4.22 4.221a.75.75 0 1 0 1.06 1.06l4.221-4.22 4.221 4.22a.75.75 0 1 0 1.06-1.06l-4.22-4.22 4.22-4.222a.75.75 0 0 0-1.06-1.06l-4.22 4.22L3.78 2.72z" fill="#4C5A67"></path>
  </symbol>
  <symbol viewBox="0 0 16 16" fill="none" xmlns="http://www.w3.org/2000/svg" id="icon-insert-below">
    <rect x="3" y="11" width="11" height="2" rx="1" stroke="#192734"></rect>
    <path d="M3 6h11M3 3.5h11" stroke="#192734" stroke-linecap="round"></path>
    <path d="M1.487 10.11l1.72-1.376a.3.3 0 0 0 0-.468L1.487 6.89A.3.3 0 0 0 1 7.124v2.752a.3.3 0 0 0 .487.234z" fill="#192734"></path>
  </symbol>
  <symbol viewBox="0 0 16 16" fill="none" xmlns="http://www.w3.org/2000/svg" id="icon-insert-above">
    <rect x="3" y="3" width="11" height="2" rx="1" stroke="#192734"></rect>
    <path d="M1.487 9.11l1.72-1.376a.3.3 0 0 0 0-.468L1.487 5.89A.3.3 0 0 0 1 6.124v2.752a.3.3 0 0 0 .487.234z" fill="#192734"></path>
    <path d="M3 10h11M3 12.5h11" stroke="#192734" stroke-linecap="round"></path>
  </symbol>
  <symbol viewBox="0 0 16 16" fill="none" xmlns="http://www.w3.org/2000/svg" id="icon-delete">
    <path d="M3.5 3v9.059C3.5 13.13 4.246 14 5.167 14h5.666c.921 0 1.667-.869 1.667-1.941V3m-10 0h11M5 3v-.5A1.5 1.5 0 0 1 6.5 1h3A1.5 1.5 0 0 1 11 2.5V3M9.4 6.7v4.286M6.6 6.7v4.286" stroke="#192734" stroke-miterlimit="10" stroke-linecap="round" stroke-linejoin="round"></path>
  </symbol>
  <symbol viewBox="0 0 12 12" fill="none" xmlns="http://www.w3.org/2000/svg" id="icon-external-link">
    <path d="M9 6.5v3a1 1 0 0 1-1 1H2.5a1 1 0 0 1-1-1V4a1 1 0 0 1 1-1h3m2-1.5h3v2.625M5 7l5.5-5.5" stroke="#192734" stroke-linecap="round" stroke-linejoin="round"></path>
  </symbol>
  <symbol viewBox="0 0 16 16" fill="none" xmlns="http://www.w3.org/2000/svg" id="icon-duplicate">
    <path fill-rule="evenodd" clip-rule="evenodd" d="M6.936 2a2 2 0 0 0-2 2v.649h1V4a1 1 0 0 1 1-1h5.566a1 1 0 0 1 1 1v4.595a1 1 0 0 1-1 1h-.642v1h.642a2 2 0 0 0 2-2V4a2 2 0 0 0-2-2H6.936zM3.5 5.402a2 2 0 0 0-2 2v4.595a2 2 0 0 0 2 2h5.566a2 2 0 0 0 2-2V7.402a2 2 0 0 0-2-2H3.5zm-1 2a1 1 0 0 1 1-1h5.566a1 1 0 0 1 1 1v4.595a1 1 0 0 1-1 1H3.5a1 1 0 0 1-1-1V7.402z"
      fill="#192734"></path>
  </symbol>
  <symbol viewBox="0 0 16 16" fill="none" xmlns="http://www.w3.org/2000/svg" id="icon-permission">
    <path d="M8 2a10.534 10.534 0 0 1-6 2.8s0 6.8 6 9.2c6-2.4 6-9.2 6-9.2A10.534 10.534 0 0 1 8 2z" stroke="#192734" stroke-linecap="round" stroke-linejoin="round"></path>
    <path d="M5.75 8l1.5 1.5 3-3" stroke="#192734" stroke-linecap="round" stroke-linejoin="round"></path>
  </symbol>
  <symbol viewBox="0 0 16 16" fill="none" xmlns="http://www.w3.org/2000/svg" id="icon-lock">
    <path fill-rule="evenodd" clip-rule="evenodd" d="M8.077 1.45h-.055a3.356 3.356 0 0 0-3.387 3.322v.35H3.75a2 2 0 0 0-2 2v5.391a2 2 0 0 0 2 2h8.539a2 2 0 0 0 2-2V7.122a2 2 0 0 0-2-2h-.885v-.285A3.356 3.356 0 0 0 8.082 1.45h-.005zm2.327 3.672V4.83a2.356 2.356 0 0 0-2.33-2.38h-.06a2.356 2.356 0 0 0-2.38 2.33v.342h4.77zm-6.654 1a1 1 0 0 0-1 1v5.391a1 1 0 0 0 1 1h8.539a1 1 0 0 0 1-1V7.122a1 1 0 0 0-1-1H3.75zm4.27 4.269a.573.573 0 1 0 0-1.147.573.573 0 0 0 0 1.147zm1.573-.574a1.573 1.573 0 1 1-3.147 0 1.573 1.573 0 0 1 3.147 0z"
      fill="#192734"></path>
  </symbol>
  <symbol viewBox="0 0 16 16" fill="none" xmlns="http://www.w3.org/2000/svg" id="icon-kanban">
    <rect x="2.5" y="2.5" width="4" height="11" rx="1" stroke="#000"></rect>
    <rect x="9.5" y="2.5" width="4" height="7" rx="1" stroke="#000"></rect>
  </symbol>
  <symbol viewBox="0 0 16 16" fill="none" xmlns="http://www.w3.org/2000/svg" id="icon-sort-ascending">
    <path d="M1.75 3.25h9m-9 4h6m-6 4h4m8.5-3.5l-2-2-2 2m2 4v-6" stroke="#192734" stroke-miterlimit="10" stroke-linecap="round" stroke-linejoin="round"></path>
  </symbol>
  <symbol viewBox="0 0 16 16" fill="none" xmlns="http://www.w3.org/2000/svg" id="icon-sort-desending">
    <path d="M1.75 3.25h9m-9 4h6m-6 4h4m4.5-.5l2 2 2-2m-2 1v-6" stroke="#192734" stroke-miterlimit="10" stroke-linecap="round" stroke-linejoin="round"></path>
  </symbol>
  <symbol viewBox="0 0 16 16" fill="none" xmlns="http://www.w3.org/2000/svg" id="icon-refresh">
    <path d="M13.644 8.43a5.571 5.571 0 1 1-.876-3.001M12.787 2v3.429H9.358" stroke="#192734" stroke-linecap="round" stroke-linejoin="round"></path>
  </symbol>
  <symbol viewBox="0 0 16 16" fill="none" xmlns="http://www.w3.org/2000/svg" id="icon-filter">
    <path d="M2 4h12M4 8h8m-5.5 4h3" stroke="#192734" stroke-miterlimit="10" stroke-linecap="round" stroke-linejoin="round"></path>
  </symbol>
  <symbol viewBox="0 0 16 16" fill="none" xmlns="http://www.w3.org/2000/svg" id="icon-table-2">
    <path fill-rule="evenodd" clip-rule="evenodd" d="M2.5 3.722c0-.454.316-.722.59-.722h9.82c.274 0 .59.268.59.722V5h-11V3.722zM1.5 5.5V3.722C1.5 2.826 2.16 2 3.09 2h9.82c.93 0 1.59.826 1.59 1.722v8.556c0 .896-.66 1.722-1.59 1.722H3.09c-.93 0-1.59-.826-1.59-1.722V5.5zm1 3.5V6h3v3h-3zm0 1v2.278c0 .454.316.722.59.722H5.5v-3h-3zm4 3h3v-3h-3v3zm4 0h2.41c.274 0 .59-.268.59-.722V10h-3v3zm3-4V6h-3v3h3zm-4 0h-3V6h3v3z"
      fill="#192734"></path>
  </symbol>
  <symbol viewBox="0 0 16 16" fill="none" xmlns="http://www.w3.org/2000/svg" id="icon-gannt">
    <path d="M2.5 3.5h2m7 9h2m-10-6h6m-3 3h6" stroke="#192734" stroke-linecap="round" stroke-linejoin="round"></path>
  </symbol>
  <symbol viewBox="0 0 16 16" fill="none" xmlns="http://www.w3.org/2000/svg" id="icon-table">
    <path fill-rule="evenodd" clip-rule="evenodd" d="M2.5 3.722c0-.454.316-.722.59-.722H5.2v2.7H2.5V3.722zm0 2.978v2.6h2.7V6.7H2.5zm0 3.6h2.7V13H3.09c-.274 0-.59-.268-.59-.722V10.3zM6.2 13h6.71c.274 0 .59-.268.59-.722V10.3H6.2V13zm7.3-3.7V6.7H6.2v2.6h7.3zm0-3.6V3.722c0-.454-.316-.722-.59-.722H6.2v2.7h7.3zm-12 4.1V3.722C1.5 2.826 2.16 2 3.09 2h9.82c.93 0 1.59.826 1.59 1.722v8.556c0 .896-.66 1.722-1.59 1.722H3.09c-.93 0-1.59-.826-1.59-1.722V9.8z"
      fill="#192734"></path>
  </symbol>
  <symbol viewBox="0 0 16 16" fill="none" xmlns="http://www.w3.org/2000/svg" id="icon-favourite-active">
    <path d="M13.706 3.15a3.784 3.784 0 0 0-5.434 0c-.104.106-.183.227-.272.34-.089-.113-.168-.234-.272-.34a3.784 3.784 0 0 0-5.434 0c-.563.576-.799 1.553-.794 2.63.015 3.468 3 5.85 5.745 7.886.45.334 1.06.334 1.51 0 2.746-2.035 5.73-4.418 5.745-7.886.005-1.077-.231-2.054-.794-2.63z"
      fill="#E24C4C"></path>
  </symbol>
  <symbol viewBox="0 0 16 16" fill="none" xmlns="http://www.w3.org/2000/svg" id="icon-favourite-resting">
    <path d="M7.606 3.799L8 4.302l.394-.503.106-.14c.048-.065.08-.108.129-.159a3.284 3.284 0 0 1 4.72 0c.424.434.655 1.245.65 2.278-.006 1.578-.685 2.931-1.728 4.159-1.05 1.234-2.439 2.308-3.814 3.328a.763.763 0 0 1-.914 0c-1.375-1.02-2.764-2.094-3.814-3.328C2.686 8.709 2.007 7.357 2 5.778c-.004-1.033.227-1.844.651-2.278a3.284 3.284 0 0 1 4.72 0c.05.05.081.094.129.158.028.038.061.083.106.14z"
      stroke="#192734"></path>
  </symbol>
  <symbol viewBox="0 0 16 16" fill="none" xmlns="http://www.w3.org/2000/svg" id="icon-month-view">
    <path d="M5 5.778v4.444m3-4.444v4.444M3 3h10c.552 0 1 .497 1 1.111v7.778c0 .614-.448 1.111-1 1.111H3c-.552 0-1-.498-1-1.111V4.11C2 3.497 2.448 3 3 3z" stroke="#112C42" stroke-linecap="round" stroke-linejoin="round"></path>
  </symbol>
  <symbol viewBox="0 0 20 20" fill="none" xmlns="http://www.w3.org/2000/svg" id="icon-notification">
    <g clip-path="url(#clip0)">
      <path fill-rule="evenodd" clip-rule="evenodd" d="M12.322 16H8c.109 1.123 1.035 2 2.161 2 1.126 0 2.052-.877 2.161-2z" stroke="#192734" stroke-linejoin="round"></path>
      <path d="M4.496 8.5c0-2.519 1.634-4.708 3.962-5.395a5.637 5.637 0 0 1 1.528-.208c.524 0 1.031.07 1.522.208 2.328.687 3.962 2.877 3.962 5.395v4.741c0 .518.457.987 1.371 1.405V15a1 1 0 0 1-1 1H4a1 1 0 0 1-1-1v-.354c.997-.42 1.496-.888 1.496-1.405V8.5z"
        stroke="#192734" stroke-linejoin="round"></path>
      <path d="M13.5 5.75a2.75 2.75 0 1 0 0-5.5 2.75 2.75 0 0 0 0 5.5z" fill="#FF5858" stroke="#fff" stroke-width="1.5"></path>
    </g>
    <defs>
      <clipPath id="icon-clip0">
        <path fill="#fff" d="M0 0h20v20H0z"></path>
      </clipPath>
    </defs>
  </symbol>
  <symbol viewBox="0 0 16 16" fill="none" xmlns="http://www.w3.org/2000/svg" id="icon-small-message">
    <path d="M13.2 2H2.8a1.3 1.3 0 0 0-1.3 1.3v6.933a1.3 1.3 0 0 0 1.3 1.3h1.7a.5.5 0 0 1 .5.5v1.675a.2.2 0 0 0 .307.168l3.448-2.187a1 1 0 0 1 .535-.156h3.91a1.3 1.3 0 0 0 1.3-1.3V3.3A1.3 1.3 0 0 0 13.2 2z" stroke="#192734" stroke-miterlimit="10" stroke-linecap="square"></path>
    <path d="M5 5h5.5M5 7.5h3" stroke="#192734" stroke-miterlimit="10" stroke-linecap="round"></path>
  </symbol>
  <symbol viewBox="0 0 20 20" fill="none" xmlns="http://www.w3.org/2000/svg" id="icon-message">
    <path d="M16 3H4c-.398 0-.78.155-1.06.43a1.45 1.45 0 0 0-.44 1.037v8.322c0 .389.158.762.44 1.037.28.275.662.43 1.06.43h1.5a.5.5 0 0 1 .5.5v2.324a.2.2 0 0 0 .326.156l3.536-2.869a.5.5 0 0 1 .315-.112H16c.398 0 .78-.154 1.06-.429a1.45 1.45 0 0 0 .44-1.037V4.467a1.45 1.45 0 0 0-.44-1.037A1.518 1.518 0 0 0 16 3z"
      stroke="#192734" stroke-miterlimit="10" stroke-linecap="square"></path>
    <path d="M6 6.5h7m-7 3h4" stroke="#192734" stroke-miterlimit="10" stroke-linecap="round"></path>
  </symbol>
  <symbol viewBox="0 0 16 16" fill="none" xmlns="http://www.w3.org/2000/svg" id="icon-search">
    <path d="M7.389 12.278a4.889 4.889 0 1 0 0-9.778 4.889 4.889 0 0 0 0 9.778zM13.5 13.5l-2.658-2.658" stroke="#4C5A67" stroke-linecap="round" stroke-linejoin="round"></path>
  </symbol>
  <symbol viewBox="0 0 16 16" fill="none" xmlns="http://www.w3.org/2000/svg" id="icon-dot-vertical">
    <path fill-rule="evenodd" clip-rule="evenodd" d="M8 5a1 1 0 1 0 0-2 1 1 0 0 0 0 2zm0 4a1 1 0 1 0 0-2 1 1 0 0 0 0 2zm1 3a1 1 0 1 1-2 0 1 1 0 0 1 2 0z" fill="#192734"></path>
  </symbol>
  <symbol viewBox="0 0 16 16" fill="none" xmlns="http://www.w3.org/2000/svg" id="icon-dot-horizontal">
    <path fill-rule="evenodd" clip-rule="evenodd" d="M5 8a1 1 0 1 1-2 0 1 1 0 0 1 2 0zm3 1a1 1 0 1 0 0-2 1 1 0 0 0 0 2zm4 0a1 1 0 1 0 0-2 1 1 0 0 0 0 2z" fill="#192734"></path>
  </symbol>
  <symbol viewBox="0 0 16 16" fill="none" xmlns="http://www.w3.org/2000/svg" id="icon-menu">
    <path fill-rule="evenodd" clip-rule="evenodd" d="M2 4a.5.5 0 0 1 .5-.5h10.998a.5.5 0 0 1 0 1H2.5A.5.5 0 0 1 2 4zm0 4a.5.5 0 0 1 .5-.5h10.998a.5.5 0 0 1 0 1H2.5A.5.5 0 0 1 2 8zm.5 3.5a.5.5 0 0 0 0 1h10.998a.5.5 0 0 0 0-1H2.5z" fill="#192734"></path>
  </symbol>
  <symbol viewBox="0 0 16 16" fill="none" xmlns="http://www.w3.org/2000/svg" id="icon-list-alt">
    <path fill-rule="evenodd" clip-rule="evenodd" d="M2.667 3.25a.75.75 0 0 0 0 1.5h.007a.75.75 0 0 0 0-1.5h-.007zm2.666.25a.5.5 0 0 0 0 1H14a.5.5 0 0 0 0-1H5.333zm0 4a.5.5 0 0 0 0 1H14a.5.5 0 0 0 0-1H5.333zm-.5 4.5a.5.5 0 0 1 .5-.5H14a.5.5 0 0 1 0 1H5.333a.5.5 0 0 1-.5-.5zM1.917 8a.75.75 0 0 1 .75-.75h.007a.75.75 0 0 1 0 1.5h-.007a.75.75 0 0 1-.75-.75zm.75 3.25a.75.75 0 0 0 0 1.5h.007a.75.75 0 0 0 0-1.5h-.007z"
      fill="#192734"></path>
  </symbol>
  <symbol viewBox="0 0 16 16" fill="none" xmlns="http://www.w3.org/2000/svg" id="icon-group-by">
    <rect x="2.5" y="3.5" width="11" height="3" rx="1.5" stroke="#192734"></rect>
    <rect x="2.5" y="9.5" width="9" height="3" rx="1.5" stroke="#192734"></rect>
  </symbol>
  <symbol viewBox="0 0 16 16" fill="none" xmlns="http://www.w3.org/2000/svg" id="icon-create">
    <path fill-rule="evenodd" clip-rule="evenodd" d="M6.24 9.758l1.86-.474 5.612-5.612a.98.98 0 1 0-1.385-1.385L6.713 7.9 6.24 9.758zM3 4.608a1 1 0 0 1 1-1h4.318a.5.5 0 1 0 0-1H4a2 2 0 0 0-2 2v7.39a2 2 0 0 0 2 2h7.39a2 2 0 0 0 2-2V7.68a.5.5 0 0 0-1 0v4.318a1 1 0 0 1-1 1H4a1 1 0 0 1-1-1v-7.39z"
      fill="#192734"></path>
  </symbol>
  <symbol viewBox="0 0 16 16" fill="none" xmlns="http://www.w3.org/2000/svg" id="icon-upload">
    <path fill-rule="evenodd" clip-rule="evenodd" d="M7.717 3c2.29 0 4.211 1.859 4.494 4.266 1.272.152 2.289 1.31 2.289 2.742 0 1.523-1.13 2.742-2.543 2.742H4.043c-1.413 0-2.543-1.219-2.543-2.742 0-1.188.707-2.224 1.724-2.59C3.422 4.92 5.372 3 7.717 3zm.148 2.37a.499.499 0 0 0-.363.156L5.946 7.081a.5.5 0 1 0 .708.707l.71-.711v3.097a.5.5 0 0 0 1 0V7.076l.713.712a.5.5 0 0 0 .707-.707L8.219 5.516a.498.498 0 0 0-.354-.146z"
      fill="#192734"></path>
  </symbol>
  <symbol viewBox="0 0 16 16" fill="none" xmlns="http://www.w3.org/2000/svg" id="icon-share-people">
    <path d="M10.633 2.8c-.474 0-.906.163-1.257.428a3.64 3.64 0 0 1 .734 2.19v.524c0 .5-.101.976-.283 1.41a2.095 2.095 0 0 0 2.902-1.933v-.524A2.095 2.095 0 0 0 10.632 2.8zm-4.12 5.761a2.619 2.619 0 0 1-2.618-2.619V5.42a2.619 2.619 0 0 1 5.237 0v.523a2.619 2.619 0 0 1-2.619 2.62zm7.179.474c-.672-.309-1.825-.736-3.058-.736-.626 0-1.23.11-1.763.26.197.04.394.082.591.132a3.642 3.642 0 0 1 2.72 3.274h1.594c.29 0 .524-.234.524-.523V9.986c0-.41-.236-.78-.608-.951z"
      fill="#192734"></path>
    <path d="M10.703 13.013h-8.38a.524.524 0 0 1-.523-.524v-.249c0-1.191.8-2.24 1.954-2.534a11.25 11.25 0 0 1 2.76-.36c1.036 0 1.987.163 2.759.36a2.61 2.61 0 0 1 1.954 2.534v.25a.524.524 0 0 1-.524.523z" fill="#192734"></path>
  </symbol>
  <symbol viewBox="0 0 16 16" fill="none" xmlns="http://www.w3.org/2000/svg" id="icon-edit-fill">
    <path fill-rule="evenodd" clip-rule="evenodd" d="M11.305 2.62c-.192.08-.367.197-.515.345l-.612.612 2.106 2.106-.708.707-2.105-2.106-6.163 6.163a.5.5 0 0 0-.128.222l-.67 2.452a.3.3 0 0 0 .37.368l2.451-.669a.5.5 0 0 0 .222-.129l7.482-7.481a1.586 1.586 0 0 0-1.122-2.71c-.209 0-.415.041-.608.12z"
      fill="#192734"></path>
  </symbol>
  <symbol viewBox="0 0 16 16" fill="none" xmlns="http://www.w3.org/2000/svg" id="icon-printer">
    <mask id="icon-a" fill="#fff">
      <path d="M4 5.5V3a1.5 1.5 0 0 1 1.5-1.5h5A1.5 1.5 0 0 1 12 3v2.5"></path>
    </mask>
    <path d="M4 5a.5.5 0 0 0 0 1V5zm8 1a.5.5 0 0 0 0-1v1zm0-1H4v1h8V5zm-9 .5a1 1 0 0 0 2 0H3zm8 0a1 1 0 1 0 2 0h-2zm-6 0V3H3v2.5h2zm.5-3h5v-2h-5v2zM11 3v2.5h2V3h-2zm-.5-.5a.5.5 0 0 1 .5.5h2A2.5 2.5 0 0 0 10.5.5v2zM5 3a.5.5 0 0 1 .5-.5v-2A2.5 2.5 0 0 0 3 3h2z"
      fill="#192734" mask="url(#a)"></path>
    <mask id="icon-b" fill="#fff">
      <path d="M3.7 11.5h9.6a1.2 1.2 0 0 0 1.2-1.2V7.2A2.2 2.2 0 0 0 12.3 5H3.7a2.2 2.2 0 0 0-2.2 2.2v3.1a1.2 1.2 0 0 0 1.2 1.2h1z"></path>
    </mask>
    <path d="M4.9 10.5H3.7v2h1.2v-2zm-2.4-.2V7.2h-2v3.1h2zM3.7 6h8.6V4H3.7v2zm9.8 1.2v3.1h2V7.2h-2zm-.2 3.3h-1.5v2h1.5v-2zm-10.6 2h1v-2h-1v2zm9.1-2H4.9v2h6.9v-2zM.5 10.3a2.2 2.2 0 0 0 2.2 2.2v-2a.2.2 0 0 1-.2-.2h-2zm13 0a.2.2 0 0 1-.2.2v2a2.2 2.2 0 0 0 2.2-2.2h-2zM12.3 6a1.2 1.2 0 0 1 1.2 1.2h2A3.2 3.2 0 0 0 12.3 4v2zM2.5 7.2A1.2 1.2 0 0 1 3.7 6V4A3.2 3.2 0 0 0 .5 7.2h2z"
      fill="#192734" mask="url(#b)"></path>
    <path d="M4.5 9.5h7V12a1 1 0 0 1-1 1h-5a1 1 0 0 1-1-1V9.5z" fill="#fff" stroke="#192734" stroke-linecap="round" stroke-linejoin="round"></path>
    <circle cx="12" cy="7.5" r=".5" fill="#12283A"></circle>
  </symbol>
  <symbol viewBox="0 0 16 16" fill="none" xmlns="http://www.w3.org/2000/svg" id="icon-edit">
    <path fill-rule="evenodd" clip-rule="evenodd" d="M10.348 3.207a1 1 0 0 1 1.415 0l1.03 1.03a1 1 0 0 1 0 1.415l-6.626 6.626L2.5 13.5l1.222-3.667 6.626-6.626z" stroke="#192734" stroke-linecap="round" stroke-linejoin="round"></path>
  </symbol>
  <symbol viewBox="0 0 16 16" fill="none" xmlns="http://www.w3.org/2000/svg" id="icon-attachment">
    <path d="M14 7.666l-5.313 5.221c-1.51 1.484-4.045 1.484-5.555 0-1.51-1.483-1.51-3.975 0-5.458L7.842 2.8a2.73 2.73 0 0 1 3.864 0c1.087 1.068 1.087 2.73 0 3.797L7.358 10.81c-.603.593-1.57.593-2.113 0-.603-.593-.603-1.543 0-2.077l3.623-3.56" stroke="#192734"
      stroke-miterlimit="10" stroke-linecap="round"></path>
  </symbol>
  <symbol viewBox="0 0 16 16" fill="none" xmlns="http://www.w3.org/2000/svg" id="icon-up-1">
    <path d="M13 10.5l-5-5-5 5" stroke="#192734" stroke-linecap="round" stroke-linejoin="round"></path>
  </symbol>
  <symbol viewBox="0 0 16 16" fill="none" xmlns="http://www.w3.org/2000/svg" id="icon-down">
    <path d="M3 5.5l5 5 5-5" stroke="#192734" stroke-linecap="round" stroke-linejoin="round"></path>
  </symbol>
  <symbol viewBox="0 0 16 16" fill="none" xmlns="http://www.w3.org/2000/svg" id="icon-small-add">
    <path d="M8 4v8M4 8h8" stroke="#192734" stroke-width="1.5" stroke-miterlimit="10" stroke-linecap="round" stroke-linejoin="round"></path>
  </symbol>
  <symbol viewBox="0 0 16 16" fill="none" xmlns="http://www.w3.org/2000/svg" id="icon-add">
    <path d="M8 3v10M3 8h10" stroke="#192734" stroke-miterlimit="10" stroke-linecap="round" stroke-linejoin="round"></path>
  </symbol>
</svg>